<svg xmlns="http://www.w3.org/2000/svg" xmlns:xlink="http://www.w3.org/1999/xlink" width="500" zoomAndPan="magnify" viewBox="0 0 375 374.999991" height="500" preserveAspectRatio="xMidYMid meet" version="1.0"><defs><clipPath id="6e606c1dab"><path d="M 138 66 L 157 66 L 157 85 L 138 85 Z M 138 66 " clip-rule="nonzero"/></clipPath><clipPath id="e0c23cf7d1"><path d="M 138.386719 75.714844 C 138.386719 79.738281 141.070312 83.132812 144.746094 84.207031 C 145.535156 84.4375 146.371094 84.5625 147.234375 84.5625 C 148.378906 84.5625 149.472656 84.34375 150.476562 83.949219 C 153.757812 82.65625 156.082031 79.457031 156.082031 75.714844 C 156.082031 70.828125 152.121094 66.867188 147.234375 66.867188 C 142.347656 66.867188 138.386719 70.828125 138.386719 75.714844 Z M 138.386719 75.714844 " clip-rule="evenodd"/></clipPath></defs><path stroke-linecap="round" transform="matrix(0.0135, 0, 0, 0.0135, -28.509993, -9.647967)" fill="none" stroke-linejoin="round" d="M 13673.484418 6323.171727 C 13673.484418 6366.285157 13669.14414 6408.819883 13660.752935 6451.065257 C 13652.361731 6493.31063 13639.9196 6534.109245 13623.426543 6574.039804 C 13606.933486 6613.681011 13586.968207 6651.586107 13562.952001 6687.176387 C 13538.935796 6723.05602 13512.026071 6756.042134 13481.354772 6786.424081 C 13450.972825 6817.09538 13417.986711 6844.005104 13382.107079 6868.02131 C 13346.516798 6892.037516 13308.611702 6912.002795 13268.970495 6928.495852 C 13229.039936 6944.988909 13188.241322 6957.43104 13145.995948 6965.822244 C 13103.750574 6974.213448 13061.215848 6978.553727 13018.102419 6978.553727 C 12974.988989 6978.553727 12932.454263 6974.213448 12890.20889 6965.822244 C 12847.963516 6957.43104 12807.164901 6944.988909 12767.234342 6928.495852 C 12727.593135 6912.002795 12689.688039 6892.037516 12654.097759 6868.02131 C 12618.218126 6844.005104 12585.232012 6817.09538 12554.850065 6786.424081 C 12524.468118 6756.042134 12497.269042 6723.05602 12473.252836 6687.176387 C 12449.236631 6651.586107 12429.271351 6613.681011 12412.778294 6574.039804 C 12396.285237 6534.109245 12383.843107 6493.31063 12375.451902 6451.065257 C 12367.060698 6408.819883 12362.72042 6366.285157 12362.72042 6323.171727 C 12362.72042 6280.058298 12367.060698 6237.523572 12375.451902 6195.278198 C 12383.843107 6153.032824 12396.285237 6112.23421 12412.778294 6072.303651 C 12429.271351 6032.662444 12449.236631 5994.757348 12473.252836 5959.167067 C 12497.269042 5923.287435 12524.468118 5890.301321 12554.850065 5859.919374 C 12585.232012 5829.248075 12618.218126 5802.338351 12654.097759 5778.322145 C 12689.688039 5754.305939 12727.593135 5734.34066 12767.234342 5717.847603 C 12807.164901 5701.354546 12847.963516 5688.912415 12890.20889 5680.521211 C 12932.454263 5672.130006 12974.988989 5667.789728 13018.102419 5667.789728 C 13061.215848 5667.789728 13103.750574 5672.130006 13145.995948 5680.521211 C 13188.241322 5688.912415 13229.039936 5701.354546 13268.970495 5717.847603 C 13308.611702 5734.34066 13346.516798 5754.305939 13382.107079 5778.322145 C 13417.986711 5802.338351 13450.972825 5829.248075 13481.354772 5859.919374 C 13512.026071 5890.301321 13538.935796 5923.287435 13562.952001 5959.167067 C 13586.968207 5994.757348 13606.933486 6032.662444 13623.426543 6072.303651 C 13639.9196 6112.23421 13652.361731 6153.032824 13660.752935 6195.278198 C 13669.14414 6237.523572 13673.484418 6280.058298 13673.484418 6323.171727 Z M 13673.484418 6323.171727 " stroke="#373435" stroke-width="141.110001" stroke-opacity="1" stroke-miterlimit="22.926001"/><path stroke-linecap="round" transform="matrix(0.0135, 0, 0, 0.0135, -28.509993, -9.647967)" fill="none" stroke-linejoin="round" d="M 9548.773426 8089.954282 C 9548.773426 8126.70197 9545.011851 8163.160307 9537.778054 8199.039939 C 9530.544257 8235.208924 9519.548886 8270.220501 9505.081292 8304.07467 C 9490.90305 8337.92884 9473.252586 8370.33625 9452.129899 8400.718197 C 9431.296564 8431.389496 9407.56971 8459.456628 9380.949337 8485.498297 C 9354.328965 8511.539966 9325.393777 8534.688116 9294.143775 8555.232099 C 9262.893772 8575.48673 9229.907658 8592.847843 9195.185433 8606.736733 C 9160.463208 8620.914975 9124.583575 8631.331642 9087.835887 8638.565439 C 9051.088199 8645.799236 9013.761807 8649.271459 8976.146063 8649.271459 C 8938.530319 8649.271459 8901.203927 8645.799236 8864.456239 8638.565439 C 8827.419199 8631.331642 8791.828918 8620.914975 8757.106693 8606.736733 C 8722.384468 8592.847843 8689.398354 8575.48673 8658.148351 8555.232099 C 8626.898349 8534.688116 8597.963161 8511.539966 8571.342788 8485.498297 C 8544.722416 8459.456628 8520.995562 8431.389496 8500.162227 8400.718197 C 8479.03954 8370.33625 8461.389076 8337.92884 8447.210834 8304.07467 C 8432.74324 8270.220501 8421.747869 8235.208924 8414.514072 8199.039939 C 8407.280275 8163.160307 8403.5187 8126.70197 8403.5187 8089.954282 C 8403.5187 8053.206594 8407.280275 8017.037609 8414.514072 7980.868625 C 8421.747869 7944.988992 8432.74324 7909.977415 8447.210834 7876.123246 C 8461.389076 7841.979724 8479.03954 7809.861666 8500.162227 7779.479719 C 8520.995562 7748.80842 8544.722416 7720.451937 8571.342788 7694.69962 C 8597.963161 7668.657951 8626.898349 7645.509801 8658.148351 7624.965817 C 8689.398354 7604.711186 8722.384468 7587.350074 8757.106693 7573.461184 C 8791.828918 7559.282942 8827.419199 7548.576922 8864.456239 7541.632477 C 8901.203927 7534.39868 8938.530319 7530.637106 8976.146063 7530.637106 C 9013.761807 7530.637106 9051.088199 7534.39868 9087.835887 7541.632477 C 9124.583575 7548.576922 9160.463208 7559.282942 9195.185433 7573.461184 C 9229.907658 7587.350074 9262.893772 7604.711186 9294.143775 7624.965817 C 9325.393777 7645.509801 9354.328965 7668.657951 9380.949337 7694.69962 C 9407.56971 7720.451937 9431.296564 7748.80842 9452.129899 7779.479719 C 9473.252586 7809.861666 9490.90305 7841.979724 9505.081292 7876.123246 C 9519.548886 7909.977415 9530.544257 7944.988992 9537.778054 7980.868625 C 9545.011851 8017.037609 9548.773426 8053.206594 9548.773426 8089.954282 Z M 9548.773426 8089.954282 " stroke="#373435" stroke-width="141.110001" stroke-opacity="1" stroke-miterlimit="22.926001"/><path stroke-linecap="round" transform="matrix(0.0135, 0, 0, 0.0135, -28.509993, -9.647967)" fill="none" stroke-linejoin="round" d="M 17656.412991 8004.016775 C 17656.412991 8040.764463 17652.651417 8077.2228 17645.41762 8113.102432 C 17638.183823 8149.271417 17627.188451 8184.282994 17612.720858 8218.137163 C 17598.542616 8251.991333 17580.892151 8284.109391 17559.769464 8314.78069 C 17538.936129 8345.451989 17515.209275 8373.519121 17488.588903 8399.56079 C 17461.96853 8425.602458 17433.322695 8448.750608 17401.78334 8469.00524 C 17370.533337 8489.549223 17337.547224 8506.620984 17302.824998 8520.799226 C 17268.102773 8534.688116 17232.512493 8545.394135 17195.475452 8552.627932 C 17158.727764 8559.861729 17121.401372 8563.333951 17083.785628 8563.333951 C 17046.169884 8563.333951 17008.843492 8559.861729 16972.095804 8552.627932 C 16935.348116 8545.394135 16899.468483 8534.688116 16864.746258 8520.799226 C 16830.024033 8506.620984 16797.037919 8489.549223 16765.787917 8469.00524 C 16734.537914 8448.750608 16705.602726 8425.602458 16678.982354 8399.56079 C 16652.361981 8373.519121 16628.635127 8345.451989 16607.801792 8314.78069 C 16586.679105 8284.109391 16569.317993 8251.991333 16554.850399 8218.137163 C 16540.382805 8184.282994 16529.676786 8149.271417 16522.153637 8113.102432 C 16514.91984 8077.2228 16511.158266 8040.764463 16511.158266 8004.016775 C 16511.158266 7967.269087 16514.91984 7930.81075 16522.153637 7894.931118 C 16529.676786 7859.051485 16540.382805 7824.039908 16554.850399 7789.896387 C 16569.317993 7756.042217 16586.679105 7723.924159 16607.801792 7693.25286 C 16628.635127 7662.870913 16652.361981 7634.514429 16678.982354 7608.472761 C 16705.602726 7582.720444 16734.537914 7559.282942 16765.787917 7539.02831 C 16797.037919 7518.484327 16830.024033 7501.412566 16864.746258 7487.234325 C 16899.468483 7473.345434 16935.348116 7462.639415 16972.095804 7455.405618 C 17008.843492 7448.461173 17046.169884 7444.699599 17083.785628 7444.699599 C 17121.401372 7444.699599 17158.727764 7448.461173 17195.475452 7455.405618 C 17232.512493 7462.639415 17268.102773 7473.345434 17302.824998 7487.234325 C 17337.547224 7501.412566 17370.533337 7518.484327 17401.78334 7539.02831 C 17433.322695 7559.282942 17461.96853 7582.720444 17488.588903 7608.472761 C 17515.209275 7634.514429 17538.936129 7662.870913 17559.769464 7693.25286 C 17580.892151 7723.924159 17598.542616 7756.042217 17612.720858 7789.896387 C 17627.188451 7824.039908 17638.183823 7859.051485 17645.41762 7894.931118 C 17652.651417 7930.81075 17656.412991 7967.269087 17656.412991 8004.016775 Z M 17656.412991 8004.016775 " stroke="#373435" stroke-width="141.110001" stroke-opacity="1" stroke-miterlimit="22.926001"/><path stroke-linecap="round" transform="matrix(0.0135, 0, 0, 0.0135, -28.509993, -9.647967)" fill="none" stroke-linejoin="round" d="M 9872.268823 11289.896679 C 10597.673976 10654.769311 11844.201858 10235.787795 13260.289939 10235.787795 C 14465.440502 10235.787795 15547.905871 10539.317913 16290.961488 11021.378138 " stroke="#373435" stroke-width="141.110001" stroke-opacity="1" stroke-miterlimit="22.926001"/><path stroke-linecap="round" transform="matrix(0.0135, 0, 0, 0.0135, -28.509993, -9.647967)" fill="none" stroke-linejoin="round" d="M 9928.403087 11654.190691 C 10654.965647 11039.607306 11856.065285 10739.549411 13234.24827 10724.792465 C 14467.465966 10711.482279 15577.709114 11019.642027 16326.841121 11512.986975 " stroke="#373435" stroke-width="141.110001" stroke-opacity="1" stroke-miterlimit="22.926001"/><path stroke-linecap="round" transform="matrix(0.0135, 0, 0, 0.0135, -28.509993, -9.647967)" fill="none" stroke-linejoin="round" d="M 10173.484126 12007.778683 C 10917.407799 11493.6004 12038.646318 11222.18834 13289.514478 11222.18834 C 14371.401143 11222.18834 15357.801688 11470.162898 16084.942952 11868.600431 " stroke="#373435" stroke-width="141.110001" stroke-opacity="1" stroke-miterlimit="22.926001"/><path stroke-linecap="round" transform="matrix(0.0135, 0, 0, 0.0135, -28.509993, -9.647967)" fill="none" stroke-linejoin="round" d="M 9144.838207 8624.676549 L 9872.268823 11289.896679 " stroke="#373435" stroke-width="141.110001" stroke-opacity="1" stroke-miterlimit="22.926001"/><path stroke-linecap="round" transform="matrix(0.0135, 0, 0, 0.0135, -28.509993, -9.647967)" fill="none" stroke-linejoin="round" d="M 16979.908305 8554.074691 L 16290.961488 11021.378138 " stroke="#373435" stroke-width="141.110001" stroke-opacity="1" stroke-miterlimit="22.926001"/><path stroke-linecap="round" transform="matrix(0.0135, 0, 0, 0.0135, -28.509993, -9.647967)" fill="none" stroke-linejoin="round" d="M 9404.097488 8461.482091 C 9913.356789 8778.322395 10422.616091 9094.873348 10738.58834 9265.880306 C 11054.271236 9436.887265 11176.66708 9462.35023 11305.139313 9463.796989 C 11433.900898 9465.533101 11568.738872 9443.542358 11820.475004 9019.931212 C 12072.211136 8596.320065 12441.134778 7771.377867 12629.502849 7359.630147 C 12817.870921 6948.17178 12825.683421 6950.197243 12833.785274 6952.222706 " stroke="#373435" stroke-width="141.110001" stroke-opacity="1" stroke-miterlimit="22.926001"/><path stroke-linecap="round" transform="matrix(0.0135, 0, 0, 0.0135, -28.509993, -9.647967)" fill="none" stroke-linejoin="round" d="M 13258.264476 6933.125482 C 13645.127934 7704.537583 14031.991392 8476.239037 14268.102523 8883.646478 C 14504.503006 9291.343271 14590.440513 9335.035405 14673.773853 9362.813185 C 14757.107193 9390.301613 14838.125719 9401.586336 14933.322486 9390.301613 C 15028.229901 9378.727538 15137.315559 9344.584017 15427.246138 9172.130298 C 15717.176718 8999.67658 16187.662868 8689.202017 16658.438371 8378.438103 " stroke="#373435" stroke-width="141.110001" stroke-opacity="1" stroke-miterlimit="22.926001"/><path stroke-linecap="round" transform="matrix(0.0135, 0, 0, 0.0135, -28.509993, -9.647967)" fill="none" stroke-linejoin="round" d="M 16300.799452 11495.915215 C 16367.350383 11532.662903 16412.199924 11603.264761 16412.199924 11684.572638 C 16412.199924 11803.496259 16315.845749 11899.850433 16196.922128 11899.850433 C 16155.834162 11899.850433 16117.639714 11888.56571 16084.942952 11868.600431 " stroke="#373435" stroke-width="141.110001" stroke-opacity="1" stroke-miterlimit="22.926001"/><path stroke-linecap="round" transform="matrix(0.0135, 0, 0, 0.0135, -28.509993, -9.647967)" fill="none" stroke-linejoin="round" d="M 9957.627626 11630.174485 C 9896.863732 11675.892081 9846.227154 11742.443013 9846.227154 11823.75089 C 9846.227154 11942.674511 9942.581329 12039.028686 10061.50495 12039.028686 C 10102.592916 12039.028686 10140.787364 12027.454611 10173.484126 12007.778683 " stroke="#373435" stroke-width="141.110001" stroke-opacity="1" stroke-miterlimit="22.926001"/><path stroke-linecap="round" transform="matrix(0.0135, 0, 0, 0.0135, -28.509993, -9.647967)" fill-opacity="1" fill="#336699" fill-rule="evenodd" stroke-linejoin="round" d="M 9872.268823 11289.896679 C 10597.673976 10654.769311 11844.201858 10235.787795 13260.289939 10235.787795 C 14465.440502 10235.787795 15547.905871 10539.317913 16290.961488 11021.378138 L 16979.908305 8554.074691 C 16853.172183 8531.505245 16741.193007 8468.137184 16658.438371 8378.438103 C 16187.662868 8689.202017 15717.176718 8999.67658 15427.246138 9172.130298 C 15137.315559 9344.584017 15028.229901 9378.727538 14933.322486 9390.301613 C 14838.125719 9401.586336 14757.107193 9390.301613 14673.773853 9362.813185 C 14590.440513 9335.035405 14504.503006 9291.343271 14268.102523 8883.646478 C 14031.991392 8476.239037 13645.127934 7704.537583 13258.264476 6933.125482 C 13183.901044 6962.350021 13102.882518 6978.553727 13018.102419 6978.553727 C 12954.155654 6978.553727 12892.234353 6969.294466 12833.785274 6952.222706 C 12825.683421 6950.197243 12817.870921 6948.17178 12629.502849 7359.630147 C 12441.134778 7771.377867 12072.211136 8596.320065 11820.475004 9019.931212 C 11568.738872 9443.542358 11433.900898 9465.533101 11305.139313 9463.796989 C 11176.66708 9462.35023 11054.271236 9436.887265 10738.58834 9265.880306 C 10422.616091 9094.873348 9913.356789 8778.322395 9404.097488 8461.482091 C 9335.521093 8537.002931 9246.111363 8594.294602 9144.838207 8624.676549 Z M 9872.268823 11289.896679 " stroke="#000000" stroke-width="141.110001" stroke-opacity="1" stroke-miterlimit="22.926001"/><path stroke-linecap="round" transform="matrix(0.0135, 0, 0, 0.0135, -28.509993, -9.647967)" fill-opacity="1" fill="#ffcc00" fill-rule="evenodd" stroke-linejoin="round" d="M 16658.438371 8378.438103 C 16741.193007 8468.137184 16853.172183 8531.505245 16979.908305 8554.074691 C 17013.762474 8560.151081 17048.484699 8563.333951 17083.785628 8563.333951 C 17400.047229 8563.333951 17656.412991 8313.044579 17656.412991 8004.016775 C 17656.412991 7695.278323 17400.047229 7444.699599 17083.785628 7444.699599 C 16767.524028 7444.699599 16511.158266 7695.278323 16511.158266 8004.016775 C 16511.158266 8148.114009 16567.003178 8279.190409 16658.438371 8378.438103 Z M 16658.438371 8378.438103 " stroke="#000000" stroke-width="141.110001" stroke-opacity="1" stroke-miterlimit="22.926001"/><path stroke-linecap="round" transform="matrix(0.0135, 0, 0, 0.0135, -28.509993, -9.647967)" fill="none" stroke-linejoin="round" d="M 12317.870879 14601.818252 C 12287.488932 14621.204827 12265.498189 14648.114552 12252.188003 14673.577517 C 12238.877817 14698.75113 12234.248187 14722.188632 12067.292154 15356.737296 C 11900.336122 15991.28596 11570.764335 17236.656434 11407.569877 17861.077783 C 11244.375419 18485.209779 11247.268938 18488.103298 11337.836075 18477.975982 C 11428.692564 18467.848667 11607.222671 18444.989868 11862.141674 18397.246809 C 12117.060677 18349.793101 12448.368575 18277.744484 12795.590826 18155.348641 C 13142.813077 18032.952797 13505.66033 17860.209727 13813.820078 17669.816193 C 14122.269178 17479.71201 14375.741421 17272.536067 14571.632641 17066.517531 C 14767.523861 16860.498996 14905.834058 16655.927219 15022.442864 16422.709607 C 15139.05167 16189.202643 15234.248437 15927.049844 15274.468348 15710.903992 C 15314.688259 15495.047493 15300.510017 15324.90859 15262.894273 15176.760429 C 15225.567881 15028.322917 15165.093339 14901.586795 15101.725278 14807.836787 C 15038.357217 14714.376131 14972.095637 14653.901589 14898.600261 14607.605289 C 14825.104884 14561.598341 14744.375711 14530.058986 14620.533108 14505.464077 C 14496.690505 14480.869167 14329.734473 14463.797407 14034.306207 14465.244166 C 13739.167294 14466.690925 13315.556147 14486.656205 13026.204271 14505.464077 C 12736.563043 14524.271949 12580.891734 14541.343709 12483.958856 14556.100655 C 12386.736625 14570.568249 12347.963474 14582.431676 12317.870879 14601.818252 Z M 12317.870879 14601.818252 " stroke="#373435" stroke-width="141.110001" stroke-opacity="1" stroke-miterlimit="22.926001"/><path stroke-linecap="round" transform="matrix(0.0135, 0, 0, 0.0135, -28.509993, -9.647967)" fill-opacity="1" fill="#336699" fill-rule="evenodd" stroke-linejoin="round" d="M 13018.102419 6978.553727 C 13102.882518 6978.553727 13183.901044 6962.350021 13258.264476 6933.125482 C 13501.320052 6837.350011 13673.484418 6600.370825 13673.484418 6323.171727 C 13673.484418 5961.19253 13380.081616 5667.789728 13018.102419 5667.789728 C 12656.123222 5667.789728 12362.72042 5961.19253 12362.72042 6323.171727 C 12362.72042 6621.20416 12561.505158 6872.65094 12833.785274 6952.222706 C 12892.234353 6969.294466 12954.155654 6978.553727 13018.102419 6978.553727 Z M 13018.102419 6978.553727 " stroke="#000000" stroke-width="141.110001" stroke-opacity="1" stroke-miterlimit="22.926001"/><path stroke-linecap="round" transform="matrix(0.0135, 0, 0, 0.0135, -28.509993, -9.647967)" fill-opacity="1" fill="#ffcc00" fill-rule="evenodd" stroke-linejoin="round" d="M 9548.773426 8089.954282 C 9548.773426 7781.215831 9292.407663 7530.637106 8976.146063 7530.637106 C 8659.884462 7530.637106 8403.5187 7781.215831 8403.5187 8089.954282 C 8403.5187 8398.982086 8659.884462 8649.271459 8976.146063 8649.271459 C 9034.884494 8649.271459 9091.597461 8640.590902 9144.838207 8624.676549 C 9246.111363 8594.294602 9335.521093 8537.002931 9404.097488 8461.482091 C 9494.085921 8362.813101 9548.773426 8232.604757 9548.773426 8089.954282 Z M 9548.773426 8089.954282 " stroke="#ffffff" stroke-width="141.110001" stroke-opacity="1" stroke-miterlimit="22.926001"/><path stroke-linecap="round" transform="matrix(0.0135, 0, 0, 0.0135, -28.509993, -9.647967)" fill-opacity="1" fill="#336699" fill-rule="evenodd" stroke-linejoin="round" d="M 13234.24827 10724.792465 C 11874.005101 10739.260059 10686.505002 11031.794805 9957.338274 11630.174485 C 9948.079014 11637.986986 9938.819754 11645.510134 9929.849846 11653.322635 C 9929.271142 11653.611987 9928.981791 11653.901339 9928.692439 11654.480043 C 9881.528083 11698.172176 9846.227154 11755.753199 9846.227154 11823.75089 C 9846.227154 11942.674511 9942.581329 12039.028686 10061.50495 12039.028686 C 10102.592916 12039.028686 10140.787364 12027.454611 10173.484126 12007.778683 C 10917.407799 11493.6004 12038.646318 11222.18834 13289.514478 11222.18834 C 14371.401143 11222.18834 15357.801688 11470.162898 16084.942952 11868.600431 C 16117.639714 11888.56571 16155.834162 11899.850433 16196.922128 11899.850433 C 16315.845749 11899.850433 16412.199924 11803.496259 16412.199924 11684.572638 C 16412.199924 11614.549484 16378.635107 11552.33883 16326.841121 11512.986975 C 16318.449916 11507.199938 16309.76936 11501.702252 16300.799452 11495.915215 C 15551.956797 11012.40823 14453.287724 10711.482279 13234.24827 10724.792465 Z M 13234.24827 10724.792465 " stroke="#000000" stroke-width="141.110001" stroke-opacity="1" stroke-miterlimit="22.926001"/><path stroke-linecap="round" transform="matrix(0.0135, 0, 0, 0.0135, -28.509993, -9.647967)" fill-opacity="1" fill="#0098da" fill-rule="evenodd" stroke-linejoin="round" d="M 15361.852614 1341.400478 C 15485.695217 1517.326419 15606.35495 1688.912081 15699.526254 1881.909783 C 15792.697558 2074.907484 15854.908211 2284.687594 15886.447565 2529.189929 C 15917.98692 2773.402913 15918.854976 3052.627473 15897.153585 3300.891383 C 15875.741546 3549.444644 15831.760061 3766.747903 15747.558665 3976.238661 C 15663.357269 4185.729419 15538.646611 4387.407677 15413.935952 4588.796583 C 15323.079463 4763.275764 15232.222974 4938.044297 15197.500749 5102.974866 C 15162.489172 5267.905436 15183.322507 5423.287393 15215.729917 5586.192499 C 15248.137327 5749.097605 15314.688259 5904.190211 15410.463729 6108.183284 C 15505.949849 6312.465708 15686.216067 6541.921746 15801.088762 6620.625456 C 16049.642024 6789.896303 16311.505471 6591.690268 16712.836523 6591.690268 C 17905.255604 6591.400916 18872.269574 7557.836182 18872.558926 8750.544615 C 18872.848278 9181.389558 18737.142248 9583.009962 18519.838989 9919.815546 C 18501.031117 9949.040085 18483.091301 9977.975273 18466.01954 10006.042405 C 18457.917687 10019.352591 18450.105187 10032.373426 18442.292686 10045.104908 C 18422.616759 10083.299356 18412.200091 10143.773898 18412.200091 10189.780846 C 18412.200091 10271.378075 18446.054261 10327.512339 18501.031117 10379.306325 C 18530.545008 10397.824845 18560.0589 10416.632717 18589.283439 10435.729941 C 21019.549846 12009.804146 22627.767572 14744.758078 22628.635628 17855.869449 C 22629.503684 20903.612759 21087.258185 23591.691687 18740.035767 25180.81219 C 18719.781135 25194.411728 18699.526504 25208.011266 18679.271873 25221.610804 C 18603.461681 25284.978865 18558.033437 25378.728873 18558.322788 25488.393234 C 18558.322788 25684.863158 18717.755672 25844.296041 18914.225596 25844.296041 C 18926.089023 25844.296041 18937.663098 25843.717338 18948.947821 25842.55993 C 18968.045045 25839.37706 18987.142269 25836.194189 19007.3969 25832.143263 C 19009.422363 25831.564559 19011.447826 25831.275207 19013.473289 25830.696503 C 19036.042736 25826.066873 19060.058941 25820.279836 19174.931636 25777.455758 C 19289.804331 25734.63168 19495.533515 25655.059915 19751.609925 25532.374719 C 20007.686335 25409.689524 20314.109972 25243.601547 20665.093798 25004.596897 C 21016.077623 24765.592248 21411.621638 24453.092222 21741.772128 24159.689419 C 22071.922619 23866.286617 22336.968937 23591.691687 22621.980535 23245.048139 C 22907.281485 22898.404592 23212.547714 22480.001779 23456.760697 22107.027211 C 23700.973681 21734.341995 23884.133418 21407.374375 24036.621857 21108.763239 C 24189.399647 20810.441455 24311.506139 20540.765506 24426.378834 20258.358075 C 24541.251528 19975.661293 24648.601074 19680.233027 24729.330248 19455.695971 C 24809.770069 19231.158916 24863.589518 19077.513069 24933.32332 18833.87879 C 25003.057123 18590.533862 25088.415926 18257.200501 25162.779358 17946.725938 C 25236.853438 17636.251375 25299.932147 17348.056907 25355.487707 17012.698082 C 25411.043268 16677.339258 25459.365031 16294.526726 25494.376608 15949.908642 C 25529.388185 15605.579909 25551.089576 15299.734976 25558.612724 14991.285877 C 25566.135873 14682.836777 25559.191428 14372.072862 25541.830316 14076.065893 C 25524.179851 13780.348276 25496.402071 13499.676956 25466.598828 13199.908412 C 25458.786327 13122.651461 25450.973827 13044.237103 25443.161326 12966.112097 C 25420.302528 12741.285689 25396.286322 12519.3528 25370.823357 12339.375933 C 25336.679836 12097.188413 25300.221499 11931.100436 25257.686773 11766.74857 C 25215.152048 11602.686057 25166.830284 11440.070302 25085.233055 11236.07723 C 25003.635826 11032.373509 24885.580261 10787.871174 24770.996918 10542.500783 C 24753.057102 10503.148928 24713.126543 10475.6605 24667.119594 10475.6605 C 24604.040886 10475.6605 24553.114955 10526.875782 24553.114955 10589.665139 C 24553.114955 10591.40125 24553.114955 10593.137361 24553.404307 10594.873473 C 24560.638104 10732.894318 24567.871901 10870.625811 24556.297826 11059.861937 C 24544.723751 11248.808712 24514.341804 11488.97077 24480.776986 11655.058746 C 24448.369576 11813.912926 24413.357999 11904.769415 24378.05707 11992.732386 C 24376.610311 11996.49396 24375.163552 12000.255534 24373.716792 12004.017109 C 24262.31632 12274.561113 23996.112594 12465.243999 23685.348679 12465.243999 C 23349.989855 12465.533351 23066.714368 12243.889814 22973.543064 11939.202289 C 22967.756027 11921.551824 22961.968989 11903.90136 22955.603248 11884.225432 C 22949.526859 11864.260153 22943.161117 11841.690706 22935.92732 11805.811074 C 22928.404172 11770.220793 22920.012967 11720.741622 22913.936578 11663.449951 C 22907.860188 11606.158279 22903.809262 11540.475403 22900.915743 11431.96845 C 22897.732873 11323.750848 22895.418058 11172.419817 22936.506024 10952.22304 C 22977.883342 10732.026262 23062.37409 10443.25309 23143.103264 10131.910471 C 23223.832437 9820.278501 23300.800036 9486.366436 23335.522261 9222.188173 C 23369.955134 8958.00991 23361.853282 8763.56545 23337.547724 8573.171915 C 23313.531519 8383.067733 23273.311608 8196.725124 23224.411141 8017.616313 C 23175.221322 7838.507502 23117.350947 7666.632488 23050.800015 7509.514419 C 22983.959732 7352.106998 22908.438892 7209.167172 22803.114809 7047.708825 C 22698.080078 6886.250478 22562.952752 6706.562963 22401.783757 6523.113874 C 22240.614762 6339.375432 22053.114747 6152.454121 21865.614731 5965.243457 C 21836.679543 5930.521232 21793.276762 5908.819841 21744.954999 5908.819841 C 21657.860084 5908.819841 21587.547578 5979.421699 21587.547578 6066.227261 C 21587.547578 6091.690227 21593.334616 6115.706432 21604.040635 6136.829119 C 21609.538321 6148.113842 21614.746655 6159.687917 21620.533692 6170.683289 C 21626.610081 6181.968012 21632.975823 6192.674031 21661.332307 6242.153202 C 21689.68879 6291.343021 21739.746665 6379.305991 21783.438798 6479.711092 C 21826.84158 6580.116193 21863.589268 6693.542129 21891.367048 6812.176398 C 21919.43418 6931.100019 21938.531404 7055.231974 21939.399459 7198.461152 C 21940.267515 7341.690331 21923.195754 7503.43803 21886.448066 7643.484338 C 21859.827694 7745.914902 21822.790653 7836.771391 21783.149446 7924.445009 C 21770.707316 7957.720475 21755.661018 7989.838533 21738.589258 8020.509832 C 21621.112396 8228.843183 21397.732748 8369.757546 21141.656337 8369.757546 C 20858.959554 8369.757546 20616.482682 8198.750588 20511.737303 7954.537604 C 20492.061376 7914.317693 20472.096096 7874.097783 20450.105354 7806.678796 C 20428.114611 7738.970457 20404.098405 7644.352393 20385.869237 7456.273674 C 20367.640069 7268.194954 20355.48729 6986.944931 20349.700253 6764.143986 C 20343.913215 6541.632394 20343.913215 6377.859232 20346.517382 6189.780513 C 20348.832197 6001.991145 20353.461827 5789.89622 20319.028954 5594.583704 C 20284.596081 5399.271187 20211.390056 5220.451728 20113.010418 5036.134583 C 20014.63078 4852.10679 19891.077529 4662.581311 19725.568256 4454.24796 C 19559.769631 4245.625258 19352.014984 4018.484035 19246.112198 3903.61134 C 19140.498763 3788.738646 19136.737189 3786.134479 19130.371447 3780.636793 C 19123.716354 3775.139107 19114.167742 3766.169199 19104.61913 3757.488643 C 19081.181628 3736.94466 19050.220978 3724.213177 19016.366808 3724.213177 C 18942.58208 3724.213177 18882.686241 3784.109015 18882.686241 3857.893744 C 18882.686241 3876.990968 18886.737168 3894.930784 18893.970965 3911.423841 C 18895.707076 3915.474767 18897.732539 3919.815045 18900.047354 3923.57662 C 18907.570503 3938.622917 18918.565874 3958.009493 18943.739487 3997.6507 C 18976.436249 4048.865982 19032.859865 4133.35673 19079.156165 4250.54424 C 19125.741817 4367.731749 19161.910802 4517.326669 19174.642284 4660.555848 C 19187.663119 4803.785027 19177.246451 4940.648464 19144.260337 5063.333659 C 19111.274223 5186.308207 19055.429311 5295.104512 19006.818196 5376.412389 C 18958.496433 5457.720266 18917.119115 5510.961011 18884.133001 5546.551292 C 18871.980222 5559.572127 18861.274203 5570.278146 18851.146887 5579.248054 C 18815.845958 5613.970279 18772.443177 5640.011948 18723.54271 5653.900838 C 18697.211689 5661.423987 18669.433909 5665.474913 18640.788073 5665.474913 C 18519.549637 5665.474913 18415.382962 5594.005 18367.929254 5490.70638 C 18366.193143 5486.944806 18364.746383 5482.893879 18363.010272 5479.132305 C 18357.801938 5466.979526 18352.593605 5454.537396 18347.963975 5441.805913 C 18341.887585 5425.023504 18336.679251 5407.662392 18332.338973 5390.879983 C 18327.998695 5374.386926 18324.526473 5358.761925 18319.896843 5340.243405 C 18315.556564 5321.724885 18309.769527 5300.312846 18303.114434 5264.143861 C 18296.169989 5227.974877 18288.068136 5177.048947 18279.966284 5103.842922 C 18272.153783 5030.347545 18264.051931 4934.572074 18260.290356 4808.414657 C 18256.23943 4681.967887 18256.23943 4525.13917 18243.507947 4341.979432 C 18231.065817 4159.109047 18205.892203 3949.90764 18162.778774 3752.280309 C 18119.954696 3554.652978 18059.190802 3368.31037 17991.193111 3204.247856 C 17923.195421 3040.185342 17847.963933 2897.824219 17755.950036 2754.595041 C 17663.646788 2611.365862 17554.850482 2466.979276 17431.586583 2321.724634 C 17308.033332 2176.469992 17170.012487 2030.057943 16869.66524 1811.018573 C 16569.607345 1592.268555 16107.223047 1300.891216 15645.128101 1009.513877 C 15608.669765 982.604152 15563.820224 966.689799 15515.209109 966.689799 C 15394.838728 966.689799 15297.037794 1064.490733 15297.037794 1184.861113 C 15297.037794 1246.203711 15327.998445 1298.576401 15361.852614 1341.400478 Z M 15361.852614 1341.400478 " stroke="#000000" stroke-width="141.110001" stroke-opacity="1" stroke-miterlimit="22.926001"/><path stroke-linecap="round" transform="matrix(0.0135, 0, 0, 0.0135, -28.509993, -9.647967)" fill-opacity="1" fill="#ed3237" fill-rule="evenodd" stroke-linejoin="round" d="M 15361.852614 1341.400478 C 15485.695217 1517.326419 15606.35495 1688.912081 15699.526254 1881.909783 C 15792.697558 2074.907484 15854.908211 2284.687594 15886.447565 2529.189929 C 15917.98692 2773.402913 15918.854976 3052.627473 15897.153585 3300.891383 C 15875.741546 3549.444644 15831.760061 3766.747903 15747.558665 3976.238661 C 15663.357269 4185.729419 15538.646611 4387.407677 15413.935952 4588.796583 C 15323.079463 4763.275764 15232.222974 4938.044297 15197.500749 5102.974866 C 15162.489172 5267.905436 15183.322507 5423.287393 15215.729917 5586.192499 C 15248.137327 5749.097605 15314.688259 5904.190211 15410.463729 6108.183284 C 15505.949849 6312.465708 15686.216067 6541.921746 15801.088762 6620.625456 C 16049.642024 6789.896303 16311.505471 6591.690268 16712.836523 6591.690268 C 17905.255604 6591.400916 18872.269574 7557.836182 18872.558926 8750.544615 C 18872.848278 9181.389558 18737.142248 9583.009962 18519.838989 9919.815546 C 18501.031117 9949.040085 18483.091301 9977.975273 18466.01954 10006.042405 C 18457.917687 10019.352591 18450.105187 10032.373426 18442.292686 10045.104908 C 18422.616759 10083.299356 18412.200091 10143.773898 18412.200091 10189.780846 C 18412.200091 10271.378075 18446.054261 10327.512339 18501.031117 10379.306325 C 18530.545008 10397.824845 18560.0589 10416.632717 18589.283439 10435.729941 C 21019.549846 12009.804146 22627.767572 14744.758078 22628.635628 17855.869449 C 22629.503684 20903.612759 21087.258185 23591.691687 18740.035767 25180.81219 C 18719.781135 25194.411728 18699.526504 25208.011266 18679.271873 25221.610804 C 18603.461681 25284.978865 18558.033437 25378.728873 18558.322788 25488.393234 C 18558.322788 25684.863158 18717.755672 25844.296041 18914.225596 25844.296041 C 18926.089023 25844.296041 18937.663098 25843.717338 18948.947821 25842.55993 C 18968.045045 25839.37706 18987.142269 25836.194189 19007.3969 25832.143263 C 19009.422363 25831.564559 19011.447826 25831.275207 19013.473289 25830.696503 C 19036.042736 25826.066873 19060.058941 25820.279836 19174.931636 25777.455758 C 19289.804331 25734.63168 19495.533515 25655.059915 19751.609925 25532.374719 C 20007.686335 25409.689524 20314.109972 25243.601547 20665.093798 25004.596897 C 21016.077623 24765.592248 21411.621638 24453.092222 21741.772128 24159.689419 C 22071.922619 23866.286617 22336.968937 23591.691687 22621.980535 23245.048139 C 22907.281485 22898.404592 23212.547714 22480.001779 23456.760697 22107.027211 C 23700.973681 21734.341995 23884.133418 21407.374375 24036.621857 21108.763239 C 24189.399647 20810.441455 24311.506139 20540.765506 24426.378834 20258.358075 C 24541.251528 19975.661293 24648.601074 19680.233027 24729.330248 19455.695971 C 24809.770069 19231.158916 24863.589518 19077.513069 24933.32332 18833.87879 C 25003.057123 18590.533862 25088.415926 18257.200501 25162.779358 17946.725938 C 25236.853438 17636.251375 25299.932147 17348.056907 25355.487707 17012.698082 C 25411.043268 16677.339258 25459.365031 16294.526726 25494.376608 15949.908642 C 25529.388185 15605.579909 25551.089576 15299.734976 25558.612724 14991.285877 C 25566.135873 14682.836777 25559.191428 14372.072862 25541.830316 14076.065893 C 25524.179851 13780.348276 25496.402071 13499.676956 25466.598828 13199.908412 C 25458.786327 13122.651461 25450.973827 13044.237103 25443.161326 12966.112097 C 25420.302528 12741.285689 25396.286322 12519.3528 25370.823357 12339.375933 C 25336.679836 12097.188413 25300.221499 11931.100436 25257.686773 11766.74857 C 25215.152048 11602.686057 25166.830284 11440.070302 25085.233055 11236.07723 C 25003.635826 11032.373509 24885.580261 10787.871174 24770.996918 10542.500783 C 24753.057102 10503.148928 24713.126543 10475.6605 24667.119594 10475.6605 C 24604.040886 10475.6605 24553.114955 10526.875782 24553.114955 10589.665139 C 24553.114955 10591.40125 24553.114955 10593.137361 24553.404307 10594.873473 C 24560.638104 10732.894318 24567.871901 10870.625811 24556.297826 11059.861937 C 24544.723751 11248.808712 24514.341804 11488.97077 24480.776986 11655.058746 C 24448.369576 11813.912926 24413.357999 11904.769415 24378.05707 11992.732386 C 24376.610311 11996.49396 24375.163552 12000.255534 24373.716792 12004.017109 C 24262.31632 12274.561113 23996.112594 12465.243999 23685.348679 12465.243999 C 23349.989855 12465.533351 23066.714368 12243.889814 22973.543064 11939.202289 C 22967.756027 11921.551824 22961.968989 11903.90136 22955.603248 11884.225432 C 22949.526859 11864.260153 22943.161117 11841.690706 22935.92732 11805.811074 C 22928.404172 11770.220793 22920.012967 11720.741622 22913.936578 11663.449951 C 22907.860188 11606.158279 22903.809262 11540.475403 22900.915743 11431.96845 C 22897.732873 11323.750848 22895.418058 11172.419817 22936.506024 10952.22304 C 22977.883342 10732.026262 23062.37409 10443.25309 23143.103264 10131.910471 C 23223.832437 9820.278501 23300.800036 9486.366436 23335.522261 9222.188173 C 23369.955134 8958.00991 23361.853282 8763.56545 23337.547724 8573.171915 C 23313.531519 8383.067733 23273.311608 8196.725124 23224.411141 8017.616313 C 23175.221322 7838.507502 23117.350947 7666.632488 23050.800015 7509.514419 C 22983.959732 7352.106998 22908.438892 7209.167172 22803.114809 7047.708825 C 22698.080078 6886.250478 22562.952752 6706.562963 22401.783757 6523.113874 C 22240.614762 6339.375432 22053.114747 6152.454121 21865.614731 5965.243457 C 21836.679543 5930.521232 21793.276762 5908.819841 21744.954999 5908.819841 C 21657.860084 5908.819841 21587.547578 5979.421699 21587.547578 6066.227261 C 21587.547578 6091.690227 21593.334616 6115.706432 21604.040635 6136.829119 C 21609.538321 6148.113842 21614.746655 6159.687917 21620.533692 6170.683289 C 21626.610081 6181.968012 21632.975823 6192.674031 21661.332307 6242.153202 C 21689.68879 6291.343021 21739.746665 6379.305991 21783.438798 6479.711092 C 21826.84158 6580.116193 21863.589268 6693.542129 21891.367048 6812.176398 C 21919.43418 6931.100019 21938.531404 7055.231974 21939.399459 7198.461152 C 21940.267515 7341.690331 21923.195754 7503.43803 21886.448066 7643.484338 C 21859.827694 7745.914902 21822.790653 7836.771391 21783.149446 7924.445009 C 21770.707316 7957.720475 21755.661018 7989.838533 21738.589258 8020.509832 C 21621.112396 8228.843183 21397.732748 8369.757546 21141.656337 8369.757546 C 20858.959554 8369.757546 20616.482682 8198.750588 20511.737303 7954.537604 C 20492.061376 7914.317693 20472.096096 7874.097783 20450.105354 7806.678796 C 20428.114611 7738.970457 20404.098405 7644.352393 20385.869237 7456.273674 C 20367.640069 7268.194954 20355.48729 6986.944931 20349.700253 6764.143986 C 20343.913215 6541.632394 20343.913215 6377.859232 20346.517382 6189.780513 C 20348.832197 6001.991145 20353.461827 5789.89622 20319.028954 5594.583704 C 20284.596081 5399.271187 20211.390056 5220.451728 20113.010418 5036.134583 C 20014.63078 4852.10679 19891.077529 4662.581311 19725.568256 4454.24796 C 19559.769631 4245.625258 19352.014984 4018.484035 19246.112198 3903.61134 C 19140.498763 3788.738646 19136.737189 3786.134479 19130.371447 3780.636793 C 19123.716354 3775.139107 19114.167742 3766.169199 19104.61913 3757.488643 C 19081.181628 3736.94466 19050.220978 3724.213177 19016.366808 3724.213177 C 18942.58208 3724.213177 18882.686241 3784.109015 18882.686241 3857.893744 C 18882.686241 3876.990968 18886.737168 3894.930784 18893.970965 3911.423841 C 18895.707076 3915.474767 18897.732539 3919.815045 18900.047354 3923.57662 C 18907.570503 3938.622917 18918.565874 3958.009493 18943.739487 3997.6507 C 18976.436249 4048.865982 19032.859865 4133.35673 19079.156165 4250.54424 C 19125.741817 4367.731749 19161.910802 4517.326669 19174.642284 4660.555848 C 19187.663119 4803.785027 19177.246451 4940.648464 19144.260337 5063.333659 C 19111.274223 5186.308207 19055.429311 5295.104512 19006.818196 5376.412389 C 18958.496433 5457.720266 18917.119115 5510.961011 18884.133001 5546.551292 C 18871.980222 5559.572127 18861.274203 5570.278146 18851.146887 5579.248054 C 18815.845958 5613.970279 18772.443177 5640.011948 18723.54271 5653.900838 C 18697.211689 5661.423987 18669.433909 5665.474913 18640.788073 5665.474913 C 18519.549637 5665.474913 18415.382962 5594.005 18367.929254 5490.70638 C 18366.193143 5486.944806 18364.746383 5482.893879 18363.010272 5479.132305 C 18357.801938 5466.979526 18352.593605 5454.537396 18347.963975 5441.805913 C 18341.887585 5425.023504 18336.679251 5407.662392 18332.338973 5390.879983 C 18327.998695 5374.386926 18324.526473 5358.761925 18319.896843 5340.243405 C 18315.556564 5321.724885 18309.769527 5300.312846 18303.114434 5264.143861 C 18296.169989 5227.974877 18288.068136 5177.048947 18279.966284 5103.842922 C 18272.153783 5030.347545 18264.051931 4934.572074 18260.290356 4808.414657 C 18256.23943 4681.967887 18256.23943 4525.13917 18243.507947 4341.979432 C 18231.065817 4159.109047 18205.892203 3949.90764 18162.778774 3752.280309 C 18119.954696 3554.652978 18059.190802 3368.31037 17991.193111 3204.247856 C 17923.195421 3040.185342 17847.963933 2897.824219 17755.950036 2754.595041 C 17663.646788 2611.365862 17554.850482 2466.979276 17431.586583 2321.724634 C 17308.033332 2176.469992 17170.012487 2030.057943 16869.66524 1811.018573 C 16569.607345 1592.268555 16107.223047 1300.891216 15645.128101 1009.513877 C 15608.669765 982.604152 15563.820224 966.689799 15515.209109 966.689799 C 15394.838728 966.689799 15297.037794 1064.490733 15297.037794 1184.861113 C 15297.037794 1246.203711 15327.998445 1298.576401 15361.852614 1341.400478 Z M 15361.852614 1341.400478 " stroke="#000000" stroke-width="141.110001" stroke-opacity="1" stroke-miterlimit="22.926001"/><path stroke-linecap="round" transform="matrix(0.0135, 0, 0, 0.0135, -28.509993, -9.647967)" fill-opacity="1" fill="#336699" fill-rule="evenodd" stroke-linejoin="round" d="M 15699.526254 1881.909783 C 15792.697558 2074.907484 15854.908211 2284.687594 15886.447565 2529.189929 C 15917.98692 2773.402913 15918.854976 3052.627473 15897.153585 3300.891383 C 15875.741546 3549.444644 15831.760061 3766.747903 15747.558665 3976.238661 C 15663.357269 4185.729419 15538.646611 4387.407677 15413.935952 4588.796583 C 15323.079463 4763.275764 15232.222974 4938.044297 15197.500749 5102.974866 C 15162.489172 5267.905436 15183.322507 5423.287393 15215.729917 5586.192499 C 15248.137327 5749.097605 15314.688259 5904.190211 15410.463729 6108.183284 C 15505.949849 6312.465708 15686.216067 6541.921746 15801.088762 6620.625456 C 16049.642024 6789.896303 16311.505471 6591.690268 16712.836523 6591.690268 C 17905.255604 6591.400916 18872.269574 7557.836182 18872.558926 8750.544615 C 18872.848278 9181.389558 18737.142248 9583.009962 18519.838989 9919.815546 C 18501.031117 9949.040085 18483.091301 9977.975273 18466.01954 10006.042405 C 18457.917687 10019.352591 18450.105187 10032.373426 18442.292686 10045.104908 C 18422.616759 10083.299356 18412.200091 10143.773898 18412.200091 10189.780846 C 18412.200091 10271.378075 18446.054261 10327.512339 18501.031117 10379.306325 C 18530.545008 10397.824845 18560.0589 10416.632717 18589.283439 10435.729941 C 21019.549846 12009.804146 22627.767572 14744.758078 22628.635628 17855.869449 C 22629.503684 20903.612759 21087.258185 23591.691687 18740.035767 25180.81219 C 18719.781135 25194.411728 18699.526504 25208.011266 18679.271873 25221.610804 C 18603.461681 25284.978865 18558.033437 25378.728873 18558.322788 25488.393234 C 18558.322788 25684.863158 18717.755672 25844.296041 18914.225596 25844.296041 C 18926.089023 25844.296041 18937.663098 25843.717338 18948.947821 25842.55993 C 18968.045045 25839.37706 18987.142269 25836.194189 19007.3969 25832.143263 C 19009.422363 25831.564559 19011.447826 25831.275207 19013.473289 25830.696503 C 19036.042736 25826.066873 19060.058941 25820.279836 19174.931636 25777.455758 C 19289.804331 25734.63168 19495.533515 25655.059915 19751.609925 25532.374719 C 20007.686335 25409.689524 20314.109972 25243.601547 20665.093798 25004.596897 C 21016.077623 24765.592248 21411.621638 24453.092222 21741.772128 24159.689419 C 22071.922619 23866.286617 22336.968937 23591.691687 22621.980535 23245.048139 C 22907.281485 22898.404592 23212.547714 22480.001779 23456.760697 22107.027211 C 23700.973681 21734.341995 23884.133418 21407.374375 24036.621857 21108.763239 C 24189.399647 20810.441455 24311.506139 20540.765506 24426.378834 20258.358075 C 24541.251528 19975.661293 24648.601074 19680.233027 24729.330248 19455.695971 C 24809.770069 19231.158916 24863.589518 19077.513069 24933.32332 18833.87879 C 25003.057123 18590.533862 25088.415926 18257.200501 25162.779358 17946.725938 C 25236.853438 17636.251375 25299.932147 17348.056907 25355.487707 17012.698082 C 25411.043268 16677.339258 25459.365031 16294.526726 25494.376608 15949.908642 C 25529.388185 15605.579909 25551.089576 15299.734976 25558.612724 14991.285877 C 25566.135873 14682.836777 25559.191428 14372.072862 25541.830316 14076.065893 C 25524.179851 13780.348276 25496.402071 13499.676956 25466.598828 13199.908412 C 25458.786327 13122.651461 25450.973827 13044.237103 25443.161326 12966.112097 C 25420.302528 12741.285689 25396.286322 12519.3528 25370.823357 12339.375933 C 25336.679836 12097.188413 25300.221499 11931.100436 25257.686773 11766.74857 C 25215.152048 11602.686057 25166.830284 11440.070302 25085.233055 11236.07723 C 25003.635826 11032.373509 24885.580261 10787.871174 24770.996918 10542.500783 C 24753.057102 10503.148928 24713.126543 10475.6605 24667.119594 10475.6605 C 24604.040886 10475.6605 24553.114955 10526.875782 24553.114955 10589.665139 C 24553.114955 10591.40125 24553.114955 10593.137361 24553.404307 10594.873473 C 24560.638104 10732.894318 24567.871901 10870.625811 24556.297826 11059.861937 C 24544.723751 11248.808712 24514.341804 11488.97077 24480.776986 11655.058746 C 24448.369576 11813.912926 24413.357999 11904.769415 24378.05707 11992.732386 C 24376.610311 11996.49396 24375.163552 12000.255534 24373.716792 12004.017109 C 24262.31632 12274.561113 23996.112594 12465.243999 23685.348679 12465.243999 C 23349.989855 12465.533351 23066.714368 12243.889814 22973.543064 11939.202289 C 22967.756027 11921.551824 22961.968989 11903.90136 22955.603248 11884.225432 C 22949.526859 11864.260153 22943.161117 11841.690706 22935.92732 11805.811074 C 22928.404172 11770.220793 22920.012967 11720.741622 22913.936578 11663.449951 C 22907.860188 11606.158279 22903.809262 11540.475403 22900.915743 11431.96845 C 22897.732873 11323.750848 22895.418058 11172.419817 22936.506024 10952.22304 C 22977.883342 10732.026262 23062.37409 10443.25309 23143.103264 10131.910471 C 23223.832437 9820.278501 23300.800036 9486.366436 23335.522261 9222.188173 C 23369.955134 8958.00991 23361.853282 8763.56545 23337.547724 8573.171915 C 23313.531519 8383.067733 23273.311608 8196.725124 23224.411141 8017.616313 C 23175.221322 7838.507502 23117.350947 7666.632488 23050.800015 7509.514419 C 22983.959732 7352.106998 22908.438892 7209.167172 22803.114809 7047.708825 C 22698.080078 6886.250478 22562.952752 6706.562963 22401.783757 6523.113874 C 22240.614762 6339.375432 22053.114747 6152.454121 21865.614731 5965.243457 C 21836.679543 5930.521232 21793.276762 5908.819841 21744.954999 5908.819841 C 21657.860084 5908.819841 21587.547578 5979.421699 21587.547578 6066.227261 C 21587.547578 6091.690227 21593.334616 6115.706432 21604.040635 6136.829119 C 21609.538321 6148.113842 21614.746655 6159.687917 21620.533692 6170.683289 C 21626.610081 6181.968012 21632.975823 6192.674031 21661.332307 6242.153202 C 21689.68879 6291.343021 21739.746665 6379.305991 21783.438798 6479.711092 C 21826.84158 6580.116193 21863.589268 6693.542129 21891.367048 6812.176398 C 21919.43418 6931.100019 21938.531404 7055.231974 21939.399459 7198.461152 C 21940.267515 7341.690331 21923.195754 7503.43803 21886.448066 7643.484338 C 21859.827694 7745.914902 21822.790653 7836.771391 21783.149446 7924.445009 C 21770.707316 7957.720475 21755.661018 7989.838533 21738.589258 8020.509832 C 21621.112396 8228.843183 21397.732748 8369.757546 21141.656337 8369.757546 C 20858.959554 8369.757546 20616.482682 8198.750588 20511.737303 7954.537604 C 20492.061376 7914.317693 20472.096096 7874.097783 20450.105354 7806.678796 C 20428.114611 7738.970457 20404.098405 7644.352393 20385.869237 7456.273674 C 20367.640069 7268.194954 20355.48729 6986.944931 20349.700253 6764.143986 C 20343.913215 6541.632394 20343.913215 6377.859232 20346.517382 6189.780513 C 20348.832197 6001.991145 20353.461827 5789.89622 20319.028954 5594.583704 C 20284.596081 5399.271187 20211.390056 5220.451728 20113.010418 5036.134583 C 20014.63078 4852.10679 19891.077529 4662.581311 19725.568256 4454.24796 C 19559.769631 4245.625258 19352.014984 4018.484035 19246.112198 3903.61134 C 19140.498763 3788.738646 19136.737189 3786.134479 19130.371447 3780.636793 C 19123.716354 3775.139107 19114.167742 3766.169199 19104.61913 3757.488643 C 19081.181628 3736.94466 19050.220978 3724.213177 19016.366808 3724.213177 C 18942.58208 3724.213177 18882.686241 3784.109015 18882.686241 3857.893744 C 18882.686241 3876.990968 18886.737168 3894.930784 18893.970965 3911.423841 C 18895.707076 3915.474767 18897.732539 3919.815045 18900.047354 3923.57662 C 18907.570503 3938.622917 18918.565874 3958.009493 18943.739487 3997.6507 C 18976.436249 4048.865982 19032.859865 4133.35673 19079.156165 4250.54424 C 19125.741817 4367.731749 19161.910802 4517.326669 19174.642284 4660.555848 C 19187.663119 4803.785027 19177.246451 4940.648464 19144.260337 5063.333659 C 19111.274223 5186.308207 19055.429311 5295.104512 19006.818196 5376.412389 C 18958.496433 5457.720266 18917.119115 5510.961011 18884.133001 5546.551292 C 18871.980222 5559.572127 18861.274203 5570.278146 18851.146887 5579.248054 C 18815.845958 5613.970279 18772.443177 5640.011948 18723.54271 5653.900838 C 18697.211689 5661.423987 18669.433909 5665.474913 18640.788073 5665.474913 C 18519.549637 5665.474913 18415.382962 5594.005 18367.929254 5490.70638 C 18366.193143 5486.944806 18364.746383 5482.893879 18363.010272 5479.132305 C 18357.801938 5466.979526 18352.593605 5454.537396 18347.963975 5441.805913 C 18341.887585 5425.023504 18336.679251 5407.662392 18332.338973 5390.879983 C 18327.998695 5374.386926 18324.526473 5358.761925 18319.896843 5340.243405 C 18315.556564 5321.724885 18309.769527 5300.312846 18303.114434 5264.143861 C 18296.169989 5227.974877 18288.068136 5177.048947 18279.966284 5103.842922 C 18272.153783 5030.347545 18264.051931 4934.572074 18260.290356 4808.414657 C 18256.23943 4681.967887 18256.23943 4525.13917 18243.507947 4341.979432 C 18231.065817 4159.109047 18205.892203 3949.90764 18162.778774 3752.280309 C 18119.954696 3554.652978 18059.190802 3368.31037 17991.193111 3204.247856 C 17923.195421 3040.185342 17847.963933 2897.824219 17755.950036 2754.595041 C 17663.646788 2611.365862 17554.850482 2466.979276 17431.586583 2321.724634 C 17308.033332 2176.469992 17170.012487 2030.057943 16869.66524 1811.018573 C 16569.607345 1592.268555 16107.223047 1300.891216 15645.128101 1009.513877 C 15608.669765 982.604152 15563.820224 966.689799 15515.209109 966.689799 C 15394.838728 966.689799 15297.037794 1064.490733 15297.037794 1184.861113 C 15297.037794 1246.203711 15327.998445 1298.576401 15361.852614 1341.400478 C 15485.695217 1517.326419 15606.35495 1688.912081 15699.526254 1881.909783 Z M 15699.526254 1881.909783 " stroke="#000000" stroke-width="141.110001" stroke-opacity="1" stroke-miterlimit="22.926001"/><path stroke-linecap="round" transform="matrix(0.0135, 0, 0, 0.0135, -28.509993, -9.647967)" fill="none" stroke-linejoin="round" d="M 9063.240978 13741.285772 C 8981.354397 13684.572805 8927.534948 13589.954741 8927.534948 13482.894547 C 8927.534948 13331.852868 9034.30579 13205.984802 9176.377561 13176.181558 " stroke="#373435" stroke-width="141.110001" stroke-opacity="1" stroke-miterlimit="22.926001"/><path stroke-linecap="round" transform="matrix(0.0135, 0, 0, 0.0135, -28.509993, -9.647967)" fill="none" stroke-linejoin="round" d="M 9015.497918 13700.487158 C 9110.405333 13780.637627 9205.602101 13860.788097 9267.523402 13952.801994 C 9329.734055 14044.526538 9358.958595 14148.11451 9363.009521 14254.306648 C 9366.771096 14360.498787 9345.648409 14469.295092 9209.074323 15018.484953 C 9072.210886 15567.964165 8820.185402 16557.836933 8382.396013 18305.232912 C 7944.317273 20052.628892 7320.76398 22557.837434 7001.030157 23858.184765 C 6681.296334 25158.532095 6665.381981 25254.018214 6702.419021 25304.654793 C 6739.745413 25355.002019 6829.733847 25360.210353 7290.382033 25303.208033 C 7750.740868 25246.205714 8581.470104 25126.703389 9019.259492 25045.684864 C 9457.048881 24964.95569 9502.187773 24922.420965 9724.988718 24190.071366 C 9948.079014 23457.432416 10348.831363 22034.978594 10549.062861 21321.147516 C 10749.583711 20607.316438 10749.583711 20602.108104 10819.896217 20594.006252 C 10890.208723 20586.193751 11030.833734 20575.487731 11221.805973 20559.573378 C 11412.778211 20543.659025 11654.387027 20522.536338 11792.407872 20517.038653 C 11930.428717 20511.830319 11964.86159 20522.536338 12037.778263 20656.506257 C 12110.984287 20790.476175 12222.38476 21047.999345 12414.803757 21458.010953 C 12607.222755 21868.022562 12880.370926 22430.522608 13128.634835 22863.103663 C 13376.609393 23295.684718 13599.699689 23598.057428 13813.241374 23851.529671 C 14026.783058 24105.001915 14231.354835 24309.284339 14427.535407 24463.219537 C 14624.005331 24617.154735 14812.373402 24720.742707 15024.757679 24792.21262 C 15236.852604 24863.971886 15473.253087 24903.902444 15700.104957 24929.076058 C 15926.956828 24954.249671 16144.549439 24964.95569 16363.588809 24952.802912 C 16582.338827 24940.939485 16802.824957 24906.506611 17001.609696 24857.316792 C 17200.683786 24808.416325 17378.63519 24744.469561 17524.468535 24668.948721 C 17670.591233 24593.427882 17784.595872 24505.754263 17838.994025 24411.425552 C 17893.392177 24317.386192 17888.183844 24216.402387 17837.547265 24151.587567 C 17787.200039 24086.483395 17691.71392 24057.258855 17567.003261 23990.997276 C 17442.292603 23924.446344 17288.357405 23821.147725 16991.193028 23486.656956 C 16694.028651 23152.455539 16253.345744 22587.061973 15854.040155 21971.321181 C 15454.734566 21355.869741 15096.227592 20689.492371 14903.808595 20324.619655 C 14711.678949 19959.746939 14685.058576 19896.089527 14678.403483 19836.48304 C 14671.74839 19776.876554 14685.058576 19721.031642 14756.52849 19669.237656 C 14828.287755 19617.44367 14958.496099 19569.70061 15154.676671 19478.265418 C 15351.146595 19386.540873 15613.878098 19251.413547 15867.350342 19082.721403 C 16120.822585 18914.318611 16364.746216 18712.640354 16581.18142 18526.876449 C 16797.327271 18341.112545 16985.695342 18171.262994 17176.956932 17948.172697 C 17367.929171 17725.371753 17561.794927 17449.330063 17714.283366 17182.547634 C 17866.771805 16916.054556 17978.461629 16658.531386 18056.586635 16401.008216 C 18135.000994 16143.774399 18180.139887 15886.251229 18209.364426 15611.656299 C 18238.299614 15337.061368 18251.6098 15045.105326 18214.57276 14774.27197 C 18177.246368 14503.727966 18089.862101 14254.306648 18020.707003 14078.959412 C 17951.841256 13903.901527 17901.49403 13803.207074 17787.200039 13653.03345 C 17673.1954 13503.149178 17495.243996 13304.075088 17330.89213 13156.794983 C 17166.250913 13009.514878 17014.919882 12914.028759 16842.466164 12815.938473 C 16670.012446 12717.848187 16476.436041 12616.864382 16232.223057 12533.24169 C 15988.010074 12449.618998 15693.449864 12383.357418 15299.352609 12338.218526 C 14905.255354 12293.079633 14411.621054 12269.352779 13865.03536 12286.42454 C 13318.449666 12303.785652 12718.623227 12362.234731 12014.051409 12490.706964 C 11309.479591 12619.468549 10499.873042 12818.54264 10009.710964 12944.410706 C 9519.259534 13070.568124 9347.673872 13123.230165 9176.377561 13176.181558 " stroke="#373435" stroke-width="141.110001" stroke-opacity="1" stroke-miterlimit="22.926001"/><path stroke-linecap="round" transform="matrix(0.0135, 0, 0, 0.0135, -28.509993, -9.647967)" fill-opacity="1" fill="#336699" fill-rule="evenodd" stroke-linejoin="round" d="M 12795.590826 18155.348641 C 12448.368575 18277.744484 12117.060677 18349.793101 11862.141674 18397.246809 C 11607.222671 18444.989868 11428.692564 18467.848667 11337.836075 18477.975982 C 11247.268938 18488.103298 11244.375419 18485.209779 11407.569877 17861.077783 C 11570.764335 17236.656434 11900.336122 15991.28596 12067.292154 15356.737296 C 12234.248187 14722.188632 12238.877817 14698.75113 12252.188003 14673.577517 C 12265.498189 14648.114552 12287.488932 14621.204827 12317.870879 14601.818252 C 12347.963474 14582.431676 12386.736625 14570.568249 12483.958856 14556.100655 C 12580.891734 14541.343709 12736.563043 14524.271949 13026.204271 14505.464077 C 13315.556147 14486.656205 13739.167294 14466.690925 14034.306207 14465.244166 C 14329.734473 14463.797407 14496.690505 14480.869167 14620.533108 14505.464077 C 14744.375711 14530.058986 14825.104884 14561.598341 14898.600261 14607.605289 C 14972.095637 14653.901589 15038.357217 14714.376131 15101.725278 14807.836787 C 15165.093339 14901.586795 15225.567881 15028.322917 15262.894273 15176.760429 C 15300.510017 15324.90859 15314.688259 15495.047493 15274.468348 15710.903992 C 15234.248437 15927.049844 15139.05167 16189.202643 15022.442864 16422.709607 C 14905.834058 16655.927219 14767.523861 16860.498996 14571.632641 17066.517531 C 14375.741421 17272.536067 14122.269178 17479.71201 13813.820078 17669.816193 C 13505.66033 17860.209727 13142.813077 18032.952797 12795.590826 18155.348641 Z M 9267.523402 13952.801994 C 9329.734055 14044.526538 9358.958595 14148.11451 9363.009521 14254.306648 C 9366.771096 14360.498787 9345.648409 14469.295092 9209.074323 15018.484953 C 9072.210886 15567.964165 8820.185402 16557.836933 8382.396013 18305.232912 C 7944.317273 20052.628892 7320.76398 22557.837434 7001.030157 23858.184765 C 6681.296334 25158.532095 6665.381981 25254.018214 6702.419021 25304.654793 C 6739.745413 25355.002019 6829.733847 25360.210353 7290.382033 25303.208033 C 7750.740868 25246.205714 8581.470104 25126.703389 9019.259492 25045.684864 C 9457.048881 24964.95569 9502.187773 24922.420965 9724.988718 24190.071366 C 9948.079014 23457.432416 10348.831363 22034.978594 10549.062861 21321.147516 C 10749.583711 20607.316438 10749.583711 20602.108104 10819.896217 20594.006252 C 10890.208723 20586.193751 11030.833734 20575.487731 11221.805973 20559.573378 C 11412.778211 20543.659025 11654.387027 20522.536338 11792.407872 20517.038653 C 11930.428717 20511.830319 11964.86159 20522.536338 12037.778263 20656.506257 C 12110.984287 20790.476175 12222.38476 21047.999345 12414.803757 21458.010953 C 12607.222755 21868.022562 12880.370926 22430.522608 13128.634835 22863.103663 C 13376.609393 23295.684718 13599.699689 23598.057428 13813.241374 23851.529671 C 14026.783058 24105.001915 14231.354835 24309.284339 14427.535407 24463.219537 C 14624.005331 24617.154735 14812.373402 24720.742707 15024.757679 24792.21262 C 15236.852604 24863.971886 15473.253087 24903.902444 15700.104957 24929.076058 C 15926.956828 24954.249671 16144.549439 24964.95569 16363.588809 24952.802912 C 16582.338827 24940.939485 16802.824957 24906.506611 17001.609696 24857.316792 C 17200.683786 24808.416325 17378.63519 24744.469561 17524.468535 24668.948721 C 17670.591233 24593.427882 17784.595872 24505.754263 17838.994025 24411.425552 C 17893.392177 24317.386192 17888.183844 24216.402387 17837.547265 24151.587567 C 17787.200039 24086.483395 17691.71392 24057.258855 17567.003261 23990.997276 C 17442.292603 23924.446344 17288.357405 23821.147725 16991.193028 23486.656956 C 16694.028651 23152.455539 16253.345744 22587.061973 15854.040155 21971.321181 C 15454.734566 21355.869741 15096.227592 20689.492371 14903.808595 20324.619655 C 14711.678949 19959.746939 14685.058576 19896.089527 14678.403483 19836.48304 C 14671.74839 19776.876554 14685.058576 19721.031642 14756.52849 19669.237656 C 14828.287755 19617.44367 14958.496099 19569.70061 15154.676671 19478.265418 C 15351.146595 19386.540873 15613.878098 19251.413547 15867.350342 19082.721403 C 16120.822585 18914.318611 16364.746216 18712.640354 16581.18142 18526.876449 C 16797.327271 18341.112545 16985.695342 18171.262994 17176.956932 17948.172697 C 17367.929171 17725.371753 17561.794927 17449.330063 17714.283366 17182.547634 C 17866.771805 16916.054556 17978.461629 16658.531386 18056.586635 16401.008216 C 18135.000994 16143.774399 18180.139887 15886.251229 18209.364426 15611.656299 C 18238.299614 15337.061368 18251.6098 15045.105326 18214.57276 14774.27197 C 18177.246368 14503.727966 18089.862101 14254.306648 18020.707003 14078.959412 C 17951.841256 13903.901527 17901.49403 13803.207074 17787.200039 13653.03345 C 17673.1954 13503.149178 17495.243996 13304.075088 17330.89213 13156.794983 C 17166.250913 13009.514878 17014.919882 12914.028759 16842.466164 12815.938473 C 16670.012446 12717.848187 16476.436041 12616.864382 16232.223057 12533.24169 C 15988.010074 12449.618998 15693.449864 12383.357418 15299.352609 12338.218526 C 14905.255354 12293.079633 14411.621054 12269.352779 13865.03536 12286.42454 C 13318.449666 12303.785652 12718.623227 12362.234731 12014.051409 12490.706964 C 11309.479591 12619.468549 10499.873042 12818.54264 10009.710964 12944.410706 C 9519.259534 13070.568124 9347.673872 13123.230165 9176.377561 13176.181558 C 9034.30579 13205.984802 8927.534948 13331.852868 8927.534948 13482.894547 C 8927.534948 13567.385295 8961.099765 13644.063542 9015.497918 13700.487158 C 9031.412271 13714.086696 9047.615976 13727.686234 9063.240978 13741.285772 C 9141.655336 13808.126056 9216.018768 13876.413098 9267.523402 13952.801994 Z M 9267.523402 13952.801994 " stroke="#000000" stroke-width="141.110001" stroke-opacity="1" stroke-miterlimit="22.926001"/><path stroke-linecap="round" transform="matrix(0.0135, 0, 0, 0.0135, -28.509993, -9.647967)" fill="none" stroke-linejoin="round" d="M 7372.557966 28157.953642 C 7318.449165 28182.548551 7258.263975 28196.14809 7194.895914 28196.14809 C 6956.469968 28196.14809 6763.182915 28002.861036 6763.182915 27764.435091 C 6763.182915 27615.129523 6838.993107 27483.474419 6954.444505 27405.928116 " stroke="#373435" stroke-width="141.110001" stroke-opacity="1" stroke-miterlimit="22.926001"/><path stroke-linecap="round" transform="matrix(0.0135, 0, 0, 0.0135, -28.509993, -9.647967)" fill="none" stroke-linejoin="round" d="M 17531.702332 25879.307618 C 17751.031054 25900.140954 17922.327365 26084.74745 17922.327365 26309.284506 C 17922.327365 26547.710452 17729.040312 26740.997505 17490.614366 26740.997505 C 17459.075012 26740.997505 17428.693065 26737.525283 17399.179173 26731.159541 " stroke="#373435" stroke-width="141.110001" stroke-opacity="1" stroke-miterlimit="22.926001"/><path stroke-linecap="round" transform="matrix(0.0135, 0, 0, 0.0135, -28.509993, -9.647967)" fill="none" stroke-linejoin="round" d="M 6954.444505 27405.928116 C 6989.16673 27382.201262 7023.888956 27358.185057 7131.238502 27298.289218 C 7238.588048 27238.104028 7418.275563 27141.749853 7843.044117 26989.261415 C 8267.81267 26836.483624 8937.372912 26627.282218 9595.069726 26455.117852 C 10252.76654 26282.953485 10898.021223 26147.826159 11526.204146 26043.948836 C 12154.097717 25940.360864 12764.630175 25868.312247 13320.764481 25822.884003 C 13876.898787 25777.166406 14378.924292 25758.358534 14903.519243 25749.677978 C 15428.114194 25740.997422 15975.857295 25743.022885 16423.195295 25767.039091 C 16870.533296 25791.055296 17217.466195 25837.351596 17564.399094 25883.647897 " stroke="#373435" stroke-width="141.110001" stroke-opacity="1" stroke-miterlimit="22.926001"/><path stroke-linecap="round" transform="matrix(0.0135, 0, 0, 0.0135, -28.509993, -9.647967)" fill="none" stroke-linejoin="round" d="M 7268.101939 28190.0717 C 7618.507061 28083.011506 7968.622831 27975.951312 8405.254812 27852.108709 C 8841.597441 27728.266106 9363.877577 27587.641094 9900.335955 27454.828583 C 10436.504981 27321.72672 10986.562897 27196.437358 11556.296741 27094.296146 C 12126.030585 26991.865582 12715.729708 26912.293816 13264.340865 26855.8702 C 13812.66267 26799.446584 14319.896509 26765.881767 14845.359516 26739.840098 C 15371.111874 26713.798429 15914.804049 26695.569261 16343.62353 26695.279909 C 16772.153658 26695.279909 17085.811091 26713.219725 17399.179173 26731.159541 " stroke="#373435" stroke-width="141.110001" stroke-opacity="1" stroke-miterlimit="22.926001"/><path stroke-linecap="round" transform="matrix(0.0135, 0, 0, 0.0135, -28.509993, -9.647967)" fill-opacity="1" fill="#336699" fill-rule="evenodd" stroke-linejoin="round" d="M 7372.557966 28157.953642 C 7688.819567 28061.599467 8012.025612 27963.509181 8405.254812 27852.108709 C 8841.597441 27728.266106 9363.877577 27587.641094 9900.335955 27454.828583 C 10436.504981 27321.72672 10986.562897 27196.437358 11556.296741 27094.296146 C 12126.030585 26991.865582 12715.729708 26912.293816 13264.340865 26855.8702 C 13812.66267 26799.446584 14319.896509 26765.881767 14845.359516 26739.840098 C 15371.111874 26713.798429 15914.804049 26695.569261 16343.62353 26695.279909 C 16772.153658 26695.279909 17085.811091 26713.219725 17399.179173 26731.159541 C 17428.693065 26737.525283 17459.075012 26740.997505 17490.614366 26740.997505 C 17729.040312 26740.997505 17922.327365 26547.710452 17922.327365 26309.284506 C 17922.327365 26096.032174 17767.813463 25918.948825 17564.399094 25883.647897 C 17553.693075 25882.201137 17542.697704 25880.754378 17531.702332 25879.307618 C 17195.475452 25834.458078 16856.355054 25790.476593 16423.195295 25767.039091 C 15975.857295 25743.022885 15428.114194 25740.997422 14903.519243 25749.677978 C 14378.924292 25758.358534 13876.898787 25777.166406 13320.764481 25822.884003 C 12764.630175 25868.312247 12154.097717 25940.360864 11526.204146 26043.948836 C 10898.021223 26147.826159 10252.76654 26282.953485 9595.069726 26455.117852 C 8937.372912 26627.282218 8267.81267 26836.483624 7843.044117 26989.261415 C 7418.275563 27141.749853 7238.588048 27238.104028 7131.238502 27298.289218 C 7023.888956 27358.185057 6989.16673 27382.201262 6954.444505 27405.928116 C 6838.993107 27483.474419 6763.182915 27615.129523 6763.182915 27764.435091 C 6763.182915 28002.861036 6956.469968 28196.14809 7194.895914 28196.14809 C 7219.780176 28196.14809 7244.375085 28194.122626 7268.101939 28190.0717 C 7302.824164 28179.365681 7337.835741 28168.659661 7372.557966 28157.953642 Z M 7372.557966 28157.953642 " stroke="#000000" stroke-width="141.110001" stroke-opacity="1" stroke-miterlimit="22.926001"/><path stroke-linecap="round" transform="matrix(0.0135, 0, 0, 0.0135, -28.509993, -9.647967)" fill-opacity="1" fill="#ffcc00" fill-rule="evenodd" stroke-linejoin="round" d="M 9872.268823 11289.896679 C 10597.673976 10654.769311 11844.201858 10235.787795 13260.289939 10235.787795 C 14465.440502 10235.787795 15547.905871 10539.317913 16290.961488 11021.378138 L 16979.908305 8554.074691 C 16853.172183 8531.505245 16741.193007 8468.137184 16658.438371 8378.438103 C 16187.662868 8689.202017 15717.176718 8999.67658 15427.246138 9172.130298 C 15137.315559 9344.584017 15028.229901 9378.727538 14933.322486 9390.301613 C 14838.125719 9401.586336 14757.107193 9390.301613 14673.773853 9362.813185 C 14590.440513 9335.035405 14504.503006 9291.343271 14268.102523 8883.646478 C 14031.991392 8476.239037 13645.127934 7704.537583 13258.264476 6933.125482 C 13183.901044 6962.350021 13102.882518 6978.553727 13018.102419 6978.553727 C 12954.155654 6978.553727 12892.234353 6969.294466 12833.785274 6952.222706 C 12825.683421 6950.197243 12817.870921 6948.17178 12629.502849 7359.630147 C 12441.134778 7771.377867 12072.211136 8596.320065 11820.475004 9019.931212 C 11568.738872 9443.542358 11433.900898 9465.533101 11305.139313 9463.796989 C 11176.66708 9462.35023 11054.271236 9436.887265 10738.58834 9265.880306 C 10422.616091 9094.873348 9913.356789 8778.322395 9404.097488 8461.482091 C 9335.521093 8537.002931 9246.111363 8594.294602 9144.838207 8624.676549 Z M 9872.268823 11289.896679 " stroke="#ffffff" stroke-width="141.110001" stroke-opacity="1" stroke-miterlimit="22.926001"/><g clip-path="url(#6e606c1dab)"><g clip-path="url(#e0c23cf7d1)"><path fill="#ffcc00" d="M 138.386719 66.867188 L 138.386719 84.5625 L 156.082031 84.5625 L 156.082031 66.867188 Z M 138.386719 66.867188 " fill-opacity="1" fill-rule="nonzero"/></g></g><path stroke-linecap="round" transform="matrix(0.0135, 0, 0, 0.0135, -28.509993, -9.647967)" fill="none" stroke-linejoin="round" d="M 12362.72042 6323.171727 C 12362.72042 6621.20416 12561.505158 6872.65094 12833.785274 6952.222706 C 12892.234353 6969.294466 12954.155654 6978.553727 13018.102419 6978.553727 C 13102.882518 6978.553727 13183.901044 6962.350021 13258.264476 6933.125482 C 13501.320052 6837.350011 13673.484418 6600.370825 13673.484418 6323.171727 C 13673.484418 5961.19253 13380.081616 5667.789728 13018.102419 5667.789728 C 12656.123222 5667.789728 12362.72042 5961.19253 12362.72042 6323.171727 Z M 12362.72042 6323.171727 " stroke="#ffffff" stroke-width="141.110001" stroke-opacity="1" stroke-miterlimit="22.926001"/><path stroke-linecap="round" transform="matrix(0.0135, 0, 0, 0.0135, -28.509993, -9.647967)" fill-opacity="1" fill="#ffcc00" fill-rule="evenodd" stroke-linejoin="round" d="M 16300.799452 11495.915215 C 15551.956797 11012.40823 14453.287724 10711.482279 13234.24827 10724.792465 C 11874.005101 10739.260059 10686.505002 11031.794805 9957.338274 11630.174485 C 9948.079014 11637.986986 9938.819754 11645.510134 9929.849846 11653.322635 C 9929.271142 11653.611987 9928.981791 11653.901339 9928.692439 11654.480043 C 9881.528083 11698.172176 9846.227154 11755.753199 9846.227154 11823.75089 C 9846.227154 11942.674511 9942.581329 12039.028686 10061.50495 12039.028686 C 10102.592916 12039.028686 10140.787364 12027.454611 10173.484126 12007.778683 C 10917.407799 11493.6004 12038.646318 11222.18834 13289.514478 11222.18834 C 14371.401143 11222.18834 15357.801688 11470.162898 16084.942952 11868.600431 C 16117.639714 11888.56571 16155.834162 11899.850433 16196.922128 11899.850433 C 16315.845749 11899.850433 16412.199924 11803.496259 16412.199924 11684.572638 C 16412.199924 11614.549484 16378.635107 11552.33883 16326.841121 11512.986975 C 16318.449916 11507.199938 16309.76936 11501.702252 16300.799452 11495.915215 Z M 16300.799452 11495.915215 " stroke="#ffffff" stroke-width="141.110001" stroke-opacity="1" stroke-miterlimit="22.926001"/><path stroke-linecap="round" transform="matrix(0.0135, 0, 0, 0.0135, -28.509993, -9.647967)" fill-opacity="1" fill="#990000" fill-rule="evenodd" stroke-linejoin="round" d="M 18589.283439 10435.729941 C 21019.549846 12009.804146 22627.767572 14744.758078 22628.635628 17855.869449 C 22629.503684 20903.612759 21087.258185 23591.691687 18740.035767 25180.81219 C 18719.781135 25194.411728 18699.526504 25208.011266 18679.271873 25221.610804 C 18603.461681 25284.978865 18558.033437 25378.728873 18558.322788 25488.393234 C 18558.322788 25684.863158 18717.755672 25844.296041 18914.225596 25844.296041 C 18926.089023 25844.296041 18937.663098 25843.717338 18948.947821 25842.55993 C 18968.045045 25839.37706 18987.142269 25836.194189 19007.3969 25832.143263 C 19009.422363 25831.564559 19011.447826 25831.275207 19013.473289 25830.696503 C 19036.042736 25826.066873 19060.058941 25820.279836 19174.931636 25777.455758 C 19289.804331 25734.63168 19495.533515 25655.059915 19751.609925 25532.374719 C 20007.686335 25409.689524 20314.109972 25243.601547 20665.093798 25004.596897 C 21016.077623 24765.592248 21411.621638 24453.092222 21741.772128 24159.689419 C 22071.922619 23866.286617 22336.968937 23591.691687 22621.980535 23245.048139 C 22907.281485 22898.404592 23212.547714 22480.001779 23456.760697 22107.027211 C 23700.973681 21734.341995 23884.133418 21407.374375 24036.621857 21108.763239 C 24189.399647 20810.441455 24311.506139 20540.765506 24426.378834 20258.358075 C 24541.251528 19975.661293 24648.601074 19680.233027 24729.330248 19455.695971 C 24809.770069 19231.158916 24863.589518 19077.513069 24933.32332 18833.87879 C 25003.057123 18590.533862 25088.415926 18257.200501 25162.779358 17946.725938 C 25236.853438 17636.251375 25299.932147 17348.056907 25355.487707 17012.698082 C 25411.043268 16677.339258 25459.365031 16294.526726 25494.376608 15949.908642 C 25529.388185 15605.579909 25551.089576 15299.734976 25558.612724 14991.285877 C 25566.135873 14682.836777 25559.191428 14372.072862 25541.830316 14076.065893 C 25524.179851 13780.348276 25496.402071 13499.676956 25466.598828 13199.908412 C 25458.786327 13122.651461 25450.973827 13044.237103 25443.161326 12966.112097 C 25420.302528 12741.285689 25396.286322 12519.3528 25370.823357 12339.375933 C 25336.679836 12097.188413 25300.221499 11931.100436 25257.686773 11766.74857 C 25215.152048 11602.686057 25166.830284 11440.070302 25085.233055 11236.07723 C 25003.635826 11032.373509 24885.580261 10787.871174 24770.996918 10542.500783 C 24753.057102 10503.148928 24713.126543 10475.6605 24667.119594 10475.6605 C 24604.040886 10475.6605 24553.114955 10526.875782 24553.114955 10589.665139 C 24553.114955 10591.40125 24553.114955 10593.137361 24553.404307 10594.873473 C 24560.638104 10732.894318 24567.871901 10870.625811 24556.297826 11059.861937 C 24544.723751 11248.808712 24514.341804 11488.97077 24480.776986 11655.058746 C 24448.369576 11813.912926 24413.357999 11904.769415 24378.05707 11992.732386 C 24376.610311 11996.49396 24375.163552 12000.255534 24373.716792 12004.017109 C 24262.31632 12274.561113 23996.112594 12465.243999 23685.348679 12465.243999 C 23349.989855 12465.533351 23066.714368 12243.889814 22973.543064 11939.202289 C 22967.756027 11921.551824 22961.968989 11903.90136 22955.603248 11884.225432 C 22949.526859 11864.260153 22943.161117 11841.690706 22935.92732 11805.811074 C 22928.404172 11770.220793 22920.012967 11720.741622 22913.936578 11663.449951 C 22907.860188 11606.158279 22903.809262 11540.475403 22900.915743 11431.96845 C 22897.732873 11323.750848 22895.418058 11172.419817 22936.506024 10952.22304 C 22977.883342 10732.026262 23062.37409 10443.25309 23143.103264 10131.910471 C 23223.832437 9820.278501 23300.800036 9486.366436 23335.522261 9222.188173 C 23369.955134 8958.00991 23361.853282 8763.56545 23337.547724 8573.171915 C 23313.531519 8383.067733 23273.311608 8196.725124 23224.411141 8017.616313 C 23175.221322 7838.507502 23117.350947 7666.632488 23050.800015 7509.514419 C 22983.959732 7352.106998 22908.438892 7209.167172 22803.114809 7047.708825 C 22698.080078 6886.250478 22562.952752 6706.562963 22401.783757 6523.113874 C 22240.614762 6339.375432 22053.114747 6152.454121 21865.614731 5965.243457 C 21836.968895 5930.521232 21793.276762 5908.819841 21744.954999 5908.819841 C 21657.860084 5908.819841 21587.547578 5979.421699 21587.547578 6066.227261 C 21587.547578 6091.690227 21593.334616 6115.706432 21604.040635 6136.829119 C 21609.538321 6148.113842 21614.746655 6159.687917 21620.533692 6170.683289 C 21626.610081 6181.968012 21632.975823 6192.674031 21661.332307 6242.153202 C 21689.68879 6291.343021 21739.746665 6379.305991 21783.438798 6479.711092 C 21826.84158 6580.116193 21863.589268 6693.542129 21891.367048 6812.176398 C 21919.43418 6931.100019 21938.531404 7055.231974 21939.399459 7198.461152 C 21940.267515 7341.690331 21923.195754 7503.43803 21886.448066 7643.484338 C 21859.827694 7745.914902 21822.790653 7836.771391 21783.149446 7924.445009 C 21770.707316 7957.720475 21755.661018 7989.838533 21738.589258 8020.509832 C 21621.112396 8228.843183 21397.732748 8369.757546 21141.656337 8369.757546 C 20858.959554 8369.757546 20616.482682 8198.750588 20511.737303 7954.537604 C 20492.061376 7914.317693 20472.096096 7874.097783 20450.105354 7806.678796 C 20428.114611 7738.970457 20404.098405 7644.352393 20385.869237 7456.273674 C 20367.640069 7268.194954 20355.48729 6986.944931 20349.700253 6764.143986 C 20343.913215 6541.632394 20343.913215 6377.859232 20346.517382 6189.780513 C 20348.832197 6001.991145 20353.461827 5789.89622 20319.028954 5594.583704 C 20284.596081 5399.271187 20211.390056 5220.451728 20113.010418 5036.134583 C 20014.63078 4852.10679 19891.077529 4662.581311 19725.568256 4454.24796 C 19559.769631 4245.625258 19352.014984 4018.484035 19246.112198 3903.61134 C 19140.498763 3788.738646 19136.737189 3786.134479 19130.371447 3780.636793 C 19123.716354 3775.139107 19114.167742 3766.169199 19104.61913 3757.488643 C 19081.181628 3736.94466 19050.220978 3724.213177 19016.366808 3724.213177 C 18942.58208 3724.213177 18882.686241 3784.109015 18882.686241 3857.893744 C 18882.686241 3876.990968 18886.737168 3894.930784 18893.970965 3911.423841 C 18895.707076 3915.474767 18897.732539 3919.815045 18900.047354 3923.57662 C 18907.570503 3938.622917 18918.565874 3958.009493 18943.739487 3997.6507 C 18976.436249 4048.865982 19032.859865 4133.35673 19079.156165 4250.54424 C 19125.741817 4367.731749 19161.910802 4517.326669 19174.642284 4660.555848 C 19187.663119 4803.785027 19177.246451 4940.648464 19144.260337 5063.333659 C 19111.274223 5186.308207 19055.429311 5295.104512 19007.107548 5376.412389 C 18958.496433 5457.720266 18917.119115 5510.961011 18884.133001 5546.551292 C 18871.980222 5559.572127 18861.274203 5570.278146 18851.146887 5579.248054 C 18815.845958 5613.970279 18772.443177 5640.011948 18723.54271 5653.900838 C 18697.211689 5661.423987 18669.433909 5665.474913 18640.788073 5665.474913 C 18519.549637 5665.474913 18415.382962 5594.005 18367.929254 5490.70638 C 18366.193143 5486.944806 18364.746383 5482.893879 18363.010272 5479.132305 C 18357.801938 5466.979526 18352.593605 5454.537396 18347.963975 5441.805913 C 18341.887585 5425.023504 18336.679251 5407.662392 18332.338973 5390.879983 C 18327.998695 5374.386926 18324.526473 5358.761925 18319.896843 5340.243405 C 18315.556564 5321.724885 18309.769527 5300.312846 18303.114434 5264.143861 C 18296.169989 5227.974877 18288.068136 5177.048947 18279.966284 5103.842922 C 18272.153783 5030.347545 18264.051931 4934.572074 18260.290356 4808.414657 C 18256.23943 4681.967887 18256.23943 4525.13917 18243.507947 4341.979432 C 18231.065817 4159.109047 18205.892203 3949.90764 18162.778774 3752.280309 C 18119.954696 3554.652978 18059.190802 3368.31037 17991.193111 3204.247856 C 17923.195421 3040.185342 17847.963933 2897.824219 17755.950036 2754.595041 C 17663.646788 2611.365862 17554.850482 2466.979276 17431.586583 2321.724634 C 17308.033332 2176.469992 17170.012487 2030.057943 16869.66524 1811.018573 C 16569.607345 1592.268555 16107.223047 1300.891216 15645.128101 1009.513877 C 15608.669765 982.604152 15563.820224 966.689799 15515.209109 966.689799 C 15394.838728 966.689799 15297.037794 1064.490733 15297.037794 1184.861113 C 15297.037794 1246.203711 15327.998445 1298.576401 15361.852614 1341.400478 C 15485.695217 1517.326419 15606.35495 1688.912081 15699.526254 1881.909783 C 15792.697558 2074.907484 15854.908211 2284.687594 15886.447565 2529.189929 C 15917.98692 2773.402913 15918.854976 3052.627473 15897.153585 3300.891383 C 15875.741546 3549.444644 15831.760061 3766.747903 15747.558665 3976.238661 C 15663.357269 4185.729419 15538.646611 4387.407677 15413.935952 4588.796583 C 15323.079463 4763.275764 15232.222974 4938.044297 15197.500749 5102.974866 C 15162.489172 5267.905436 15183.322507 5423.287393 15215.729917 5586.192499 C 15248.137327 5749.097605 15314.97761 5904.190211 15410.463729 6108.183284 C 15505.949849 6312.465708 15686.216067 6541.921746 15801.088762 6620.625456 C 16049.642024 6789.896303 16311.505471 6591.690268 16712.836523 6591.690268 C 17905.255604 6591.400916 18872.269574 7557.836182 18872.558926 8750.544615 C 18872.848278 9181.389558 18737.142248 9583.009962 18519.838989 9919.815546 C 18501.031117 9949.040085 18483.091301 9977.975273 18466.01954 10006.042405 C 18457.917687 10019.352591 18450.105187 10032.373426 18442.292686 10045.104908 C 18422.616759 10083.299356 18412.200091 10143.773898 18412.200091 10189.780846 C 18412.200091 10271.378075 18446.054261 10327.512339 18501.031117 10379.306325 C 18530.545008 10397.824845 18560.0589 10416.632717 18589.283439 10435.729941 Z M 18589.283439 10435.729941 " stroke="#ffffff" stroke-width="141.110001" stroke-opacity="1" stroke-miterlimit="22.926001"/><path stroke-linecap="round" transform="matrix(0.0135, 0, 0, 0.0135, -28.509993, -9.647967)" fill-opacity="1" fill="#1a1a1a" fill-rule="evenodd" stroke-linejoin="round" d="M 18056.586635 16401.008216 C 18135.000994 16143.774399 18180.139887 15886.251229 18209.075074 15611.656299 C 18238.299614 15337.061368 18251.6098 15045.105326 18214.57276 14774.27197 C 18177.246368 14503.727966 18089.862101 14254.306648 18020.707003 14078.959412 C 17951.841256 13903.901527 17901.49403 13803.207074 17787.200039 13653.03345 C 17673.1954 13503.149178 17495.243996 13304.075088 17330.89213 13156.794983 C 17166.250913 13009.514878 17014.919882 12914.028759 16842.466164 12815.938473 C 16670.012446 12717.848187 16476.436041 12616.864382 16232.223057 12533.24169 C 15988.010074 12449.618998 15693.449864 12383.357418 15299.352609 12338.218526 C 14905.255354 12293.079633 14411.621054 12269.352779 13865.03536 12286.42454 C 13318.449666 12303.785652 12718.623227 12362.234731 12014.051409 12490.706964 C 11309.479591 12619.468549 10499.873042 12818.54264 10009.710964 12944.410706 C 9519.259534 13070.568124 9347.673872 13123.230165 9176.377561 13176.181558 C 9034.30579 13205.984802 8927.534948 13331.852868 8927.534948 13482.894547 C 8927.534948 13567.385295 8961.099765 13644.063542 9015.497918 13700.487158 C 9031.412271 13714.086696 9047.615976 13727.686234 9063.240978 13741.285772 C 9141.655336 13808.126056 9216.018768 13876.413098 9267.523402 13952.801994 C 9329.734055 14044.526538 9358.958595 14148.11451 9363.009521 14254.306648 C 9366.771096 14360.498787 9345.648409 14469.295092 9209.074323 15018.484953 C 9072.210886 15567.964165 8820.185402 16557.836933 8382.396013 18305.232912 C 7944.317273 20052.628892 7320.76398 22557.837434 7001.030157 23858.184765 C 6681.296334 25158.532095 6665.381981 25254.018214 6702.419021 25304.654793 C 6739.745413 25355.002019 6829.733847 25360.210353 7290.382033 25303.208033 C 7750.740868 25246.205714 8581.470104 25126.703389 9019.259492 25045.684864 C 9457.048881 24964.95569 9502.187773 24922.420965 9724.988718 24190.071366 C 9948.079014 23457.432416 10348.831363 22034.978594 10549.062861 21321.147516 C 10749.583711 20607.316438 10749.583711 20602.108104 10819.896217 20594.006252 C 10890.208723 20586.193751 11030.833734 20575.487731 11221.805973 20559.573378 C 11412.778211 20543.659025 11654.387027 20522.536338 11792.407872 20517.038653 C 11930.428717 20511.830319 11964.86159 20522.536338 12037.778263 20656.506257 C 12110.984287 20790.476175 12222.38476 21047.999345 12414.803757 21458.010953 C 12607.222755 21868.022562 12880.370926 22430.522608 13128.634835 22863.103663 C 13376.609393 23295.684718 13599.699689 23598.057428 13813.241374 23851.529671 C 14026.783058 24105.001915 14231.354835 24309.284339 14427.535407 24463.219537 C 14624.005331 24617.154735 14812.373402 24720.742707 15024.757679 24792.21262 C 15236.852604 24863.971886 15473.253087 24903.902444 15700.104957 24929.076058 C 15926.956828 24954.249671 16144.549439 24964.95569 16363.588809 24952.802912 C 16582.338827 24940.939485 16802.824957 24906.506611 17001.609696 24857.316792 C 17200.683786 24808.416325 17378.63519 24744.469561 17524.468535 24668.948721 C 17670.591233 24593.427882 17784.595872 24505.754263 17838.994025 24411.425552 C 17893.392177 24317.386192 17888.183844 24216.402387 17837.547265 24151.587567 C 17787.200039 24086.483395 17691.71392 24057.258855 17567.003261 23990.997276 C 17442.292603 23924.446344 17288.357405 23821.147725 16991.193028 23486.656956 C 16694.028651 23152.455539 16253.345744 22587.061973 15854.040155 21971.321181 C 15454.734566 21355.869741 15096.227592 20689.492371 14903.808595 20324.619655 C 14711.678949 19959.746939 14685.058576 19896.089527 14678.403483 19836.48304 C 14671.74839 19776.876554 14685.058576 19721.031642 14756.52849 19669.237656 C 14828.287755 19617.44367 14958.496099 19569.70061 15154.676671 19478.265418 C 15351.146595 19386.540873 15613.878098 19251.413547 15867.350342 19082.721403 C 16120.822585 18914.318611 16364.746216 18712.640354 16581.18142 18526.876449 C 16797.327271 18341.112545 16985.695342 18171.262994 17176.956932 17948.172697 C 17367.929171 17725.371753 17561.794927 17449.330063 17714.283366 17182.547634 C 17866.771805 16916.054556 17978.461629 16658.531386 18056.586635 16401.008216 Z M 12795.590826 18155.348641 C 12448.368575 18277.744484 12117.060677 18349.793101 11862.141674 18397.246809 C 11607.222671 18444.989868 11428.692564 18467.848667 11337.836075 18477.975982 C 11247.268938 18488.103298 11244.375419 18485.209779 11407.569877 17861.077783 C 11570.764335 17236.656434 11900.336122 15991.28596 12067.292154 15356.737296 C 12234.248187 14722.188632 12238.877817 14698.75113 12252.188003 14673.577517 C 12265.498189 14648.114552 12287.488932 14621.204827 12317.870879 14601.818252 C 12347.963474 14582.431676 12386.736625 14570.568249 12483.958856 14556.100655 C 12580.891734 14541.343709 12736.563043 14524.271949 13026.204271 14505.464077 C 13315.556147 14486.656205 13739.167294 14466.690925 14034.306207 14465.244166 C 14329.734473 14463.797407 14496.690505 14480.869167 14620.533108 14505.464077 C 14744.375711 14530.058986 14825.104884 14561.598341 14898.600261 14607.605289 C 14972.095637 14653.901589 15038.357217 14714.376131 15101.725278 14807.836787 C 15165.093339 14901.586795 15225.567881 15028.322917 15262.894273 15176.760429 C 15300.510017 15324.90859 15314.688259 15495.047493 15274.468348 15710.903992 C 15234.248437 15927.049844 15139.05167 16189.202643 15022.442864 16422.709607 C 14905.834058 16655.927219 14767.523861 16860.498996 14571.632641 17066.517531 C 14375.741421 17272.536067 14122.269178 17479.71201 13813.820078 17669.816193 C 13505.66033 17860.209727 13142.813077 18032.952797 12795.590826 18155.348641 Z M 12795.590826 18155.348641 " stroke="#ffffff" stroke-width="141.110001" stroke-opacity="1" stroke-miterlimit="22.926001"/><path stroke-linecap="round" transform="matrix(0.0135, 0, 0, 0.0135, -28.509993, -9.647967)" fill-opacity="1" fill="#990000" fill-rule="evenodd" stroke-linejoin="round" d="M 14903.519243 25749.677978 C 14378.924292 25758.358534 13876.898787 25777.166406 13320.764481 25822.884003 C 12764.630175 25868.312247 12154.097717 25940.360864 11526.204146 26043.948836 C 10898.021223 26147.826159 10252.76654 26282.953485 9595.069726 26455.117852 C 8937.372912 26627.282218 8267.81267 26836.483624 7843.044117 26989.261415 C 7418.275563 27141.749853 7238.588048 27238.104028 7131.238502 27298.289218 C 7023.888956 27358.185057 6989.16673 27382.201262 6954.444505 27405.928116 C 6838.993107 27483.474419 6763.182915 27615.129523 6763.182915 27764.435091 C 6763.182915 28002.861036 6956.469968 28196.14809 7194.895914 28196.14809 C 7219.780176 28196.14809 7244.375085 28194.122626 7268.101939 28190.0717 C 7302.824164 28179.365681 7337.835741 28168.659661 7372.557966 28157.953642 C 7688.819567 28061.599467 8012.025612 27963.509181 8405.254812 27852.108709 C 8841.597441 27728.266106 9363.877577 27587.641094 9900.335955 27454.828583 C 10436.504981 27321.72672 10986.562897 27196.437358 11556.296741 27094.296146 C 12126.030585 26991.865582 12715.729708 26912.293816 13264.340865 26855.8702 C 13812.66267 26799.446584 14319.896509 26765.881767 14845.359516 26739.840098 C 15371.111874 26713.798429 15914.804049 26695.569261 16343.62353 26695.279909 C 16772.153658 26695.279909 17085.811091 26713.219725 17399.179173 26731.159541 C 17428.693065 26737.525283 17459.075012 26740.997505 17490.614366 26740.997505 C 17729.040312 26740.997505 17922.327365 26547.710452 17922.327365 26309.284506 C 17922.327365 26096.032174 17767.813463 25918.948825 17564.399094 25883.937248 C 17553.693075 25882.201137 17542.697704 25880.754378 17531.702332 25879.307618 C 17195.475452 25834.458078 16856.355054 25790.476593 16423.195295 25767.039091 C 15975.857295 25743.022885 15428.114194 25740.997422 14903.519243 25749.677978 Z M 14903.519243 25749.677978 " stroke="#ffffff" stroke-width="141.110001" stroke-opacity="1" stroke-miterlimit="22.926001"/><path stroke-linecap="round" transform="matrix(0.0135, 0, 0, 0.0135, -28.509993, -9.647967)" fill-opacity="1" fill="#ffcc00" fill-rule="evenodd" stroke-linejoin="round" d="M 17083.785628 8563.333951 C 17400.047229 8563.333951 17656.412991 8313.044579 17656.412991 8004.016775 C 17656.412991 7695.278323 17400.047229 7444.699599 17083.785628 7444.699599 C 16767.524028 7444.699599 16511.158266 7695.278323 16511.158266 8004.016775 C 16511.158266 8148.114009 16567.003178 8279.190409 16658.438371 8378.438103 C 16741.193007 8468.137184 16853.172183 8531.505245 16979.908305 8554.074691 C 17013.762474 8560.151081 17048.484699 8563.333951 17083.785628 8563.333951 Z M 17083.785628 8563.333951 " stroke="#ffffff" stroke-width="141.110001" stroke-opacity="1" stroke-miterlimit="22.926001"/></svg>