<svg xmlns="http://www.w3.org/2000/svg" xmlns:xlink="http://www.w3.org/1999/xlink" width="500" zoomAndPan="magnify" viewBox="0 0 375 374.999991" height="500" preserveAspectRatio="xMidYMid meet" version="1.0"><defs><clipPath id="443eba8431"><path d="M 48.5625 83.917969 L 322.160156 83.917969 L 322.160156 357.515625 L 48.5625 357.515625 Z M 48.5625 83.917969 " clip-rule="nonzero"/></clipPath><clipPath id="bb34ced303"><path d="M 185.363281 83.917969 C 109.808594 83.917969 48.5625 145.164062 48.5625 220.71875 C 48.5625 296.269531 109.808594 357.515625 185.363281 357.515625 C 260.914062 357.515625 322.160156 296.269531 322.160156 220.71875 C 322.160156 145.164062 260.914062 83.917969 185.363281 83.917969 Z M 185.363281 83.917969 " clip-rule="nonzero"/></clipPath><clipPath id="2fd83d7e78"><path d="M 0.5625 0.917969 L 274.160156 0.917969 L 274.160156 274.515625 L 0.5625 274.515625 Z M 0.5625 0.917969 " clip-rule="nonzero"/></clipPath><clipPath id="db0b92ff62"><path d="M 137.363281 0.917969 C 61.808594 0.917969 0.5625 62.164062 0.5625 137.71875 C 0.5625 213.269531 61.808594 274.515625 137.363281 274.515625 C 212.914062 274.515625 274.160156 213.269531 274.160156 137.71875 C 274.160156 62.164062 212.914062 0.917969 137.363281 0.917969 Z M 137.363281 0.917969 " clip-rule="nonzero"/></clipPath><clipPath id="d4ff67deec"><rect x="0" width="275" y="0" height="275"/></clipPath></defs><g clip-path="url(#443eba8431)"><g clip-path="url(#bb34ced303)"><g transform="matrix(1, 0, 0, 1, 48, 83)"><g clip-path="url(#d4ff67deec)"><g clip-path="url(#2fd83d7e78)"><g clip-path="url(#db0b92ff62)"><path fill="#ffffff" d="M 0.5625 0.917969 L 274.160156 0.917969 L 274.160156 274.515625 L 0.5625 274.515625 Z M 0.5625 0.917969 " fill-opacity="1" fill-rule="nonzero"/></g></g></g></g></g></g><path stroke-linecap="round" transform="matrix(0.01345, 0, 0, 0.01345, -25.801102, -14.067203)" fill="none" stroke-linejoin="round" d="M 26609.577041 16666.533882 C 26630.487825 16944.473035 26631.649535 17245.355963 26631.649535 17528.813239 C 26631.649535 23605.138169 21705.998244 28531.079624 15629.382562 28531.079624 C 9994.797615 28531.079624 5330.531121 24295.484424 4684.910671 18834.575446 M 4690.138367 18878.139576 C 4593.71642 18136.387647 4497.294472 17394.635717 4526.0468 16502.151896 C 4554.5087 15609.377647 4708.435303 14566.161934 4827.801027 13902.535012 C 4947.166751 13239.198518 5031.971597 12955.741242 5207.099411 12490.476327 C 5382.517653 12025.501841 5648.258863 11379.010143 5914.290501 10845.785185 C 6180.322139 10312.560227 6446.353778 9892.602009 6579.369597 9680.009052 C 6712.385416 9467.125667 6712.385416 9461.607544 6706.867292 9574.874283 C 6701.058741 9688.43145 6690.022494 9920.77348 6719.065249 10151.372944 C 6748.108005 10381.972409 6817.229762 10610.53888 6899.42076 10772.016591 C 6981.902185 10933.494302 7077.452849 11027.883251 7139.604346 11074.932512 C 7201.465414 11122.272201 7229.927314 11122.272201 7246.772112 11088.001751 C 7263.907338 11054.021729 7269.425462 10986.061686 7284.237267 10844.913903 C 7299.049072 10703.76612 7322.864131 10489.721025 7413.1871 10180.415698 C 7503.800496 9871.400799 7660.631375 9467.416095 7869.158358 9081.147471 C 8077.975768 8694.878846 8338.198855 8326.035874 8644.019068 7945.866228 C 8949.839281 7565.696583 9300.966192 7174.200263 9550.153032 6850.663986 C 9799.339872 6527.12771 9946.586641 6271.841905 10042.718161 6065.057499 C 10138.849681 5857.982665 10183.865951 5699.118802 10237.595049 5483.62157 C 10291.324146 5268.124337 10353.475642 4995.993735 10375.838564 4806.054126 C 10398.491913 4616.114517 10381.356687 4508.3659 10358.41291 4448.828255 C 10335.759561 4389.29061 10307.297661 4377.963936 10358.41291 4414.848234 C 10409.52816 4451.732531 10539.930131 4536.537372 10673.526805 4666.648908 C 10806.833052 4797.050872 10943.043574 4972.759532 11059.505022 5153.986315 C 11175.676043 5335.213098 11272.388418 5522.248432 11357.774119 5763.01286 C 11442.869392 6004.067716 11516.928418 6298.851666 11563.977681 6507.669065 C 11610.736517 6716.776892 11630.776018 6839.918168 11659.237918 6831.205341 C 11687.409391 6822.782943 11724.29369 6682.506442 11779.474925 6538.744812 C 11834.65616 6394.692753 11908.134331 6247.445992 12012.978677 6099.908803 C 12117.532596 5952.371614 12253.452691 5804.834426 12423.352809 5637.257737 C 12593.252927 5469.971475 12797.133069 5282.645714 12987.072689 5092.415677 C 13176.72188 4902.476068 13352.43055 4709.341756 13502.291167 4516.497872 C 13652.442211 4323.653987 13777.035632 4130.810102 13892.916225 3898.177645 C 14008.796818 3665.545188 14116.255013 3393.414586 14181.310785 3197.666426 C 14246.366556 3001.918266 14269.019906 2882.842976 14282.960428 2718.46099 C 14296.900951 2554.079004 14302.419074 2344.390322 14273.957174 2117.566416 C 14245.204846 1890.742509 14182.762922 1647.073806 14128.743398 1502.440893 C 14074.723873 1358.098407 14029.417175 1312.791711 14037.839574 1301.465037 C 14046.261973 1290.138363 14108.703897 1312.501283 14250.432542 1383.365602 C 14392.161188 1454.229921 14613.466983 1573.014784 14834.772778 1728.683944 C 15056.078573 1884.353104 15277.384368 2076.906561 15461.805864 2255.229068 C 15646.22736 2433.551576 15793.764556 2597.933562 15947.110304 2804.717968 C 16100.456052 3011.502375 16259.319923 3260.689202 16381.589923 3464.85976 C 16503.569495 3668.739891 16588.664768 3827.313326 16651.397119 4057.041508 C 16713.839043 4286.479262 16753.918045 4587.071763 16779.766097 4810.991394 C 16805.323722 5034.911025 16816.940824 5182.157786 16842.498449 5247.503982 C 16868.056073 5312.55975 16907.844648 5295.424526 16981.322819 5258.540229 C 17055.091417 5221.655931 17162.840039 5165.022562 17273.202509 5085.445417 C 17383.564979 5005.868271 17496.831725 4903.637778 17584.831273 4784.562488 C 17672.540394 4665.487198 17734.69189 4529.276683 17777.094313 4356.472299 C 17819.496735 4183.377487 17841.859657 3973.688805 17841.859657 3817.729217 C 17841.569229 3661.76963 17818.91588 3559.829565 17832.856403 3531.367666 C 17847.087353 3502.905767 17898.202602 3548.212463 17994.62455 3627.499181 C 18091.046497 3706.785898 18233.06557 3820.052638 18374.794216 4029.74132 C 18516.813289 4239.430001 18658.832362 4545.540625 18738.409512 4837.4203 C 18818.277089 5129.299975 18835.412314 5406.9487 18847.029416 5664.848353 C 18858.646518 5923.038433 18864.45507 6160.898586 18876.072172 6353.742471 C 18887.689274 6546.586355 18904.824499 6693.833116 18910.63305 6773.410262 C 18916.441601 6852.696979 18910.63305 6864.023653 18947.51735 6778.928385 C 18984.111221 6693.833116 19063.397943 6512.315906 19202.222313 6316.567746 C 19340.756256 6120.819586 19539.118274 5910.840477 19700.305566 5757.785165 C 19861.783285 5604.439425 19986.376705 5508.017483 20139.432025 5414.209388 C 20292.487345 5320.401294 20473.714138 5229.497475 20666.558033 5150.210757 C 20859.1115 5070.633612 21063.28207 5002.383141 21173.64454 4965.208416 C 21284.297437 4928.324119 21301.142235 4922.515568 21264.548364 4987.861764 C 21227.664065 5053.20796 21137.050668 5189.418475 21086.225847 5379.358084 C 21035.401025 5569.297693 21024.364778 5812.966397 21052.826678 6051.116977 C 21081.579006 6289.267557 21149.829481 6521.609587 21215.17568 6680.183022 C 21280.521879 6839.046885 21342.963803 6923.851726 21402.501451 7017.369393 C 21462.329527 7110.88706 21518.9629 7212.827125 21621.193398 7374.304836 C 21723.423897 7535.782546 21870.961094 7756.797902 21984.518267 7929.602286 C 22098.07544 8102.406671 22177.652589 8227.290512 22242.998788 8343.171099 C 22308.05456 8459.051686 22359.169809 8566.509875 22399.539239 8659.446687 C 22439.908669 8752.093071 22469.241852 8830.218079 22496.251614 8897.887695 C 22522.970949 8965.557311 22546.786008 9022.481108 22565.663799 9062.560108 C 22584.54159 9102.639108 22598.482113 9125.582884 22613.874773 9134.586137 C 22629.557861 9143.879819 22646.983514 9139.232978 22687.062516 9068.659086 C 22727.431946 8998.085195 22790.454725 8861.584253 22829.952872 8750.060078 C 22869.451019 8638.826332 22885.424535 8552.278926 22904.302326 8423.619527 C 22923.180116 8294.6697 22945.25261 8123.317454 22944.962183 7884.295591 C 22944.962183 7645.564155 22922.308834 7339.163104 22909.820449 7182.332234 C 22897.622492 7025.210936 22895.589499 7017.950248 22904.592753 7025.791791 C 22913.596007 7033.923762 22933.635508 7057.157965 23036.156434 7169.84385 C 23138.67736 7282.820161 23323.098856 7484.957727 23508.97249 7720.784887 C 23694.846124 7956.612047 23881.59104 8225.547947 24059.042274 8490.127433 C 24236.493509 8754.416491 24404.070207 9014.05871 24538.538164 9245.529457 C 24672.715693 9477.000204 24773.784481 9680.589907 24866.721298 9869.077378 C 24959.658115 10057.855278 25044.753388 10231.530945 25112.13258 10378.777706 C 25179.511772 10526.314895 25229.465311 10647.13275 25290.16467 10786.828395 C 25350.864028 10926.814468 25422.018779 11085.968759 25505.952341 11296.81915 C 25589.885904 11507.669542 25686.598279 11770.506463 25771.693552 12018.53158 C 25856.788825 12266.556696 25930.266996 12499.770009 25992.999347 12694.356458 C 26055.731698 12888.652481 26107.71823 13044.612068 26164.64203 13265.046569 C 26221.565831 13485.481069 26283.426899 13770.680911 26329.314453 13984.726005 C 26375.202006 14199.061528 26404.825616 14341.951876 26432.416234 14515.337115 C 26460.006851 14689.012783 26484.983621 14892.602486 26507.63697 15098.806037 C 26529.999892 15305.009589 26550.039393 15513.53656 26566.303336 15775.502198 C 26582.857706 16037.177409 26596.217374 16351.710432 26609.577041 16666.533882 M 15568.973631 7578.184967 C 20791.441881 7578.184967 25062.759896 11647.655615 25387.167472 16788.22302 L 25387.167472 16789.965585 C 25400.236712 16997.330847 25407.787828 17206.438673 25407.787828 17416.998638 C 25407.787828 22850.897855 21002.873139 27255.812309 15568.973631 27255.812309 C 10592.497518 27255.812309 6479.462519 23560.993183 5822.515395 18764.872837 C 5820.482402 18750.641888 5818.449409 18736.701366 5816.416416 18722.470416 C 5759.783043 18295.541937 5730.159433 17859.900632 5730.159433 17416.998638 C 5730.159433 11983.389848 10135.074123 7578.184967 15568.973631 7578.184967 Z M 15568.973631 7578.184967 " stroke="#000000" stroke-width="246.94" stroke-opacity="1" stroke-miterlimit="22.926001"/><path stroke-linecap="round" transform="matrix(0.01345, 0, 0, 0.01345, -25.801102, -14.067203)" fill="none" stroke-linejoin="round" d="M 13010.887748 10498.724279 C 13010.887748 10519.635061 13008.854755 10540.255416 13004.788769 10560.585344 C 13000.722784 10580.915272 12994.623805 10600.954772 12986.782261 10620.122989 C 12978.65029 10639.291207 12969.06618 10657.588141 12957.449078 10675.013794 C 12945.831976 10692.149018 12932.762736 10708.41296 12917.950931 10722.934337 C 12903.139126 10737.746142 12887.165611 10750.815381 12870.030385 10762.432482 C 12852.604732 10774.049584 12834.307796 10783.633692 12815.139577 10791.765664 C 12795.971359 10799.607207 12775.931858 10805.706185 12755.601929 10809.772171 C 12735.272001 10813.838156 12714.651644 10815.871149 12693.740861 10815.871149 C 12672.830077 10815.871149 12652.209721 10813.838156 12631.879792 10809.772171 C 12611.549863 10805.706185 12591.510362 10799.607207 12572.342144 10791.765664 C 12553.173925 10783.633692 12534.876989 10774.049584 12517.451336 10762.432482 C 12500.316111 10750.815381 12484.052168 10737.746142 12469.53079 10722.934337 C 12454.718985 10708.41296 12441.649745 10692.149018 12430.032643 10675.013794 C 12418.415541 10657.588141 12408.831431 10639.291207 12400.69946 10620.122989 C 12392.857916 10600.954772 12386.758937 10580.915272 12382.692952 10560.585344 C 12378.626966 10540.255416 12376.593973 10519.635061 12376.593973 10498.724279 C 12376.593973 10477.813496 12378.626966 10457.193141 12382.692952 10436.863213 C 12386.758937 10416.533286 12392.857916 10396.493786 12400.69946 10377.325568 C 12408.831431 10358.157351 12418.415541 10339.860416 12430.032643 10322.434764 C 12441.649745 10305.299539 12454.718985 10289.326025 12469.53079 10274.51422 C 12484.052168 10259.702416 12500.316111 10246.633177 12517.451336 10235.016075 C 12534.876989 10223.398974 12553.173925 10213.814865 12572.342144 10205.682894 C 12591.510362 10197.84135 12611.549863 10191.742372 12631.879792 10187.676387 C 12652.209721 10183.610401 12672.830077 10181.577408 12693.740861 10181.577408 C 12714.651644 10181.577408 12735.272001 10183.610401 12755.601929 10187.676387 C 12775.931858 10191.742372 12795.971359 10197.84135 12815.139577 10205.682894 C 12834.307796 10213.814865 12852.604732 10223.398974 12870.030385 10235.016075 C 12887.165611 10246.633177 12903.139126 10259.702416 12917.950931 10274.51422 C 12932.762736 10289.326025 12945.831976 10305.299539 12957.449078 10322.434764 C 12969.06618 10339.860416 12978.65029 10358.157351 12986.782261 10377.325568 C 12994.623805 10396.493786 13000.722784 10416.533286 13004.788769 10436.863213 C 13008.854755 10457.193141 13010.887748 10477.813496 13010.887748 10498.724279 Z M 13010.887748 10498.724279 " stroke="#000000" stroke-width="246.94" stroke-opacity="1" stroke-miterlimit="22.926001"/><path stroke-linecap="round" transform="matrix(0.01345, 0, 0, 0.01345, -25.801102, -14.067203)" fill="none" stroke-linejoin="round" d="M 18129.673362 9759.005342 C 18129.673362 9779.916125 18127.640369 9800.53648 18123.574383 9820.866407 C 18119.508397 9841.196335 18113.409419 9861.235835 18105.567875 9880.404052 C 18097.435903 9899.57227 18087.561366 9917.869205 18076.234692 9935.294857 C 18064.61759 9952.430082 18051.54835 9968.694024 18036.736545 9983.215401 C 18021.92474 9998.027205 18005.951224 10011.096444 17988.525571 10022.713546 C 17971.390345 10034.330647 17953.09341 10043.914756 17933.925191 10052.046727 C 17914.466545 10059.88827 17894.717472 10065.987249 17874.387543 10070.053234 C 17853.767187 10074.11922 17833.14683 10076.152212 17812.526474 10076.152212 C 17791.61569 10076.152212 17770.995334 10074.11922 17750.665406 10070.053234 C 17730.045049 10065.987249 17710.295976 10059.88827 17691.127757 10052.046727 C 17671.959539 10043.914756 17653.662603 10034.330647 17636.23695 10022.713546 C 17618.811297 10011.096444 17602.837781 9998.027205 17588.316404 9983.215401 C 17573.504598 9968.694024 17560.435359 9952.430082 17548.818256 9935.294857 C 17537.201154 9917.869205 17527.326618 9899.57227 17519.485074 9880.404052 C 17511.353102 9861.235835 17505.544551 9841.196335 17501.478565 9820.866407 C 17497.41258 9800.53648 17495.379587 9779.916125 17495.379587 9759.005342 C 17495.379587 9738.094559 17497.41258 9717.474204 17501.478565 9697.144277 C 17505.544551 9676.814349 17511.353102 9656.774849 17519.485074 9637.606631 C 17527.326618 9618.438414 17537.201154 9600.141479 17548.818256 9582.715827 C 17560.435359 9565.580602 17573.504598 9549.607088 17588.316404 9534.795283 C 17602.837781 9519.983479 17618.811297 9506.91424 17636.23695 9495.297138 C 17653.662603 9483.680037 17671.959539 9474.095928 17691.127757 9465.963957 C 17710.295976 9458.122414 17730.045049 9452.023435 17750.665406 9447.95745 C 17770.995334 9443.891464 17791.61569 9441.858472 17812.526474 9441.858472 C 17833.14683 9441.858472 17853.767187 9443.891464 17874.387543 9447.95745 C 17894.717472 9452.023435 17914.466545 9458.122414 17933.925191 9465.963957 C 17953.09341 9474.095928 17971.390345 9483.680037 17988.525571 9495.297138 C 18005.951224 9506.91424 18021.92474 9519.983479 18036.736545 9534.795283 C 18051.54835 9549.607088 18064.61759 9565.580602 18076.234692 9582.715827 C 18087.561366 9600.141479 18097.435903 9618.438414 18105.567875 9637.606631 C 18113.409419 9656.774849 18119.508397 9676.814349 18123.574383 9697.144277 C 18127.640369 9717.474204 18129.673362 9738.094559 18129.673362 9759.005342 Z M 18129.673362 9759.005342 " stroke="#000000" stroke-width="246.94" stroke-opacity="1" stroke-miterlimit="22.926001"/><path stroke-linecap="round" transform="matrix(0.01345, 0, 0, 0.01345, -25.801102, -14.067203)" fill="none" stroke-linejoin="round" d="M 15507.983845 9224.328246 C 15507.983845 9248.724159 15505.660424 9272.829645 15500.723156 9296.935131 C 15496.076315 9320.750189 15489.106054 9343.984392 15479.521945 9366.347312 C 15470.228263 9389.00066 15458.901588 9410.492298 15445.251493 9430.822225 C 15431.891826 9450.861725 15416.499166 9469.739515 15399.073513 9486.87474 C 15381.938287 9504.300392 15363.060496 9519.693051 15342.730567 9533.052718 C 15322.400639 9546.702812 15301.199427 9558.319914 15278.546078 9567.613595 C 15256.183157 9576.907276 15232.948952 9583.877537 15208.843466 9588.524378 C 15185.028406 9593.461646 15160.922919 9595.785066 15136.527005 9595.785066 C 15112.131091 9595.785066 15088.025604 9593.461646 15063.920117 9588.524378 C 15040.105058 9583.877537 15016.870853 9576.907276 14994.217504 9567.613595 C 14971.854583 9558.319914 14950.362944 9546.702812 14930.033015 9533.052718 C 14909.703086 9519.693051 14891.115723 9504.300392 14873.69007 9486.87474 C 14856.554844 9469.739515 14841.162184 9450.861725 14827.512089 9430.822225 C 14814.152422 9410.492298 14802.53532 9389.00066 14793.241638 9366.347312 C 14783.947956 9343.984392 14776.977695 9320.750189 14772.040427 9296.935131 C 14767.393586 9272.829645 14765.070165 9248.724159 14765.070165 9224.328246 C 14765.070165 9199.932333 14767.393586 9175.826848 14772.040427 9151.721362 C 14776.977695 9127.906304 14783.947956 9104.672101 14793.241638 9082.309181 C 14802.53532 9059.655833 14814.152422 9038.164195 14827.512089 9017.834268 C 14841.162184 8997.794767 14856.554844 8978.916978 14873.69007 8961.781753 C 14891.115723 8944.356101 14909.703086 8928.963441 14930.033015 8915.603774 C 14950.362944 8901.95368 14971.854583 8890.336579 14994.217504 8881.042898 C 15016.870853 8871.749216 15040.105058 8864.778956 15063.920117 8860.132115 C 15088.025604 8855.194847 15112.131091 8852.871426 15136.527005 8852.871426 C 15160.922919 8852.871426 15185.028406 8855.194847 15208.843466 8860.132115 C 15232.948952 8864.778956 15256.183157 8871.749216 15278.546078 8881.042898 C 15301.199427 8890.336579 15322.400639 8901.95368 15342.730567 8915.603774 C 15363.060496 8928.963441 15381.938287 8944.356101 15399.073513 8961.781753 C 15416.499166 8978.916978 15431.891826 8997.794767 15445.251493 9017.834268 C 15458.901588 9038.164195 15470.228263 9059.655833 15479.521945 9082.309181 C 15489.106054 9104.672101 15496.076315 9127.906304 15500.723156 9151.721362 C 15505.660424 9175.826848 15507.983845 9199.932333 15507.983845 9224.328246 Z M 15507.983845 9224.328246 " stroke="#000000" stroke-width="246.94" stroke-opacity="1" stroke-miterlimit="22.926001"/><path stroke-linecap="round" transform="matrix(0.01345, 0, 0, 0.01345, -25.801102, -14.067203)" fill="none" stroke-linejoin="round" d="M 12693.740861 10815.871149 C 12929.568033 11452.197883 13165.395206 12088.815044 13297.249315 12418.740726 C 13429.103424 12748.666408 13456.694041 12771.900611 13489.802782 12792.230538 C 13522.911523 12812.560466 13561.538388 12829.695691 13623.399456 12809.365763 C 13685.260525 12789.035835 13770.646225 12731.531183 13898.724776 12659.795582 C 14027.093754 12588.350407 14197.865155 12502.964712 14409.296413 12431.519537 C 14620.727672 12359.783936 14872.52836 12302.279283 15107.48425 12258.424725 C 15342.44014 12214.570167 15560.260804 12184.656131 15775.758048 12165.487914 C 15991.54572 12146.319696 16205.009971 12137.897298 16396.1113 12143.124993 C 16587.503058 12148.352689 16755.951038 12167.811334 16906.682938 12197.72537 C 17057.12441 12227.348979 17189.559374 12268.008834 17290.047307 12293.566457 C 17390.244813 12319.414508 17458.495288 12329.869899 17506.706261 12308.668689 C 17554.626808 12287.177052 17582.507853 12234.028812 17638.56037 11855.892159 C 17694.903315 11477.755506 17779.708161 10774.920866 17864.222579 10072.086227 " stroke="#000000" stroke-width="246.94" stroke-opacity="1" stroke-miterlimit="22.926001"/><path stroke-linecap="round" transform="matrix(0.01345, 0, 0, 0.01345, -25.801102, -14.067203)" fill="none" stroke-linejoin="round" d="M 13003.046204 10569.29817 C 13306.542996 10764.755903 13610.039789 10960.213635 13812.177365 11072.899519 C 14014.024514 11185.294976 14114.512448 11215.209012 14197.865155 11194.007802 C 14281.217863 11172.516165 14347.144917 11099.90928 14441.243444 10913.164374 C 14535.341971 10726.419468 14657.031116 10425.246112 14751.42007 10180.706126 C 14845.809025 9936.456567 14912.607362 9748.840378 14979.696127 9561.224189 " stroke="#000000" stroke-width="246.94" stroke-opacity="1" stroke-miterlimit="22.926001"/><path stroke-linecap="round" transform="matrix(0.01345, 0, 0, 0.01345, -25.801102, -14.067203)" fill="none" stroke-linejoin="round" d="M 15385.423418 9499.943979 C 15654.068904 9894.925429 15922.71439 10289.616452 16101.327335 10523.991474 C 16279.940279 10758.366497 16368.520683 10831.844664 16446.936122 10864.662975 C 16525.351561 10897.190859 16593.892464 10888.478033 16676.083461 10836.201077 C 16758.274458 10783.92412 16854.405978 10687.792605 17000.781465 10528.638315 C 17147.447379 10369.193597 17344.647687 10146.726104 17541.847995 9924.258611 " stroke="#000000" stroke-width="246.94" stroke-opacity="1" stroke-miterlimit="22.926001"/><path stroke-linecap="round" transform="matrix(0.01345, 0, 0, 0.01345, -25.801102, -14.067203)" fill="none" stroke-linejoin="round" d="M 8330.357311 15987.223873 C 8291.149591 16289.849367 8298.41028 16861.410759 8313.512513 17150.676586 C 8328.324318 17440.232841 8350.977667 17447.783957 8384.376836 17453.30208 C 8418.066432 17458.820203 8462.792275 17462.595761 8565.603629 17427.163601 C 8668.414982 17391.731442 8829.021419 17317.091565 9009.957784 17197.43542 C 9191.184577 17078.069702 9393.031726 16913.687716 9519.948566 16769.926085 C 9646.865407 16625.874027 9699.142366 16502.732751 9727.313839 16370.007367 C 9755.194884 16237.57241 9758.970442 16095.553344 9732.831962 15981.70575 C 9706.693483 15867.858155 9650.640965 15781.891604 9598.364005 15724.096524 C 9546.087046 15666.011017 9497.585645 15636.096981 9390.998733 15611.991495 C 9284.702249 15587.595582 9120.320254 15569.00822 8969.007499 15570.750785 C 8817.694744 15572.783778 8679.451229 15595.146698 8567.346194 15623.027742 C 8455.531586 15651.199213 8369.565031 15684.888807 8330.357311 15987.223873 Z M 8330.357311 15987.223873 " stroke="#000000" stroke-width="246.94" stroke-opacity="1" stroke-miterlimit="22.926001"/><path stroke-linecap="round" transform="matrix(0.01345, 0, 0, 0.01345, -25.801102, -14.067203)" fill="none" stroke-linejoin="round" d="M 6673.177696 15792.927851 C 6653.428623 15878.894402 6660.979739 15996.807982 6705.124727 16102.523605 C 6749.269715 16208.239229 6830.299002 16301.466468 6904.0676 16343.288033 C 6977.836199 16384.819171 7044.053681 16375.235062 7118.983989 16329.637939 C 7193.914298 16284.331243 7277.267005 16203.30196 7322.864131 16158.866547 C 7368.170829 16114.721562 7375.721946 16107.460873 7371.946388 16512.607287 C 7368.170829 16917.753702 7353.359024 17735.888073 7342.322777 18448.016394 C 7331.28653 19160.144715 7324.025841 19766.84784 7336.223799 20090.964971 C 7348.712183 20415.37253 7380.368787 20456.903667 7433.226601 20486.527276 C 7486.084416 20515.860457 7559.853014 20533.28611 7655.694106 20528.348842 C 7751.244771 20523.411573 7869.158358 20496.401812 7962.676029 20459.517515 C 8055.903274 20422.633218 8124.734604 20375.874385 8183.691397 20326.792131 C 8242.64819 20277.709877 8291.730447 20226.304203 8316.126361 19909.44776 C 8340.812703 19592.591317 8340.812703 19010.574533 8341.974413 18719.275714 C 8343.136123 18428.267321 8345.749971 18428.267321 8427.940969 18405.033119 C 8510.422394 18381.798916 8672.480968 18335.040082 8759.609234 18315.29101 C 8846.737499 18295.832365 8858.935457 18303.093053 8887.397357 18333.878372 C 8915.568829 18364.373263 8959.713817 18418.392785 9067.752867 18591.778025 C 9175.791916 18764.872837 9347.725028 19057.042939 9520.819849 19312.619172 C 9694.205098 19567.904977 9868.461629 19786.596912 10061.305524 19966.952413 C 10254.149419 20147.598341 10465.29025 20289.907834 10648.259608 20374.712674 C 10831.228966 20459.517515 10986.026852 20486.527276 11126.012932 20482.751718 C 11265.999012 20479.266588 11391.173287 20444.705711 11512.862432 20384.587211 C 11634.261149 20324.468711 11752.174735 20238.50216 11839.303001 20159.796297 C 11926.721694 20081.380862 11983.064639 20009.935688 12006.298844 19931.520253 C 12029.823475 19852.81439 12019.948939 19766.84784 11992.939176 19721.541144 C 11965.929414 19675.94402 11921.784426 19671.006752 11840.755139 19671.006752 C 11759.725852 19671.006752 11641.812265 19675.94402 11533.773216 19653.871528 C 11425.443739 19631.799035 11327.279226 19582.716781 11210.817777 19504.010919 C 11094.065901 19425.595484 10959.017089 19317.55644 10822.516139 19189.768323 C 10686.305617 19061.980207 10548.642957 18914.733446 10413.594145 18732.925808 C 10278.545334 18551.11817 10146.11037 18335.040082 10055.206546 18186.341183 C 9964.302722 18037.932712 9915.220465 17956.903429 9864.686071 17905.207327 C 9814.442105 17853.511226 9762.746 17831.438733 9737.188376 17811.980088 C 9711.340323 17792.231015 9711.340323 17775.095791 9730.798969 17749.24774 C 9750.548043 17723.399689 9789.755763 17689.12924 9895.471392 17599.387131 C 10001.187021 17509.645022 10173.120132 17365.012109 10304.393386 17229.672876 C 10435.666639 17094.624072 10526.570463 16969.449803 10589.302815 16835.562709 C 10652.035166 16701.675614 10686.305617 16559.366121 10709.539822 16403.406533 C 10733.064453 16247.446946 10745.26241 16077.837265 10729.288895 15902.419032 C 10713.31538 15726.710372 10669.170392 15544.902734 10586.979394 15385.458016 C 10504.497969 15225.722871 10384.260963 15088.060218 10262.571818 14992.509559 C 10141.173101 14896.668472 10018.322246 14842.64895 9896.633102 14805.764652 C 9775.234385 14768.880355 9654.706951 14749.131283 9482.77384 14744.194015 C 9310.840728 14739.256746 9087.501941 14749.131283 8852.836478 14778.754891 C 8618.461443 14808.088073 8372.759734 14857.170326 8140.708119 14922.226095 C 7908.656505 14987.572291 7689.964558 15068.601573 7487.246126 15165.604371 C 7284.818122 15262.607168 7098.073206 15375.58348 6983.935177 15450.513785 C 6869.506722 15525.444089 6827.975582 15562.037959 6783.540166 15607.635082 C 6739.395178 15652.941778 6692.92677 15706.9613 6673.177696 15792.927851 Z M 6673.177696 15792.927851 " stroke="#000000" stroke-width="246.94" stroke-opacity="1" stroke-miterlimit="22.926001"/><path stroke-linecap="round" transform="matrix(0.01345, 0, 0, 0.01345, -25.801102, -14.067203)" fill="none" stroke-linejoin="round" d="M 11841.335994 14596.075971 C 12154.707323 14547.284145 12722.202761 14463.931441 13037.89751 14427.047144 C 13353.59226 14390.162847 13417.486321 14400.037383 13459.017461 14419.496028 C 13500.839029 14439.245101 13520.588103 14468.86871 13536.561618 14542.346876 C 13552.535133 14616.115471 13564.733091 14734.029051 13571.993779 14819.995602 C 13579.544896 14905.962153 13581.868316 14959.981675 13563.57138 15007.902218 C 13544.984017 15055.822762 13505.776297 15097.644327 13273.724683 15142.951023 C 13041.673068 15188.548146 12616.487132 15237.6304 12391.986633 15264.640161 C 12167.195708 15291.649922 12142.509366 15296.58719 12126.53585 15447.609509 C 12110.562335 15598.631828 12103.301646 15895.739199 12099.526088 16064.18717 C 12095.75053 16232.344714 12095.75053 16271.552432 12100.687798 16297.400482 C 12105.625067 16323.248533 12115.499603 16335.44649 12278.719888 16315.987845 C 12442.2306 16296.238772 12759.08706 16244.542671 12940.894708 16221.308468 C 13122.702356 16198.074265 13169.170764 16203.011533 13208.668911 16216.3712 C 13247.876631 16230.021294 13279.823662 16252.093787 13304.510004 16308.436729 C 13328.905918 16365.070099 13346.041144 16455.973918 13349.816702 16541.940469 C 13353.59226 16627.90702 13343.717723 16708.936302 13328.905918 16769.054803 C 13314.094113 16829.173303 13294.635467 16868.671448 13088.141477 16922.69097 C 12881.937915 16976.710492 12488.989436 17045.25139 12287.432715 17087.072956 C 12086.166421 17128.894521 12076.291884 17143.706325 12073.678036 17298.504203 C 12071.354615 17453.011652 12076.291884 17747.795602 12078.615304 17909.854168 C 12081.229152 18072.203161 12081.229152 18101.536342 12099.526088 18123.608835 C 12118.113451 18145.681328 12154.707323 18160.493132 12340.290529 18136.097219 C 12525.583308 18111.410879 12859.865421 18047.51682 13080.880788 18002.210125 C 13301.896156 17956.613001 13409.935205 17929.60324 13493.57834 17916.243574 C 13576.931048 17902.593479 13635.887841 17902.593479 13678.871119 17913.629726 C 13721.854397 17924.665972 13748.864159 17946.738465 13766.289812 18004.533545 C 13783.425038 18062.328625 13790.685727 18155.555864 13799.398553 18251.396951 C 13807.820952 18347.238039 13817.695489 18445.402546 13806.659242 18515.395583 C 13795.622995 18585.388619 13763.675964 18627.210184 13537.723328 18694.8798 C 13311.770692 18762.258989 12891.812451 18855.776656 12546.494091 18934.192091 C 12201.466159 19012.897953 11931.368535 19076.792012 11754.498156 19092.765526 C 11577.627776 19108.739041 11493.984641 19076.792012 11417.892622 19022.77249 C 11341.800603 18968.752968 11272.969273 18892.660953 11239.860532 18800.304996 C 11206.751791 18708.239467 11209.075212 18600.200423 11214.01248 17964.164117 C 11218.949749 17327.837384 11226.210437 16163.513388 11229.985996 15581.496604 C 11233.761554 14999.189392 11233.761554 14999.189392 11233.761554 14999.189392 C 11233.761554 14999.189392 11233.761554 14999.189392 11236.375402 14965.790225 C 11239.279677 14932.391059 11244.797801 14865.592725 11274.130984 14811.573203 C 11303.464166 14757.263254 11356.321981 14715.441688 11412.664926 14687.270217 C 11468.717444 14659.389174 11527.964665 14645.158224 11841.335994 14596.075971 Z M 11841.335994 14596.075971 " stroke="#000000" stroke-width="246.94" stroke-opacity="1" stroke-miterlimit="22.926001"/><path stroke-linecap="round" transform="matrix(0.01345, 0, 0, 0.01345, -25.801102, -14.067203)" fill="none" stroke-linejoin="round" d="M 14423.527364 14077.953245 C 14506.008788 14069.821274 14572.22627 14069.821274 14619.856389 14086.085216 C 14667.486508 14102.05873 14696.529263 14134.586614 14833.030213 14439.825956 C 14969.531162 14745.065297 15213.490306 15323.306523 15335.469879 15614.024488 C 15457.449451 15904.742452 15457.449451 15908.227583 15482.42622 15852.465496 C 15507.40299 15796.703409 15557.646956 15681.984532 15693.276623 15370.065357 C 15828.90629 15058.43661 16050.212085 14549.607565 16168.125672 14277.476963 C 16286.039258 14005.34636 16300.560636 13969.623773 16320.019282 13937.386317 C 16339.477928 13905.14886 16363.583415 13876.106106 16390.302749 13854.324041 C 16416.731657 13832.541976 16446.064839 13818.020599 16554.103889 13809.888628 C 16662.433366 13801.756657 16849.759138 13800.014092 16963.606738 13800.885374 C 17077.454339 13801.756657 17117.823769 13804.95136 17145.414386 13821.215302 C 17172.714576 13837.188817 17187.235954 13866.23157 17193.915787 13889.756201 C 17200.305193 13913.280831 17198.562628 13930.996911 17011.236857 14393.067122 C 16823.911085 14854.846906 16450.71168 15760.980822 16256.996503 16237.57241 C 16062.990898 16714.163998 16048.46952 16760.922832 16035.690708 16824.81689 C 16022.621468 16888.710948 16011.294793 16969.449803 15992.126575 17305.184036 C 15972.667929 17641.208696 15945.077311 18232.519162 15923.295245 18539.501068 C 15901.513178 18846.192547 15885.539663 18868.845895 15828.90629 18911.829171 C 15772.272918 18954.522019 15675.560543 19017.544794 15549.514985 19052.976954 C 15423.469427 19088.699541 15268.381114 19096.541084 15160.051637 19082.89099 C 15052.012587 19069.240896 14990.441946 19033.808736 14965.465177 18911.829171 C 14940.488407 18789.849605 14951.815082 18581.322633 14968.079025 18248.783104 C 14984.05254 17915.953146 15004.963324 17458.820203 15013.966578 17215.732354 C 15022.969832 16972.644506 15019.775129 16943.601752 14833.901495 16546.877737 C 14648.027862 16150.444149 14279.765725 15386.329299 14081.984562 14962.305095 C 13884.203398 14538.280891 13856.612781 14454.347333 13853.418078 14389.001137 C 13850.223375 14323.364513 13871.134159 14276.60568 13923.701546 14234.784115 C 13976.268933 14192.672122 14060.202495 14155.497397 14151.396747 14128.778064 C 14242.590998 14102.05873 14341.336366 14086.085216 14423.527364 14077.953245 Z M 14423.527364 14077.953245 " stroke="#000000" stroke-width="246.94" stroke-opacity="1" stroke-miterlimit="22.926001"/><path stroke-linecap="round" transform="matrix(0.01345, 0, 0, 0.01345, -25.801102, -14.067203)" fill="none" stroke-linejoin="round" d="M 17667.893553 13890.337056 C 17771.285762 13857.809172 17937.700749 13825.571715 18054.743053 13814.245041 C 18172.075784 13802.918367 18239.745404 13812.792903 18291.441508 13840.093092 C 18343.137613 13867.683708 18378.860202 13912.699976 18578.093503 14339.338028 C 18777.617231 14765.685652 19141.232527 15573.364633 19334.947705 15991.870714 C 19528.95331 16410.376794 19553.058797 16439.419548 19566.999319 16453.069642 C 19580.649414 16466.719737 19583.844117 16465.267599 19590.233523 16456.264345 C 19596.62293 16447.261092 19606.497466 16431.287577 19631.474236 15982.286605 C 19656.451005 15532.995205 19696.820435 14650.966775 19720.345067 14193.833832 C 19743.869699 13736.700889 19750.259105 13704.463432 19772.041171 13660.899302 C 19793.823238 13617.335171 19830.997964 13562.153939 19877.7568 13528.464345 C 19924.806064 13494.484323 19981.149009 13481.415084 20081.346515 13472.702258 C 20181.54402 13463.699004 20325.305659 13458.761736 20418.242476 13464.570287 C 20511.179292 13470.08841 20553.00086 13486.352352 20578.848912 13515.395106 C 20604.696964 13544.437859 20614.571501 13586.549852 20591.918152 14361.120093 C 20569.264803 15135.690334 20514.373996 16642.718824 20483.588675 17423.968899 C 20452.803354 18204.928546 20446.413948 18259.81935 20428.697868 18304.254763 C 20410.981787 18348.690176 20381.939032 18382.670198 20250.084923 18401.257561 C 20118.521241 18419.844923 19884.146207 18423.039626 19750.259105 18415.778937 C 19616.081576 18408.518249 19582.101552 18390.802169 19466.801814 18198.53914 C 19351.211648 18006.27611 19154.011339 17639.466131 18949.84077 17239.83784 C 18745.379773 16839.919122 18533.948515 16406.891664 18419.810487 16185.585881 C 18305.962886 15964.280098 18289.989371 15954.695989 18275.467993 15955.567271 C 18260.946615 15956.438554 18247.877375 15967.4748 18231.613433 16396.436273 C 18215.639917 16825.397745 18196.181271 17671.994015 18183.983314 18118.671567 C 18172.075784 18565.058691 18167.138516 18612.107952 18146.227732 18653.348663 C 18125.026521 18694.298945 18087.851794 18730.021532 18035.574835 18758.193004 C 17983.007448 18786.364475 17915.0474 18807.565685 17830.242555 18818.021076 C 17745.43771 18828.476467 17643.788066 18828.476467 17564.501344 18814.826373 C 17485.50505 18800.885851 17428.871677 18773.585663 17386.178827 18741.929061 C 17343.195549 18710.562887 17314.152794 18675.130728 17300.502699 18616.754793 C 17286.852604 18558.669286 17288.304742 18477.93043 17309.215526 17723.690117 C 17330.416737 16969.159376 17370.786167 15541.127176 17403.023625 14806.05508 C 17435.261083 14070.982984 17459.656998 14029.161418 17491.894456 13991.986694 C 17524.131915 13954.811969 17564.501344 13922.574512 17667.893553 13890.337056 Z M 17667.893553 13890.337056 " stroke="#000000" stroke-width="246.94" stroke-opacity="1" stroke-miterlimit="22.926001"/><path stroke-linecap="round" transform="matrix(0.01345, 0, 0, 0.01345, -25.801102, -14.067203)" fill="none" stroke-linejoin="round" d="M 22082.973207 16467.881447 C 22064.676271 16456.554773 22063.514561 16435.063135 22135.250166 16096.715054 C 22206.695344 15758.076546 22351.037838 15102.581595 22424.516009 14772.075058 C 22497.994179 14441.278093 22500.608027 14435.75997 22504.964441 14438.664246 C 22509.320854 14441.278093 22514.838978 14452.604767 22588.317148 14769.170783 C 22661.795319 15085.736798 22802.94311 15707.251727 22873.807432 16018.009192 C 22944.381328 16329.057084 22944.381328 16329.057084 22926.084392 16342.997606 C 22907.497029 16357.228555 22870.903157 16385.400026 22746.600164 16410.957649 C 22622.297172 16436.224845 22410.285059 16458.878193 22300.213016 16470.204867 C 22189.850546 16481.531541 22181.428147 16481.531541 22159.355653 16480.950686 C 22136.992732 16480.369831 22101.270143 16479.208121 22082.973207 16467.881447 Z M 22082.973207 16467.881447 " stroke="#000000" stroke-width="246.94" stroke-opacity="1" stroke-miterlimit="22.926001"/><path stroke-linecap="round" transform="matrix(0.01345, 0, 0, 0.01345, -25.801102, -14.067203)" fill="none" stroke-linejoin="round" d="M 22090.524323 17243.903826 C 22274.655392 17211.956796 22613.00349 17162.00326 22797.715414 17142.254188 C 22982.13691 17122.795543 23012.631803 17133.831789 23046.902254 17248.550666 C 23081.172705 17363.559971 23118.928287 17582.251906 23161.911565 17785.260755 C 23204.604415 17987.979175 23252.234533 18175.014509 23288.828405 18290.023814 C 23325.712704 18404.742691 23351.270329 18447.435539 23385.54078 18487.804967 C 23419.811231 18528.174394 23462.504082 18566.220402 23517.975744 18598.457858 C 23573.737834 18630.985742 23641.988309 18657.705076 23723.308024 18671.064742 C 23804.627738 18684.714837 23898.726265 18684.714837 23996.600351 18664.384909 C 24094.184008 18644.345409 24195.833652 18603.975981 24256.823438 18560.121423 C 24317.813224 18515.976438 24338.724008 18468.346322 24346.565551 18437.85143 C 24354.697523 18407.356539 24349.760255 18393.706445 24160.40149 17562.212406 C 23970.752298 16730.42794 23596.972038 15080.79953 23386.70249 14224.038296 C 23176.432942 13367.277062 23129.964534 13303.673431 23080.59185 13259.238018 C 23030.928738 13214.512177 22978.651779 13188.954554 22888.619238 13178.499163 C 22798.877124 13168.043771 22671.669856 13172.981039 22552.594559 13184.598141 C 22433.519263 13196.215242 22322.28551 13214.512177 22241.546651 13244.426214 C 22160.807791 13274.34025 22110.854252 13315.871388 22072.808243 13357.402525 C 22035.052661 13398.933663 22009.495036 13440.755229 21872.413231 13917.346817 C 21735.621854 14393.938405 21487.596724 15305.590444 21284.587865 16082.193678 C 21081.869433 16858.796912 20924.167272 17500.351341 20841.685847 17841.313269 C 20759.204422 18182.275198 20751.943734 18222.644625 20760.366133 18264.175763 C 20769.078959 18305.706901 20793.474874 18348.690176 20853.883805 18387.026611 C 20914.292735 18425.653474 21011.00511 18459.923923 21115.559029 18478.220858 C 21219.822521 18496.517793 21332.217984 18498.841213 21423.412235 18488.385822 C 21514.316059 18478.220858 21584.018672 18454.986655 21633.100928 18412.003379 C 21681.892757 18369.310531 21710.064229 18307.159039 21742.301688 18118.671567 C 21774.829574 17930.474523 21811.423445 17616.522356 21844.532186 17452.721225 C 21877.3505 17288.920094 21906.683682 17275.560427 22090.524323 17243.903826 Z M 22090.524323 17243.903826 " stroke="#000000" stroke-width="246.94" stroke-opacity="1" stroke-miterlimit="22.926001"/><path stroke-linecap="round" transform="matrix(0.0144243, 0.00418138, -0.00418138, 0.0144243, 196.430528, 281.511282)" fill="none" stroke-linejoin="round" d="M 512.865712 0.0335544 C 512.781189 89.425369 509.44175 177.865062 502.919813 265.602448 C 496.325458 353.090017 486.613731 438.231542 473.784634 521.027021 C 460.883118 603.572683 445.106757 681.806325 426.350569 756.300001 C 407.521964 830.543859 386.278293 899.259174 362.619557 962.445947 C 338.711003 1025.705138 312.847164 1082.219264 284.955621 1131.738507 C 256.886679 1181.579985 227.322231 1223.459874 196.334696 1257.627993 C 165.097343 1291.86853 133.041518 1317.680407 100.167222 1335.063625 C 67.043108 1352.51926 33.527739 1361.151583 -0.0566499 1361.137993 C -33.641039 1361.124402 -67.044631 1352.39248 -99.94519 1335.119626 C -133.167985 1317.669372 -165.065877 1291.71075 -196.315901 1257.71083 C -227.388525 1223.388674 -256.846576 1181.557419 -284.834888 1131.717429 C -312.750782 1082.127257 -338.834848 1025.777436 -362.587451 962.523131 C -386.340054 899.268826 -407.648922 830.431541 -426.441637 756.261093 C -444.984534 682.018228 -460.971423 603.513886 -473.830252 520.85305 C -486.616663 438.442031 -496.412558 353.268439 -502.895701 265.509675 C -509.628662 177.823328 -512.791763 89.372947 -512.70724 -0.0188682 C -512.872534 -89.338265 -509.533095 -177.777957 -503.011157 -265.515344 C -496.239403 -353.325148 -486.527677 -438.466673 -473.626161 -521.012335 C -460.974463 -603.485579 -445.020703 -682.041456 -426.441914 -756.212896 C -407.613309 -830.456754 -386.442056 -899.421887 -362.461084 -962.431261 C -338.802348 -1025.618034 -312.938508 -1082.132159 -284.797148 -1131.72382 C -256.978024 -1181.49288 -227.413576 -1223.37277 -196.176223 -1257.613307 C -165.188688 -1291.781426 -133.132863 -1317.593303 -100.008749 -1335.048938 C -66.884636 -1352.504574 -33.691502 -1361.314296 -0.107113 -1361.300706 C 33.727093 -1361.359533 66.880868 -1352.555193 100.103663 -1335.104939 C 133.07664 -1317.582268 165.224349 -1291.696064 196.224556 -1257.623726 C 227.297181 -1223.30157 256.755231 -1181.470315 284.920942 -1131.95256 C 312.909254 -1082.112571 338.743503 -1025.690332 362.496106 -962.436027 C 386.498527 -899.25414 407.734977 -830.666672 426.350292 -756.173989 C 445.143007 -682.003541 460.880079 -603.426782 473.666489 -521.015763 C 486.525318 -438.354927 496.321213 -353.181335 503.054174 -265.494988 C 509.464899 -177.986041 512.700419 -89.285843 512.865712 0.0335544 Z M 512.865712 0.0335544 " stroke="#000000" stroke-width="246.94" stroke-opacity="1" stroke-miterlimit="22.926001"/><path stroke-linecap="round" transform="matrix(0.01345, 0, 0, 0.01345, -25.801102, -14.067203)" fill="none" stroke-linejoin="round" d="M 12818.043853 20224.27121 C 12889.198603 20213.234964 12977.779007 20213.234964 13046.610337 20220.495652 C 13115.441667 20228.046768 13164.814351 20242.568145 13200.53694 20262.317218 C 13235.969101 20282.06629 13258.332023 20306.462203 13277.790669 20329.986834 C 13297.539742 20353.221037 13314.674968 20375.583957 13250.780906 20654.68482 C 13186.886845 20933.785683 13041.673068 21469.914916 12969.356608 21751.629627 C 12896.74972 22033.053911 12896.74972 22060.063672 12910.109387 22078.651034 C 12923.759482 22096.947969 12950.769245 22106.822505 13105.857558 22094.624549 C 13260.655443 22082.426592 13543.531879 22047.865715 13703.267033 22023.179374 C 13863.292615 21998.783461 13900.176914 21983.971657 13977.72107 21702.256946 C 14054.974799 21420.832663 14173.178813 20872.215045 14253.04639 20571.041689 C 14332.913967 20269.577906 14374.735535 20215.558384 14420.33266 20174.898529 C 14465.929786 20134.529101 14515.012043 20107.51934 14609.691425 20098.806514 C 14704.370807 20090.093688 14844.647315 20099.968224 14925.095747 20112.166181 C 15005.834606 20124.07371 15026.74539 20138.595087 15043.880616 20161.82929 C 15061.015841 20185.35392 15074.665936 20217.591377 14934.970284 20921.297299 C 14795.274631 21624.712794 14502.814085 22999.596754 14340.465083 23696.91327 C 14178.116082 24394.229787 14146.169051 24413.978859 14057.588647 24427.338526 C 13969.008244 24440.98862 13823.794467 24448.249308 13716.917128 24436.051352 C 13610.039789 24423.562968 13540.918031 24391.615939 13497.934754 24360.83062 C 13454.951476 24330.335728 13437.81625 24300.71212 13435.202402 24220.844547 C 13432.878982 24140.976974 13445.076939 24010.57501 13488.060217 23786.655379 C 13531.333922 23562.735748 13605.10252 23245.588878 13645.47195 23052.454566 C 13686.131808 22859.610681 13693.392496 22790.488927 13689.907366 22752.44292 C 13686.131808 22714.396913 13671.320002 22707.136224 13520.007248 22725.433159 C 13368.98492 22744.020521 13081.171216 22788.165507 12923.759482 22820.112536 C 12766.347749 22852.059565 12739.337986 22871.808638 12669.054519 23215.965269 C 12599.061478 23560.412328 12486.08516 24229.266946 12423.352809 24583.588541 C 12360.620458 24937.619708 12348.132073 24977.117853 12319.9606 25017.487281 C 12291.789128 25058.147136 12247.353712 25099.968701 12161.387157 25124.655042 C 12075.130174 25149.341383 11947.34205 25156.602071 11840.464711 25128.4306 C 11733.296944 25099.968701 11647.330389 25036.074643 11600.571553 24979.441274 C 11553.812717 24922.807904 11546.552028 24873.72565 11612.76951 24479.034627 C 11679.277419 24084.343605 11819.553927 23344.043813 11981.902929 22618.555825 C 12143.961504 21893.067838 12328.673427 21182.101227 12431.775208 20803.383719 C 12535.167417 20424.666211 12557.239911 20377.907377 12578.150695 20345.960348 C 12599.061478 20314.013319 12618.810552 20296.878095 12655.694851 20277.129022 C 12692.57915 20257.37995 12746.598675 20235.307457 12818.043853 20224.27121 Z M 12818.043853 20224.27121 " stroke="#000000" stroke-width="246.94" stroke-opacity="1" stroke-miterlimit="22.926001"/><path stroke-linecap="round" transform="matrix(0.0112064, 0.00785276, -0.00659439, 0.0141622, 196.251642, 281.828741)" fill="none" stroke-linejoin="round" d="M 1425.917907 0.0859668 C 1425.892949 61.056624 1423.679191 121.86183 1419.013815 182.647316 C 1414.348438 243.432801 1407.634704 303.69914 1398.609792 363.592063 C 1389.322062 423.630715 1378.004038 482.58856 1364.637655 541.027257 C 1350.886077 599.403719 1335.226581 656.907338 1317.414415 713.122183 C 1299.461807 769.690724 1279.619347 824.824761 1257.501838 878.462057 C 1235.506706 932.30732 1211.621723 984.718078 1185.724509 1035.486366 C 1159.704918 1086.046688 1131.795475 1135.172506 1102.39944 1182.364395 C 1072.618209 1229.494047 1041.350386 1274.689769 1008.210775 1317.889325 C 975.333982 1360.943152 940.585402 1402.000812 904.490671 1440.770847 C 868.39594 1479.540882 831.095501 1515.669595 792.186092 1549.656413 C 753.276683 1583.64323 713.424384 1614.842996 672.225935 1643.755137 C 630.905109 1672.459311 588.76377 1698.5844 545.679541 1721.922437 C 502.595312 1745.260475 458.568193 1765.811461 413.861003 1783.429666 C 369.27619 1801.255836 324.011306 1816.149226 278.32917 1827.964104 C 232.384215 1839.924712 186.284827 1848.661079 139.750122 1854.880597 C 93.355859 1860.746419 46.666721 1863.741696 -0.0544736 1863.720697 C -46.775668 1863.699699 -93.406541 1860.870392 -139.806651 1854.879079 C -186.206761 1848.887767 -232.376108 1839.734449 -278.332757 1827.980789 C -324.026587 1816.081399 -369.367277 1801.227969 -413.96963 1783.482737 C -458.571984 1765.737505 -502.69882 1745.2462 -545.702124 1721.925328 C -588.705427 1698.604456 -630.970395 1672.391781 -672.252271 1643.703235 C -713.271329 1614.86896 -753.307296 1583.558813 -792.097353 1549.627066 C -830.88741 1515.695319 -868.571998 1479.495666 -904.625481 1440.736649 C -940.678964 1401.977632 -975.241783 1361.012947 -1008.313937 1317.842592 C -1041.386091 1274.672237 -1072.460007 1229.566416 -1102.306078 1182.400655 C -1131.88933 1135.089165 -1159.614786 1086.195904 -1185.604823 1035.512905 C -1211.594859 984.829907 -1235.464281 932.419408 -1257.475906 878.427138 C -1279.627973 824.788564 -1299.537047 769.630455 -1317.343571 713.306507 C -1335.272472 656.774594 -1350.854067 599.492773 -1364.333111 541.045113 C -1378.074975 482.743183 -1389.329091 423.33765 -1398.376343 363.535906 C -1407.686414 303.879891 -1414.386361 243.32824 -1419.019885 182.734074 C -1423.775787 121.931941 -1425.817251 61.0038 -1425.792293 0.0331426 C -1425.889712 -61.14548 -1423.675955 -121.950687 -1419.010578 -182.736172 C -1414.345202 -243.521658 -1407.631467 -303.787997 -1398.484178 -363.472954 C -1389.459267 -423.365876 -1378.000801 -482.677416 -1364.512041 -540.908148 C -1350.88284 -599.492575 -1335.100968 -656.788229 -1317.411178 -713.21104 C -1299.336193 -769.571614 -1279.493733 -824.705651 -1257.498601 -878.550914 C -1235.50347 -932.396176 -1211.496109 -984.598968 -1185.598895 -1035.367257 C -1159.701682 -1086.135545 -1131.792239 -1135.261363 -1102.273826 -1182.245285 C -1072.614973 -1229.582903 -1041.347149 -1274.778626 -1008.207538 -1317.978182 C -975.330746 -1361.032008 -940.582165 -1402.089669 -904.487435 -1440.859704 C -868.533145 -1479.276043 -831.092264 -1515.758452 -792.182855 -1549.745269 C -753.273447 -1583.732087 -713.421148 -1614.931853 -672.100321 -1643.636027 C -630.901872 -1672.548167 -588.760533 -1698.673256 -545.676304 -1722.011294 C -502.592075 -1745.349331 -458.564956 -1765.900317 -413.857766 -1783.518522 C -369.272953 -1801.344693 -323.885692 -1816.030116 -278.203556 -1827.844995 C -232.258601 -1839.805603 -186.28159 -1848.749936 -139.624508 -1854.761488 C -93.352622 -1860.835276 -46.663484 -1863.830552 0.0577102 -1863.809554 C 46.778904 -1863.788556 93.146958 -1860.813518 139.932265 -1854.75997 C 186.332375 -1848.768657 232.379345 -1839.823306 278.073175 -1827.923916 C 324.029824 -1816.170255 369.107695 -1801.171096 413.972867 -1783.571594 C 458.57522 -1765.826362 502.439238 -1745.189327 545.70536 -1722.014184 C 588.831041 -1698.485347 630.973631 -1672.480638 672.255508 -1643.792092 C 713.274565 -1614.957816 753.310532 -1583.64767 792.100589 -1549.715923 C 830.890646 -1515.784175 868.312416 -1479.438793 904.628718 -1440.825506 C 940.682201 -1402.066489 975.245019 -1361.101803 1008.317173 -1317.931448 C 1041.389328 -1274.761094 1072.585621 -1229.447306 1102.309315 -1182.489512 C 1131.892567 -1135.178021 1159.618022 -1086.28476 1185.608059 -1035.601762 C 1211.457654 -984.565068 1235.467517 -932.508265 1257.479143 -878.515995 C 1279.63121 -824.877421 1299.540284 -769.719312 1317.469185 -713.187398 C 1335.275708 -656.86345 1350.979681 -599.373663 1364.458725 -540.926003 C 1378.200589 -482.624073 1389.332327 -423.426506 1398.37958 -363.624762 C 1407.549209 -303.615052 1414.389598 -243.417097 1419.145499 -182.614964 C 1423.516205 -121.875068 1425.820488 -61.092656 1425.917907 0.0859668 Z M 1425.917907 0.0859668 " stroke="#000000" stroke-width="246.94" stroke-opacity="1" stroke-miterlimit="22.926001"/><path stroke-linecap="round" transform="matrix(0.01345, 0, 0, 0.01345, -25.801102, -14.067203)" fill="none" stroke-linejoin="round" d="M 18690.488966 19491.522534 C 19128.453715 19409.041114 19955.300957 19258.890077 20408.077511 19190.058751 C 20860.854066 19121.227425 20939.559933 19133.425381 20995.031595 19156.659584 C 21050.503258 19180.184215 21082.450288 19214.745092 21100.747224 19260.051787 C 21119.334588 19305.648911 21124.271856 19362.28228 21125.433566 19427.628476 C 21126.595276 19492.684245 21124.271856 19566.452839 21109.460051 19623.086209 C 21094.648246 19679.719578 21067.638483 19719.217723 21024.655205 19752.326463 C 20981.671928 19785.435202 20922.424707 19812.73539 20741.488342 19842.068572 C 20560.842404 19871.69218 20257.926467 19903.639209 20093.254044 19924.549992 C 19928.291195 19945.460775 19901.281432 19955.335311 19882.694069 20000.932434 C 19864.397133 20046.529558 19854.522596 20127.55884 19720.345067 20747.91206 C 19586.167538 21367.974851 19327.687016 22527.071151 19183.925377 23126.22316 C 19039.873311 23725.665596 19010.249701 23764.873314 18972.203692 23798.272481 C 18934.157682 23831.38122 18887.398846 23858.390981 18811.0164 23864.489959 C 18734.633954 23870.879365 18628.918324 23856.067561 18537.724073 23831.38122 C 18446.820249 23806.694879 18370.437803 23772.42443 18332.391793 23705.916524 C 18294.055356 23639.408618 18294.055356 23540.953683 18416.034928 22972.586993 C 18537.724073 22403.929875 18781.39279 21365.361003 18914.118181 20821.390226 C 19047.134 20277.129022 19068.916067 20227.175486 19058.751102 20204.522138 C 19048.586138 20182.159217 19006.474143 20187.096486 18876.072172 20204.812565 C 18745.960628 20222.238218 18527.268681 20252.442681 18395.995427 20261.445935 C 18264.722174 20270.449189 18220.286758 20257.960805 18179.626901 20233.564891 C 18139.257471 20208.878551 18102.082744 20171.994254 18076.234692 20094.450101 C 18050.677067 20016.905949 18035.865262 19898.701941 18038.188683 19818.834369 C 18040.802531 19738.676368 18060.261177 19696.854803 18082.624098 19667.521622 C 18104.696592 19637.898013 18129.382934 19620.762788 18166.267233 19604.789274 C 18203.151532 19588.815759 18252.233789 19574.003955 18690.488966 19491.522534 Z M 18690.488966 19491.522534 " stroke="#000000" stroke-width="246.94" stroke-opacity="1" stroke-miterlimit="22.926001"/><path stroke-linecap="round" transform="matrix(0.01345, 0, 0, 0.01345, -25.801102, -14.067203)" fill-opacity="1" fill="#000000" fill-rule="evenodd" stroke-linejoin="round" d="M 16035.690708 16824.81689 C 16048.46952 16760.922832 16062.990898 16714.163998 16256.996503 16237.57241 C 16450.71168 15760.980822 16823.911085 14854.846906 17011.236857 14393.067122 C 17198.562628 13930.996911 17200.305193 13913.280831 17193.915787 13889.756201 C 17187.235954 13866.23157 17172.714576 13837.188817 17145.414386 13821.215302 C 17117.823769 13804.95136 17077.454339 13801.756657 16963.606738 13800.885374 C 16849.759138 13800.014092 16662.433366 13801.756657 16554.103889 13809.888628 C 16446.064839 13818.020599 16416.731657 13832.541976 16390.302749 13854.324041 C 16363.583415 13876.106106 16339.477928 13905.14886 16320.019282 13937.386317 C 16300.560636 13969.623773 16286.039258 14005.34636 16168.125672 14277.476963 C 16050.212085 14549.607565 15828.90629 15058.43661 15693.276623 15370.065357 C 15557.646956 15681.984532 15507.40299 15796.703409 15482.42622 15852.465496 C 15457.449451 15908.227583 15457.449451 15904.742452 15335.469879 15614.024488 C 15213.490306 15323.306523 14969.531162 14745.065297 14833.030213 14439.825956 C 14696.529263 14134.586614 14667.486508 14102.05873 14619.856389 14086.085216 C 14572.22627 14069.821274 14506.008788 14069.821274 14423.527364 14077.953245 C 14341.336366 14086.085216 14242.590998 14102.05873 14151.396747 14128.778064 C 14060.202495 14155.497397 13976.268933 14192.672122 13923.701546 14234.784115 C 13871.134159 14276.60568 13850.223375 14323.364513 13853.418078 14389.001137 C 13856.612781 14454.347333 13884.203398 14538.280891 14081.984562 14962.305095 C 14279.765725 15386.329299 14648.027862 16150.444149 14833.901495 16546.877737 C 15019.775129 16943.601752 15022.969832 16972.644506 15013.966578 17215.732354 C 15004.963324 17458.820203 14984.05254 17915.953146 14968.079025 18248.783104 C 14951.815082 18581.322633 14940.488407 18789.849605 14965.465177 18911.829171 C 14990.441946 19033.808736 15052.012587 19069.240896 15160.051637 19082.89099 C 15268.381114 19096.541084 15423.469427 19088.699541 15549.514985 19052.976954 C 15675.560543 19017.544794 15772.272918 18954.522019 15828.90629 18911.829171 C 15885.539663 18868.845895 15901.513178 18846.192547 15923.295245 18539.501068 C 15945.077311 18232.519162 15972.667929 17641.208696 15992.126575 17305.184036 C 16011.585221 16969.449803 16022.621468 16888.710948 16035.690708 16824.81689 Z M 16035.690708 16824.81689 " stroke="#ffffff" stroke-width="246.94" stroke-opacity="1" stroke-miterlimit="22.926001"/><path stroke-linecap="round" transform="matrix(0.01345, 0, 0, 0.01345, -25.801102, -14.067203)" fill-opacity="1" fill="#000000" fill-rule="evenodd" stroke-linejoin="round" d="M 18275.467993 15955.567271 C 18289.989371 15954.695989 18305.962886 15964.280098 18419.810487 16185.585881 C 18533.948515 16406.891664 18745.379773 16839.919122 18949.84077 17239.83784 C 19154.011339 17639.466131 19351.211648 18006.27611 19466.801814 18198.53914 C 19582.101552 18390.802169 19616.081576 18408.518249 19750.259105 18415.778937 C 19884.146207 18423.039626 20118.521241 18419.844923 20250.084923 18401.257561 C 20381.939032 18382.670198 20410.981787 18348.690176 20428.697868 18304.254763 C 20446.413948 18259.81935 20452.803354 18204.928546 20483.588675 17423.968899 C 20514.373996 16642.718824 20569.264803 15135.690334 20591.918152 14361.120093 C 20614.571501 13586.549852 20604.696964 13544.437859 20578.848912 13515.395106 C 20553.00086 13486.352352 20511.179292 13470.08841 20418.242476 13464.570287 C 20325.305659 13458.761736 20181.54402 13463.699004 20081.346515 13472.702258 C 19981.149009 13481.415084 19924.806064 13494.484323 19877.7568 13528.464345 C 19830.997964 13562.153939 19793.823238 13617.335171 19772.041171 13660.899302 C 19750.259105 13704.463432 19743.869699 13736.700889 19720.345067 14193.833832 C 19696.820435 14650.966775 19656.451005 15532.995205 19631.474236 15982.286605 C 19606.497466 16431.287577 19596.62293 16447.261092 19590.233523 16456.264345 C 19583.844117 16465.267599 19580.649414 16466.719737 19566.999319 16453.069642 C 19553.058797 16439.419548 19528.95331 16410.376794 19334.947705 15991.870714 C 19141.232527 15573.364633 18777.617231 14765.685652 18578.093503 14339.338028 C 18378.860202 13912.699976 18343.137613 13867.683708 18291.441508 13840.093092 C 18239.745404 13812.792903 18172.075784 13802.918367 18054.743053 13814.245041 C 17937.700749 13825.571715 17771.285762 13857.809172 17667.893553 13890.337056 C 17564.501344 13922.574512 17524.131915 13954.811969 17491.894456 13991.986694 C 17459.656998 14029.161418 17435.261083 14071.273411 17403.023625 14806.05508 C 17370.786167 15541.127176 17330.416737 16969.159376 17309.215526 17723.690117 C 17288.304742 18477.93043 17286.852604 18558.669286 17300.502699 18616.754793 C 17314.152794 18675.130728 17343.195549 18710.562887 17386.178827 18741.929061 C 17428.871677 18773.585663 17485.50505 18800.885851 17564.501344 18814.826373 C 17643.788066 18828.476467 17745.43771 18828.476467 17830.242555 18818.021076 C 17915.0474 18807.565685 17983.007448 18786.364475 18035.574835 18758.193004 C 18087.851794 18730.021532 18125.026521 18694.298945 18146.227732 18653.348663 C 18167.138516 18612.107952 18172.075784 18565.058691 18183.983314 18118.671567 C 18196.181271 17671.994015 18215.639917 16825.397745 18231.613433 16396.436273 C 18247.877375 15967.4748 18260.946615 15956.438554 18275.467993 15955.567271 Z M 18275.467993 15955.567271 " stroke="#ffffff" stroke-width="246.94" stroke-opacity="1" stroke-miterlimit="22.926001"/><path stroke-linecap="round" transform="matrix(0.01345, 0, 0, 0.01345, -25.801102, -14.067203)" fill-opacity="1" fill="#000000" fill-rule="evenodd" stroke-linejoin="round" d="M 21284.587865 16082.193678 C 21081.869433 16858.796912 20924.167272 17500.351341 20841.685847 17841.313269 C 20759.204422 18182.275198 20751.943734 18222.644625 20760.366133 18264.175763 C 20769.078959 18305.706901 20793.474874 18348.690176 20853.883805 18387.026611 C 20914.292735 18425.653474 21011.00511 18459.923923 21115.559029 18478.220858 C 21219.822521 18496.517793 21332.217984 18498.841213 21423.412235 18488.385822 C 21514.316059 18478.220858 21584.018672 18454.986655 21633.100928 18412.003379 C 21681.892757 18369.310531 21710.064229 18307.159039 21742.301688 18118.671567 C 21774.829574 17930.474523 21811.423445 17616.522356 21844.532186 17452.721225 C 21877.3505 17288.920094 21906.683682 17275.560427 22090.524323 17243.903826 C 22274.655392 17211.956796 22613.00349 17162.00326 22797.715414 17142.254188 C 22982.13691 17122.795543 23012.631803 17133.831789 23046.902254 17248.550666 C 23081.172705 17363.559971 23118.928287 17582.251906 23161.911565 17785.260755 C 23204.604415 17987.979175 23252.234533 18175.014509 23288.828405 18290.023814 C 23325.712704 18404.742691 23351.270329 18447.435539 23385.54078 18487.804967 C 23419.811231 18528.174394 23462.504082 18566.220402 23517.975744 18598.457858 C 23573.737834 18630.985742 23641.988309 18657.705076 23723.308024 18671.064742 C 23804.627738 18684.714837 23898.726265 18684.714837 23996.600351 18664.384909 C 24094.184008 18644.345409 24195.833652 18603.975981 24256.823438 18560.121423 C 24317.813224 18515.976438 24338.724008 18468.346322 24346.565551 18437.85143 C 24354.697523 18407.356539 24349.760255 18393.706445 24160.40149 17562.212406 C 23970.752298 16730.42794 23596.972038 15080.79953 23386.70249 14224.038296 C 23176.432942 13367.277062 23129.964534 13303.673431 23080.59185 13259.238018 C 23030.928738 13214.512177 22978.651779 13188.954554 22888.619238 13178.499163 C 22798.877124 13168.043771 22671.669856 13172.981039 22552.594559 13184.598141 C 22433.519263 13196.215242 22322.28551 13214.512177 22241.546651 13244.426214 C 22160.807791 13274.34025 22110.854252 13315.871388 22072.808243 13357.402525 C 22035.052661 13398.933663 22009.495036 13440.755229 21872.413231 13917.346817 C 21735.621854 14393.938405 21487.596724 15305.590444 21284.587865 16082.193678 Z M 22082.973207 16467.881447 C 22064.676271 16456.554773 22063.514561 16435.063135 22135.250166 16096.715054 C 22206.695344 15758.076546 22351.037838 15102.581595 22424.516009 14772.075058 C 22497.994179 14441.278093 22500.608027 14435.75997 22504.964441 14438.664246 C 22509.320854 14441.278093 22514.838978 14452.604767 22588.317148 14769.170783 C 22661.795319 15085.736798 22802.94311 15707.251727 22873.807432 16018.009192 C 22944.381328 16329.057084 22944.381328 16329.057084 22926.084392 16342.997606 C 22907.497029 16357.228555 22870.903157 16385.400026 22746.600164 16410.957649 C 22622.297172 16436.224845 22410.285059 16458.878193 22299.922589 16470.204867 C 22189.850546 16481.531541 22181.428147 16481.531541 22159.355653 16480.950686 C 22136.992732 16480.369831 22101.270143 16479.208121 22082.973207 16467.881447 Z M 22082.973207 16467.881447 " stroke="#ffffff" stroke-width="246.94" stroke-opacity="1" stroke-miterlimit="22.926001"/><path stroke-linecap="round" transform="matrix(0.01345, 0, 0, 0.01345, -25.801102, -14.067203)" fill-opacity="1" fill="#000000" fill-rule="evenodd" stroke-linejoin="round" d="M 13088.141477 16922.69097 C 13294.635467 16868.671448 13314.094113 16829.173303 13328.905918 16769.054803 C 13343.717723 16708.936302 13353.59226 16627.90702 13349.816702 16541.940469 C 13346.041144 16455.973918 13328.905918 16365.070099 13304.510004 16308.436729 C 13279.823662 16252.093787 13247.876631 16230.021294 13208.668911 16216.3712 C 13169.170764 16203.011533 13122.702356 16198.074265 12940.894708 16221.308468 C 12759.08706 16244.542671 12442.2306 16296.238772 12278.719888 16315.987845 C 12115.499603 16335.44649 12105.625067 16323.248533 12100.687798 16297.400482 C 12095.75053 16271.552432 12095.75053 16232.344714 12099.526088 16064.18717 C 12103.301646 15895.739199 12110.562335 15598.631828 12126.53585 15447.609509 C 12142.509366 15296.58719 12167.195708 15291.649922 12391.986633 15264.640161 C 12616.487132 15237.6304 13041.673068 15188.548146 13273.724683 15142.951023 C 13505.776297 15097.644327 13544.984017 15055.822762 13563.57138 15007.902218 C 13581.868316 14959.981675 13579.544896 14905.962153 13571.993779 14819.995602 C 13564.733091 14734.029051 13552.535133 14616.115471 13536.561618 14542.346876 C 13520.588103 14468.86871 13500.839029 14439.245101 13459.017461 14419.496028 C 13417.486321 14400.037383 13353.59226 14390.162847 13037.89751 14427.047144 C 12722.202761 14463.931441 12154.707323 14547.284145 11841.335994 14596.366398 C 11527.964665 14645.158224 11468.717444 14659.389174 11412.374499 14687.270217 C 11356.321981 14715.441688 11303.464166 14757.263254 11274.130984 14811.573203 C 11244.797801 14865.592725 11239.279677 14932.391059 11236.375402 14965.790225 C 11233.761554 14999.189392 11233.761554 14999.189392 11233.761554 14999.189392 C 11233.761554 14999.189392 11233.761554 14999.189392 11229.985996 15581.496604 C 11226.210437 16163.513388 11218.949749 17327.837384 11214.01248 17964.164117 C 11209.075212 18600.200423 11206.751791 18708.239467 11239.860532 18800.304996 C 11272.969273 18892.660953 11341.800603 18968.752968 11417.892622 19022.77249 C 11493.984641 19076.792012 11577.627776 19108.739041 11754.498156 19092.765526 C 11931.368535 19076.792012 12201.466159 19012.897953 12546.494091 18934.192091 C 12891.812451 18855.776656 13311.770692 18762.258989 13537.723328 18694.8798 C 13763.675964 18627.210184 13795.622995 18585.388619 13806.659242 18515.395583 C 13817.695489 18445.402546 13807.820952 18347.238039 13799.398553 18251.396951 C 13790.685727 18155.555864 13783.425038 18062.328625 13766.289812 18004.533545 C 13748.864159 17946.738465 13721.854397 17924.665972 13678.871119 17913.629726 C 13635.887841 17902.593479 13576.931048 17902.593479 13493.57834 17916.243574 C 13409.935205 17929.60324 13301.896156 17956.613001 13080.880788 18002.210125 C 12859.865421 18047.51682 12525.583308 18111.410879 12340.290529 18136.097219 C 12154.707323 18160.493132 12117.823024 18145.681328 12099.526088 18123.608835 C 12081.229152 18101.536342 12081.229152 18072.203161 12078.615304 17910.144595 C 12076.291884 17747.795602 12071.354615 17453.011652 12073.678036 17298.504203 C 12076.291884 17143.706325 12086.166421 17128.894521 12287.432715 17087.072956 C 12488.989436 17045.25139 12881.937915 16976.710492 13088.141477 16922.69097 Z M 13088.141477 16922.69097 " stroke="#ffffff" stroke-width="246.94" stroke-opacity="1" stroke-miterlimit="22.926001"/><path stroke-linecap="round" transform="matrix(0.01345, 0, 0, 0.01345, -25.801102, -14.067203)" fill-opacity="1" fill="#000000" fill-rule="evenodd" stroke-linejoin="round" d="M 9895.471392 17599.387131 C 10001.187021 17509.645022 10173.120132 17365.012109 10304.393386 17229.672876 C 10435.666639 17094.624072 10526.570463 16969.449803 10589.302815 16835.562709 C 10652.035166 16701.675614 10686.305617 16559.366121 10709.539822 16403.406533 C 10733.064453 16247.446946 10745.26241 16077.837265 10729.288895 15902.419032 C 10713.31538 15726.710372 10669.170392 15544.902734 10586.979394 15385.458016 C 10504.497969 15225.722871 10384.260963 15088.060218 10262.571818 14992.509559 C 10141.173101 14896.668472 10018.322246 14842.64895 9896.633102 14805.764652 C 9775.234385 14768.880355 9654.706951 14749.131283 9482.77384 14744.194015 C 9310.840728 14739.256746 9087.501941 14749.131283 8852.836478 14778.754891 C 8618.461443 14808.088073 8372.759734 14857.170326 8140.708119 14922.226095 C 7908.656505 14987.572291 7689.964558 15068.601573 7487.246126 15165.604371 C 7284.818122 15262.607168 7098.073206 15375.58348 6983.935177 15450.513785 C 6869.506722 15525.444089 6827.975582 15562.037959 6783.540166 15607.635082 C 6739.395178 15652.941778 6692.92677 15706.9613 6673.177696 15792.927851 C 6653.428623 15878.894402 6660.979739 15996.807982 6705.124727 16102.523605 C 6749.269715 16208.239229 6830.299002 16301.466468 6904.0676 16343.288033 C 6977.836199 16384.819171 7044.053681 16375.235062 7118.983989 16329.637939 C 7193.914298 16284.331243 7277.267005 16203.30196 7322.864131 16158.866547 C 7368.170829 16114.721562 7375.721946 16107.460873 7371.946388 16512.607287 C 7368.170829 16917.753702 7353.359024 17735.888073 7342.322777 18448.016394 C 7331.28653 19160.144715 7324.025841 19766.84784 7336.223799 20090.964971 C 7348.712183 20415.37253 7380.368787 20456.903667 7433.226601 20486.527276 C 7486.084416 20515.860457 7559.853014 20533.28611 7655.694106 20528.348842 C 7751.244771 20523.411573 7869.158358 20496.401812 7962.676029 20459.517515 C 8055.903274 20422.633218 8124.734604 20375.874385 8183.691397 20326.792131 C 8242.64819 20277.709877 8291.730447 20226.304203 8316.126361 19909.44776 C 8340.812703 19592.591317 8340.812703 19010.284106 8341.974413 18719.275714 C 8343.136123 18428.267321 8345.749971 18428.267321 8427.940969 18405.033119 C 8510.422394 18381.798916 8672.480968 18335.040082 8759.609234 18315.29101 C 8846.737499 18295.832365 8858.935457 18303.093053 8887.397357 18333.878372 C 8915.568829 18364.373263 8959.713817 18418.392785 9067.752867 18591.778025 C 9175.791916 18764.872837 9347.725028 19057.042939 9520.819849 19312.619172 C 9694.205098 19567.904977 9868.461629 19786.596912 10061.305524 19966.952413 C 10254.149419 20147.598341 10465.29025 20289.907834 10648.259608 20374.712674 C 10831.228966 20459.517515 10986.026852 20486.527276 11126.012932 20482.751718 C 11265.999012 20479.266588 11391.173287 20444.705711 11512.862432 20384.587211 C 11634.261149 20324.468711 11752.174735 20238.50216 11839.303001 20159.796297 C 11926.721694 20081.380862 11983.064639 20009.935688 12006.298844 19931.520253 C 12029.823475 19852.81439 12019.948939 19766.84784 11992.939176 19721.541144 C 11965.929414 19675.94402 11921.784426 19671.006752 11840.755139 19671.006752 C 11759.725852 19671.006752 11641.812265 19675.94402 11533.773216 19653.871528 C 11425.443739 19631.799035 11327.279226 19582.716781 11210.817777 19504.010919 C 11094.065901 19425.595484 10959.017089 19317.55644 10822.516139 19189.768323 C 10686.305617 19061.980207 10548.642957 18914.733446 10413.594145 18732.925808 C 10278.545334 18551.11817 10146.11037 18335.040082 10055.206546 18186.341183 C 9964.302722 18037.932712 9915.220465 17956.903429 9864.686071 17905.207327 C 9814.442105 17853.511226 9762.746 17831.438733 9737.188376 17811.980088 C 9711.340323 17792.231015 9711.340323 17775.095791 9730.798969 17749.24774 C 9750.548043 17723.399689 9789.755763 17689.12924 9895.471392 17599.387131 Z M 9519.948566 16769.926085 C 9393.031726 16913.687716 9191.184577 17078.069702 9009.957784 17197.43542 C 8829.021419 17317.091565 8668.414982 17391.731442 8565.603629 17427.163601 C 8462.792275 17462.595761 8418.066432 17458.820203 8384.376836 17453.30208 C 8350.977667 17447.783957 8328.324318 17440.232841 8313.512513 17150.676586 C 8298.41028 16861.410759 8291.149591 16289.849367 8330.357311 15987.223873 C 8369.565031 15684.888807 8455.531586 15651.199213 8567.346194 15623.027742 C 8679.451229 15595.146698 8817.694744 15572.783778 8969.007499 15570.750785 C 9120.320254 15569.00822 9284.702249 15587.595582 9390.998733 15611.991495 C 9497.585645 15636.096981 9546.087046 15666.011017 9598.364005 15724.096524 C 9650.640965 15781.891604 9706.693483 15867.858155 9732.831962 15981.70575 C 9758.970442 16095.553344 9755.194884 16237.57241 9727.313839 16370.007367 C 9699.142366 16502.732751 9646.865407 16625.874027 9519.948566 16769.926085 Z M 9519.948566 16769.926085 " stroke="#ffffff" stroke-width="246.94" stroke-opacity="1" stroke-miterlimit="22.926001"/><path stroke-linecap="round" transform="matrix(0.01345, 0, 0, 0.01345, -25.801102, -14.067203)" fill-opacity="1" fill="#990000" fill-rule="evenodd" stroke-linejoin="round" d="M 12431.775208 20803.383719 C 12328.673427 21182.101227 12143.961504 21893.067838 11981.902929 22618.555825 C 11819.553927 23344.043813 11679.277419 24084.343605 11612.76951 24479.034627 C 11546.552028 24873.72565 11553.812717 24922.807904 11600.571553 24979.441274 C 11647.330389 25036.074643 11733.296944 25099.968701 11840.464711 25128.4306 C 11947.34205 25156.602071 12075.130174 25149.341383 12161.387157 25124.655042 C 12247.353712 25099.968701 12291.789128 25058.147136 12319.9606 25017.487281 C 12348.132073 24977.117853 12360.620458 24937.619708 12423.352809 24583.588541 C 12486.08516 24229.266946 12599.061478 23560.412328 12669.054519 23215.965269 C 12739.337986 22871.808638 12766.347749 22852.059565 12923.759482 22820.112536 C 13081.171216 22788.165507 13368.98492 22744.020521 13520.007248 22725.433159 C 13671.320002 22707.136224 13686.131808 22714.396913 13689.907366 22752.44292 C 13693.392496 22790.488927 13686.131808 22859.610681 13645.47195 23052.454566 C 13605.10252 23245.588878 13531.333922 23562.735748 13488.060217 23786.655379 C 13445.076939 24010.57501 13432.878982 24140.976974 13435.202402 24220.844547 C 13437.81625 24300.71212 13454.951476 24330.335728 13497.934754 24360.83062 C 13540.918031 24391.615939 13610.039789 24423.562968 13716.917128 24436.051352 C 13823.794467 24448.249308 13969.008244 24440.98862 14057.588647 24427.338526 C 14146.169051 24413.978859 14178.116082 24394.229787 14340.465083 23696.91327 C 14502.814085 22999.596754 14795.274631 21624.712794 14934.970284 20921.297299 C 15074.665936 20217.591377 15061.015841 20185.35392 15043.880616 20161.82929 C 15026.74539 20138.595087 15005.834606 20124.07371 14925.095747 20112.166181 C 14844.647315 20099.968224 14704.370807 20090.093688 14609.691425 20098.806514 C 14515.012043 20107.51934 14465.929786 20134.529101 14420.33266 20174.898529 C 14374.735535 20215.558384 14332.913967 20269.577906 14253.04639 20571.041689 C 14173.178813 20872.215045 14054.974799 21420.832663 13977.72107 21702.256946 C 13900.176914 21983.971657 13863.292615 21998.783461 13703.267033 22023.179374 C 13543.531879 22047.865715 13260.655443 22082.426592 13105.857558 22094.624549 C 12950.769245 22106.822505 12923.759482 22096.947969 12910.109387 22078.651034 C 12896.74972 22060.063672 12896.74972 22033.053911 12969.356608 21751.629627 C 13041.673068 21469.914916 13186.886845 20933.785683 13250.780906 20654.68482 C 13314.674968 20375.583957 13297.539742 20353.221037 13277.790669 20329.986834 C 13258.332023 20306.462203 13235.969101 20282.06629 13200.53694 20262.317218 C 13164.814351 20242.568145 13115.441667 20228.046768 13046.610337 20220.495652 C 12977.779007 20213.234964 12889.198603 20213.234964 12818.043853 20224.27121 C 12746.598675 20235.307457 12692.57915 20257.37995 12655.694851 20277.129022 C 12618.810552 20296.878095 12599.061478 20314.013319 12578.150695 20345.960348 C 12557.239911 20377.907377 12535.167417 20424.666211 12431.775208 20803.383719 Z M 12431.775208 20803.383719 " stroke="#ffffff" stroke-width="246.94" stroke-opacity="1" stroke-miterlimit="22.926001"/><path stroke-linecap="round" transform="matrix(0.01345, 0, 0, 0.01345, -25.801102, -14.067203)" fill-opacity="1" fill="#990000" fill-rule="evenodd" stroke-linejoin="round" d="M 15321.529356 21167.289423 C 14816.76627 22251.164991 14939.617124 23502.32682 15595.692966 23962.073612 C 16251.768807 24422.11083 17193.044505 23916.186061 17697.517163 22832.310493 C 18202.28025 21748.434924 18079.429395 20496.982668 17423.353554 20037.235876 C 16767.277713 19577.489085 15826.292442 20083.413855 15321.529356 21167.289423 Z M 15972.958356 21816.685396 C 16206.752536 21010.458553 16642.393865 20428.151341 16945.890657 20516.441313 C 17249.677877 20604.440856 17306.31125 21329.347989 17072.807498 22135.574831 C 16839.013318 22941.801674 16403.371989 23524.108886 16099.584769 23435.818914 C 15795.797549 23347.819371 15739.164177 22622.912238 15972.958356 21816.685396 Z M 15972.958356 21816.685396 " stroke="#ffffff" stroke-width="246.94" stroke-opacity="1" stroke-miterlimit="22.926001"/><path stroke-linecap="round" transform="matrix(0.01345, 0, 0, 0.01345, -25.801102, -14.067203)" fill-opacity="1" fill="#990000" fill-rule="evenodd" stroke-linejoin="round" d="M 18914.118181 20821.390226 C 18781.39279 21365.361003 18537.724073 22403.929875 18416.034928 22972.586993 C 18294.055356 23540.953683 18294.055356 23639.408618 18332.391793 23705.916524 C 18370.437803 23772.42443 18446.820249 23806.694879 18537.724073 23831.38122 C 18628.918324 23856.067561 18734.633954 23870.879365 18811.0164 23864.489959 C 18887.398846 23858.390981 18934.157682 23831.38122 18972.203692 23798.272481 C 19010.249701 23764.873314 19039.873311 23725.665596 19183.925377 23126.22316 C 19327.687016 22527.071151 19586.167538 21367.974851 19720.345067 20747.91206 C 19854.522596 20127.55884 19864.397133 20046.529558 19882.694069 20000.932434 C 19901.281432 19955.335311 19928.291195 19945.460775 20093.254044 19924.549992 C 20257.926467 19903.639209 20560.842404 19871.69218 20741.488342 19842.068572 C 20922.424707 19812.73539 20981.671928 19785.435202 21024.655205 19752.326463 C 21067.638483 19719.217723 21094.648246 19679.719578 21109.460051 19623.086209 C 21124.271856 19566.452839 21126.595276 19492.684245 21125.433566 19427.628476 C 21124.271856 19362.28228 21119.334588 19305.648911 21101.037652 19260.051787 C 21082.450288 19214.745092 21050.503258 19180.184215 20995.031595 19156.659584 C 20939.559933 19133.425381 20860.854066 19121.227425 20408.077511 19190.058751 C 19955.300957 19258.890077 19128.453715 19409.041114 18690.488966 19491.522534 C 18252.233789 19574.003955 18203.151532 19588.815759 18166.267233 19604.789274 C 18129.382934 19620.762788 18104.696592 19637.898013 18082.624098 19667.521622 C 18060.261177 19696.854803 18040.802531 19738.676368 18038.188683 19818.834369 C 18035.865262 19898.701941 18050.677067 20016.905949 18076.525119 20094.450101 C 18102.082744 20171.994254 18139.257471 20208.878551 18179.626901 20233.564891 C 18220.286758 20257.960805 18264.722174 20270.449189 18395.995427 20261.445935 C 18527.268681 20252.442681 18745.960628 20222.528645 18876.072172 20204.812565 C 19006.474143 20187.096486 19048.586138 20182.159217 19058.751102 20204.522138 C 19068.916067 20227.175486 19047.134 20277.129022 18914.118181 20821.390226 Z M 18914.118181 20821.390226 " stroke="#ffffff" stroke-width="246.94" stroke-opacity="1" stroke-miterlimit="22.926001"/><path stroke-linecap="round" transform="matrix(0.01345, 0, 0, 0.01345, -25.801102, -14.067203)" fill-opacity="1" fill="#ffcc00" fill-rule="evenodd" stroke-linejoin="round" d="M 13898.724776 12659.795582 C 14027.093754 12588.350407 14197.865155 12502.964712 14409.296413 12431.519537 C 14620.727672 12359.783936 14872.52836 12302.279283 15107.48425 12258.424725 C 15342.44014 12214.570167 15560.260804 12184.656131 15775.758048 12165.487914 C 15991.54572 12146.319696 16205.009971 12137.897298 16396.1113 12143.124993 C 16587.503058 12148.352689 16755.951038 12167.811334 16906.682938 12197.72537 C 17057.12441 12227.348979 17189.559374 12268.008834 17290.047307 12293.566457 C 17390.244813 12319.414508 17458.495288 12329.869899 17506.706261 12308.668689 C 17554.626808 12287.177052 17582.507853 12234.028812 17638.56037 11855.892159 C 17694.903315 11477.755506 17779.708161 10774.920866 17864.222579 10072.086227 C 17847.377781 10074.700075 17829.952127 10076.152212 17812.526474 10076.152212 C 17697.807591 10076.152212 17597.319658 10015.452857 17541.847995 9924.258611 C 17344.647687 10146.726104 17147.447379 10369.193597 17000.781465 10528.638315 C 16854.405978 10687.792605 16758.274458 10783.92412 16676.083461 10836.201077 C 16593.892464 10888.478033 16525.351561 10897.190859 16446.936122 10864.662975 C 16368.520683 10831.844664 16279.940279 10758.366497 16101.327335 10523.991474 C 15922.71439 10289.616452 15654.068904 9894.925429 15385.423418 9499.943979 C 15319.496363 9559.481624 15232.368097 9595.785066 15136.527005 9595.785066 C 15080.474487 9595.785066 15027.326245 9583.296682 14979.696127 9561.224189 C 14912.607362 9748.840378 14845.809025 9936.456567 14751.42007 10180.706126 C 14657.031116 10425.246112 14535.341971 10726.419468 14441.243444 10913.164374 C 14347.144917 11099.90928 14281.217863 11172.516165 14197.865155 11194.007802 C 14114.512448 11215.209012 14014.024514 11185.294976 13812.177365 11072.899519 C 13610.039789 10960.213635 13306.542996 10764.755903 13003.046204 10569.29817 C 12970.808746 10710.445953 12844.47276 10815.871149 12693.740861 10815.871149 C 12929.568033 11452.197883 13165.395206 12088.815044 13297.249315 12418.740726 C 13429.103424 12748.666408 13456.694041 12771.900611 13489.802782 12792.230538 C 13522.911523 12812.560466 13561.538388 12829.695691 13623.399456 12809.365763 C 13685.260525 12789.035835 13770.646225 12731.531183 13898.724776 12659.795582 Z M 13898.724776 12659.795582 " stroke="#ffffff" stroke-width="246.94" stroke-opacity="1" stroke-miterlimit="22.926001"/><path stroke-linecap="round" transform="matrix(0.01345, 0, 0, 0.01345, -25.801102, -14.067203)" fill-opacity="1" fill="#ffcc00" fill-rule="evenodd" stroke-linejoin="round" d="M 12693.740861 10815.871149 C 12844.47276 10815.871149 12970.808746 10710.445953 13003.046204 10569.29817 C 13007.983472 10546.644822 13010.887748 10523.120192 13010.887748 10498.724279 C 13010.887748 10323.596474 12868.868675 10181.577408 12693.740861 10181.577408 C 12518.613046 10181.577408 12376.593973 10323.596474 12376.593973 10498.724279 C 12376.593973 10673.852084 12518.613046 10815.871149 12693.740861 10815.871149 Z M 12693.740861 10815.871149 " stroke="#ffffff" stroke-width="246.94" stroke-opacity="1" stroke-miterlimit="22.926001"/><path stroke-linecap="round" transform="matrix(0.01345, 0, 0, 0.01345, -25.801102, -14.067203)" fill-opacity="1" fill="#ffcc00" fill-rule="evenodd" stroke-linejoin="round" d="M 14765.070165 9224.328246 C 14765.070165 9373.608 14853.069714 9502.267399 14979.696127 9561.224189 C 15027.326245 9583.296682 15080.474487 9595.785066 15136.527005 9595.785066 C 15232.368097 9595.785066 15319.496363 9559.481624 15385.423418 9499.943979 C 15460.644154 9431.983935 15507.983845 9333.819428 15507.983845 9224.328246 C 15507.983845 9019.286405 15341.568857 8852.871426 15136.527005 8852.871426 C 14931.194725 8852.871426 14765.070165 9019.286405 14765.070165 9224.328246 Z M 14765.070165 9224.328246 " stroke="#ffffff" stroke-width="246.94" stroke-opacity="1" stroke-miterlimit="22.926001"/><path stroke-linecap="round" transform="matrix(0.01345, 0, 0, 0.01345, -25.801102, -14.067203)" fill-opacity="1" fill="#ffcc00" fill-rule="evenodd" stroke-linejoin="round" d="M 17812.526474 9441.858472 C 17637.39866 9441.858472 17495.379587 9583.877537 17495.379587 9759.005342 C 17495.379587 9819.704697 17512.224385 9876.047639 17541.847995 9924.258611 C 17597.319658 10015.452857 17697.807591 10076.152212 17812.526474 10076.152212 C 17829.952127 10076.152212 17847.377781 10074.700075 17864.222579 10072.086227 C 18014.664051 10047.109459 18129.673362 9916.417067 18129.673362 9759.005342 C 18129.673362 9583.877537 17987.654288 9441.858472 17812.526474 9441.858472 Z M 17812.526474 9441.858472 " stroke="#ffffff" stroke-width="246.94" stroke-opacity="1" stroke-miterlimit="22.926001"/><path stroke-linecap="round" transform="matrix(0.01345, 0, 0, 0.01345, -25.801102, -14.067203)" fill-opacity="1" fill="#990000" fill-rule="evenodd" stroke-linejoin="round" d="M 5730.159433 17416.998638 C 5730.159433 11983.389848 10135.074123 7578.184967 15568.973631 7578.184967 C 20791.441881 7578.184967 25062.759896 11647.655615 25387.167472 16788.22302 L 25387.167472 16789.965585 C 25400.236712 16997.330847 25407.787828 17206.438673 25407.787828 17416.998638 C 25407.787828 22850.897855 21002.873139 27256.102736 15568.973631 27256.102736 C 10592.497518 27256.102736 6479.462519 23560.993183 5822.515395 18764.872837 C 5820.482402 18750.641888 5818.449409 18736.701366 5816.416416 18722.470416 C 5759.783043 18295.541937 5730.159433 17859.900632 5730.159433 17416.998638 Z M 26631.649535 17528.813239 C 26631.649535 17245.355963 26630.487825 16944.473035 26609.577041 16666.533882 C 26596.217374 16351.710432 26582.857706 16037.177409 26566.303336 15775.502198 C 26550.039393 15513.53656 26529.999892 15305.009589 26507.63697 15098.806037 C 26484.983621 14892.602486 26460.006851 14689.012783 26432.416234 14515.337115 C 26404.825616 14341.951876 26375.202006 14199.061528 26329.314453 13984.726005 C 26283.426899 13770.680911 26221.565831 13485.481069 26164.64203 13265.046569 C 26107.71823 13044.612068 26055.731698 12888.652481 25992.999347 12694.356458 C 25930.266996 12499.770009 25856.788825 12266.556696 25771.693552 12018.53158 C 25686.598279 11770.506463 25589.885904 11507.669542 25505.952341 11296.81915 C 25422.018779 11085.968759 25350.864028 10926.814468 25290.16467 10786.828395 C 25229.465311 10647.13275 25179.511772 10526.314895 25112.13258 10378.777706 C 25044.753388 10231.530945 24959.658115 10057.855278 24866.721298 9869.077378 C 24773.784481 9680.589907 24672.715693 9477.000204 24538.538164 9245.529457 C 24404.070207 9014.05871 24236.493509 8754.416491 24059.042274 8490.127433 C 23881.59104 8225.547947 23694.846124 7956.612047 23508.97249 7720.784887 C 23323.098856 7484.957727 23138.67736 7282.820161 23036.156434 7169.84385 C 22933.635508 7057.157965 22913.596007 7033.923762 22904.592753 7025.791791 C 22895.589499 7017.950248 22897.622492 7025.210936 22909.820449 7182.332234 C 22922.308834 7339.163104 22944.962183 7645.564155 22944.962183 7884.295591 C 22945.25261 8123.317454 22923.180116 8294.6697 22904.302326 8423.619527 C 22885.424535 8552.278926 22869.451019 8638.826332 22829.952872 8750.060078 C 22790.454725 8861.584253 22727.431946 8998.085195 22687.062516 9068.659086 C 22646.983514 9139.232978 22629.557861 9143.879819 22613.874773 9134.586137 C 22598.482113 9125.582884 22584.54159 9102.639108 22565.663799 9062.560108 C 22546.786008 9022.481108 22522.970949 8965.557311 22496.251614 8897.887695 C 22469.241852 8830.218079 22439.908669 8752.093071 22399.539239 8659.446687 C 22359.169809 8566.509875 22308.05456 8459.051686 22242.998788 8343.171099 C 22177.652589 8227.290512 22098.07544 8102.406671 21984.518267 7929.602286 C 21870.961094 7756.797902 21723.423897 7535.782546 21621.193398 7374.304836 C 21518.9629 7212.827125 21462.329527 7110.88706 21402.501451 7017.369393 C 21342.963803 6923.851726 21280.521879 6839.046885 21215.17568 6680.183022 C 21149.829481 6521.609587 21081.579006 6289.267557 21052.826678 6051.116977 C 21024.364778 5812.966397 21035.401025 5569.297693 21086.225847 5379.358084 C 21137.050668 5189.418475 21227.664065 5053.20796 21264.548364 4987.861764 C 21301.142235 4922.515568 21284.297437 4928.324119 21173.64454 4965.208416 C 21063.28207 5002.383141 20859.1115 5070.633612 20666.558033 5150.210757 C 20473.714138 5229.497475 20292.487345 5320.401294 20139.432025 5414.209388 C 19986.376705 5508.017483 19861.783285 5604.439425 19700.305566 5757.785165 C 19539.118274 5910.840477 19340.756256 6120.819586 19202.222313 6316.567746 C 19063.397943 6512.315906 18984.111221 6693.833116 18947.51735 6778.928385 C 18910.63305 6864.023653 18916.441601 6852.696979 18910.63305 6773.410262 C 18904.824499 6693.833116 18887.689274 6546.586355 18876.072172 6353.742471 C 18864.45507 6160.898586 18858.646518 5923.038433 18847.029416 5664.848353 C 18835.412314 5406.9487 18818.277089 5129.299975 18738.409512 4837.4203 C 18658.832362 4545.540625 18516.813289 4239.430001 18374.794216 4029.74132 C 18233.06557 3820.052638 18091.046497 3706.785898 17994.62455 3627.499181 C 17898.202602 3548.212463 17847.087353 3502.905767 17832.856403 3531.367666 C 17818.91588 3559.829565 17841.569229 3661.76963 17841.859657 3817.729217 C 17841.859657 3973.688805 17819.496735 4183.377487 17777.094313 4356.472299 C 17734.69189 4529.276683 17672.540394 4665.487198 17584.831273 4784.562488 C 17496.831725 4903.637778 17383.564979 5005.868271 17273.202509 5085.445417 C 17162.840039 5165.022562 17055.091417 5221.655931 16981.322819 5258.540229 C 16907.844648 5295.424526 16868.056073 5312.55975 16842.498449 5247.503982 C 16816.940824 5182.157786 16805.323722 5034.911025 16779.766097 4810.991394 C 16753.918045 4587.071763 16713.839043 4286.479262 16651.397119 4057.041508 C 16588.664768 3827.313326 16503.569495 3668.739891 16381.589923 3464.85976 C 16259.319923 3260.689202 16100.456052 3011.502375 15947.110304 2804.717968 C 15793.764556 2597.933562 15646.22736 2433.551576 15461.805864 2255.229068 C 15277.384368 2076.906561 15056.078573 1884.353104 14834.772778 1728.683944 C 14613.466983 1573.014784 14392.161188 1454.229921 14250.432542 1383.365602 C 14108.703897 1312.501283 14046.261973 1290.138363 14037.839574 1301.465037 C 14029.417175 1312.791711 14074.723873 1358.098407 14128.743398 1502.440893 C 14182.762922 1647.073806 14245.204846 1890.742509 14273.957174 2117.566416 C 14302.419074 2344.390322 14296.900951 2554.079004 14282.960428 2718.46099 C 14269.019906 2882.842976 14246.366556 3001.918266 14181.310785 3197.666426 C 14116.255013 3393.414586 14008.796818 3665.545188 13892.916225 3898.177645 C 13777.035632 4130.810102 13652.442211 4323.653987 13502.291167 4516.497872 C 13352.43055 4709.341756 13176.72188 4902.476068 12987.072689 5092.415677 C 12797.133069 5282.645714 12593.252927 5469.971475 12423.352809 5637.257737 C 12253.452691 5804.834426 12117.532596 5952.371614 12012.978677 6099.908803 C 11908.134331 6247.445992 11834.65616 6394.692753 11779.474925 6538.744812 C 11724.29369 6682.506442 11687.409391 6822.782943 11659.237918 6831.205341 C 11630.776018 6839.918168 11610.736517 6716.776892 11563.977681 6507.669065 C 11516.928418 6298.851666 11442.869392 6004.067716 11357.774119 5763.01286 C 11272.388418 5522.248432 11175.676043 5335.213098 11059.505022 5153.986315 C 10943.043574 4972.759532 10806.833052 4797.050872 10673.526805 4666.648908 C 10539.930131 4536.537372 10409.52816 4451.732531 10358.41291 4414.848234 C 10307.297661 4377.963936 10335.759561 4389.29061 10358.41291 4448.828255 C 10381.356687 4508.3659 10398.491913 4616.114517 10375.838564 4806.054126 C 10353.475642 4995.993735 10291.324146 5268.124337 10237.595049 5483.62157 C 10183.865951 5699.118802 10138.849681 5857.982665 10042.718161 6065.057499 C 9946.586641 6271.841905 9799.339872 6527.12771 9550.153032 6850.663986 C 9300.966192 7174.200263 8949.839281 7565.696583 8644.019068 7945.866228 C 8338.198855 8326.035874 8077.975768 8694.878846 7869.158358 9081.147471 C 7660.631375 9467.416095 7503.800496 9871.400799 7413.1871 10180.415698 C 7322.864131 10489.721025 7299.049072 10703.76612 7284.237267 10844.913903 C 7269.425462 10986.061686 7263.907338 11054.021729 7246.772112 11088.001751 C 7229.927314 11122.272201 7201.465414 11122.272201 7139.604346 11074.932512 C 7077.452849 11027.883251 6981.902185 10933.494302 6899.42076 10772.016591 C 6817.229762 10610.53888 6748.108005 10381.972409 6719.065249 10151.372944 C 6690.022494 9920.77348 6701.058741 9688.43145 6706.867292 9574.874283 C 6712.385416 9461.607544 6712.385416 9467.125667 6579.369597 9680.009052 C 6446.353778 9892.602009 6180.322139 10312.560227 5914.290501 10845.785185 C 5648.258863 11379.010143 5382.517653 12025.501841 5207.099411 12490.476327 C 5031.971597 12955.741242 4947.166751 13239.198518 4827.801027 13902.535012 C 4708.435303 14566.161934 4554.5087 15609.377647 4526.0468 16502.151896 C 4497.294472 17394.635717 4593.71642 18136.387647 4690.138367 18878.139576 C 5355.50789 24317.847344 10009.899847 28531.079624 15629.382562 28531.079624 C 21705.998244 28531.079624 26631.649535 23605.138169 26631.649535 17528.813239 Z M 26631.649535 17528.813239 " stroke="#ffffff" stroke-width="246.94" stroke-opacity="1" stroke-miterlimit="22.926001"/></svg>